/* XPM */
static char *d2cdd12855eb40d995e93b3faf9883e37gmyzmUzpu3fTOdX[] = {
/* columns rows colors chars-per-pixel */
"64 64 160 2 ",
"   c white",
".  c #060507",
"X  c #07070B",
"o  c #0B0A0D",
"O  c #100E0F",
"+  c #0D0D12",
"@  c #100F14",
"#  c #131116",
"$  c #1A1515",
"%  c #151419",
"&  c #19161A",
"*  c #16191B",
"=  c #1C1A1C",
"-  c #221B17",
";  c #231D1C",
":  c #281F1B",
">  c #1D221E",
",  c #24211E",
"<  c #2B231E",
"1  c #32261D",
"2  c #35291E",
"3  c #3C2F1F",
"4  c #1E1C21",
"5  c #221E21",
"6  c #1E2421",
"7  c #242121",
"8  c #2B2423",
"9  c #242C25",
"0  c #2D2A25",
"q  c #2B2729",
"w  c #272E2A",
"e  c #2C2B29",
"r  c #302722",
"t  c #342B24",
"y  c #392E24",
"u  c #342D2A",
"i  c #2C3427",
"p  c #273129",
"a  c #2A352A",
"s  c #27382A",
"d  c #2C3D2E",
"f  c #373225",
"g  c #3D3225",
"h  c #35312B",
"j  c #3C332C",
"k  c #363A2B",
"l  c #2D3D30",
"z  c #3D3530",
"x  c #323B32",
"c  c #3C3C33",
"v  c #413326",
"b  c #42362B",
"n  c #45392D",
"m  c #493C2E",
"M  c #413730",
"N  c #453B32",
"B  c #4A3E32",
"V  c #334334",
"C  c #3B4634",
"Z  c #344C35",
"A  c #3B4B37",
"S  c #3F473A",
"D  c #3C4D3B",
"F  c #335136",
"G  c #36533A",
"H  c #3C553A",
"J  c #37583A",
"K  c #395B3C",
"L  c #3E613F",
"P  c #464435",
"I  c #4D4234",
"U  c #404837",
"Y  c #4C4935",
"T  c #40433A",
"R  c #4F4439",
"E  c #444D3C",
"W  c #4E4A3B",
"Q  c #514535",
"!  c #554937",
"~  c #584C37",
"^  c #534739",
"/  c #554A3A",
"(  c #594D3C",
")  c #435237",
"_  c #43513C",
"`  c #425C3D",
"'  c #4E593A",
"]  c #54523E",
"[  c #5D543D",
"{  c #57583F",
"}  c #5F583D",
"|  c #60573F",
" . c #60583F",
".. c #3B5441",
"X. c #3A5940",
"o. c #3E6442",
"O. c #494E42",
"+. c #5B4F40",
"@. c #455241",
"#. c #495540",
"$. c #455B42",
"%. c #4C5B45",
"&. c #4D5D4A",
"*. c #525443",
"=. c #5D5341",
"-. c #545A47",
";. c #5D5A43",
":. c #505F48",
">. c #605643",
",. c #635B43",
"<. c #665D4A",
"1. c #436342",
"2. c #486242",
"3. c #446C46",
"4. c #4B6C44",
"5. c #476549",
"6. c #4C634B",
"7. c #486B4B",
"8. c #536947",
"9. c #566C48",
"0. c #4A764B",
"q. c #4C7B4E",
"w. c #52754A",
"e. c #587649",
"r. c #527C4D",
"t. c #5C7A4F",
"y. c #577A51",
"u. c #666143",
"i. c #696546",
"p. c #6A6845",
"a. c #67604B",
"s. c #68604A",
"d. c #6C6C4B",
"f. c #627448",
"g. c #68714A",
"h. c #568354",
"j. c #598050",
"k. c #5A8052",
"l. c #598352",
"z. c #588553",
"x. c #5B8453",
"c. c #5A8753",
"v. c #5B8757",
"b. c #5E8757",
"n. c #5A8857",
"m. c #5E8B59",
"M. c #5D8B5B",
"N. c #5D8D59",
"B. c #5F8E59",
"V. c #5E8C5A",
"C. c #608957",
"Z. c #618859",
"A. c #648F5D",
"S. c #678D5E",
"D. c #65915E",
"F. c #769162",
"G. c #789263",
"H. c #7DA06E",
"J. c #9BA478",
"K. c #9BA77A",
/* pixels */
"                                                                                                                                ",
"                                                                                                                                ",
"                                                                                                                                ",
"                                                                                                                                ",
"                                                                                                                                ",
"                                                                                                                                ",
"                                                                                                                                ",
"                                                                                                                                ",
"                                                                                                                                ",
"                                                                        G                                                       ",
"                                                                    S.Z F                                                       ",
"                                                                  h.C H o.                                                      ",
"                                                  K.H.M.n.n.D.  D.) ' 4.q.                                                      ",
"                                              J.G.x.x.M.N.N.3.2.7.{ u.e.q.                                                      ",
"                                              Z.Z.x.n.N.N.r.$.O.c / u.g.q.                                                      ",
"                                            l.j.l.b.y.w.r.4.@.h % %.} f.                                                        ",
"                                            q.w.y.` D V 1.5.E P i &.*.9.                                                        ",
"                                          0.7.4.2.#.c C H 8.%.@.%.&.$.                                                          ",
"                                        r.3.1.` E = i = @.;.` 7.5.D                                                             ",
"                                G.j.0.j.r.1.X.A E 8 o x 5.2.7...s 9                                                             ",
"                            t.4.` V 0 d L G D A -.*.D 6.5.%.V 9 7 7 R                                                           ",
"                        C k 1 2 2 y 1 - 9 l l S *.*.:.%.d 9 l p * 8 I d.                                                        ",
"                    0 0 f n B B m b 2 2 ; w w h c T C p 9 a s 6 * 8 ;.<.                                                        ",
"                        Y Y ~ ~ Q m y y u 7 4 6 q 9 7 = , 7 , > u ,.u.>.                                                        ",
"                          ] ! ~ Q I b b z S x = % = = = - 5 h u ;.<.<.,.>.                                                      ",
"                            8. .[ ~ I I N N ^ R j 7 0 f B >.,.+.+.=.=.>.,.                                                      ",
"                                          B Q / =.=.=.=.+.+./ ( +.=.=.<.,.                                                      ",
"                                          B B n I Q / / ^ ( B ( +.( =.+./                                                       ",
"                                          I B B n n B ^ ^ ^ n B ( ( =.Q z                                                       ",
"                                          N B Q Q Q / +./ +.B B +./ R n I R                                                     ",
"                                          8 u z B ^ ^ ^ Q B n ^ B j g b b I (                                                   ",
"                                        y 8 ; 5 8 j B B N B b t ; r t v R I b                                                   ",
"                                        B B B N ; - = r < $ = ; r 2 3 y : y ^ ,.u.                                              ",
"                                      ~ B Q n N I 8 < 8 - : < t m Q y y v Q [ | Q m                                             ",
"                                    <.! B Q Q t ( / r : < r t h m ! B ~ ~ [ ( | n I                                             ",
"                                    ,.^ / m v u N ~ } I n ! I b Q ^ ! | ~ [ | [ h I                                             ",
"                                    ,.( I 8 : - y Q ^ ( ( ~ B b Q Q ! | | |  .~ n I j                                           ",
"                                  +.^ ( j : 8 ; q Q v y m Q I N Q Q ! u.u.|  .I I ,.}                                           ",
"                                  ^ B Q B n 8 = 8 I n y g I Q N m m m [  . . .v Q ,.s.                                          ",
"                                  ( ~ y ^ m u : 5 ^ Q b t b I N b n b m I Q ~ g B >.s.<.                                        ",
"                                  ^ ( b y j r 8 $ I Q v t y n y y g 2 v y m I B Q =.=.=.                                        ",
"                                  I ^ ^ N y 8 r ; B ^ v 1 < t r t y 2 b I ~ m [ n 8 - u z                                       ",
"                                  +./ +.^ Q 8 t 0 j Q b v g < t 3 y v Q Q ~ j ,.0 * X o #                                       ",
"                                ( ^ ( +.+.B t 8 u y ! m n m 1 v I n Q ! ~ I t u.C Z Z + &                                       ",
"                                ( I I Q B N h q h r ^ m m v b b m B Q Q Q 1 h p.N K 7.J $                                       ",
"                                j q 8 = 8 u u r g 8 Q m Q Q b m m b b ^ n B ~ d.W c K 0.-                                       ",
"                              ^ u @ o # # + % t b y B Q Q  .P B Q ! m Q ,.,.,.p.^ $ V q.                                        ",
"                              Q M = + * 6 s 0 u b g j ( ~ m [ I [ [ m ~  . . .u.P $ _ `                                         ",
"                              8 = $ + > F o.H y b v 8 m n I ] I ,.,./ >. .u.>.,.Y h f                                           ",
"                              N y - @ 9 o.J D r n b h y [ u.j ^ >.<.~ ,. .,.} ,.<.i.;.                                          ",
"                              Q R N u l o.K f h n n ^ ;.;.Q u N >.<.>.[ ,. .;.[ } ,.p.d.d.                                      ",
"                              z +./ I ..J o.> b ^ =.=.} u.} ^ I =.>.} >.,.,.,.=. .u.u.p.u.a.                                    ",
"                              0 N B R c K E I / | =./ Q Q [ >.( ^ / ^ Q b ^ <.i.i.u.,.=.=./                                     ",
"                              5 4 h N R R ^ / ( ( / Q Q I Q I Q B B B Q g 8 n N u r < h B b                                     ",
"                            & + # 4 4 q z j n n n n N N B I n n j n B n n r : = $ < < : u 0                                     ",
"                      # * & + + @ % % # # % O @ $ $ $ - & & - ; - j b u 0 0 ; = < g f y < 8       # *                           ",
"                  + @ % 4 4 % @ @ % # % # % @ < : ; ; - = @ @ - % ; 8 5 @ @ o # 5 8 u 5 ; ; 5 , & % % % 4                       ",
"                # + + % @ @ 4 4 4 4 5 4 5 z B B B B h % 5 j 5 j t = % # + @ @ # @ 4 % $ + @ = & # 4 # 4 4 &                     ",
"              @ + # % @ + + @ @ 4 4 5 % % q q h 5 z u @ + # & h u q & * = $ + o # 4 = + @ + + & # % % % 4 % &                   ",
"              X . # @ @ + + + + @ % % o % % # & - & ; 8 @ % = 5 & = % # % @ % + # 5 % % % + @ # @ + # 4 % 4 & h %               ",
"            * + X + @ @ @ @ + + % # + + X o # b b j u u z u % ; & 4 + # * # @ @ o # & 5 # u q 5 4 # & % q 4 & = 5 =             ",
"            # o X X + + + + + + @ + # + % % % r 8 5 M 8 - q 8 & = % + % + % = & O o @ & % 0 h W z 5 4 4 5 5 5 # = = @           ",
"          # + o X o @ @ + + + % @ o @ # + @ 5 5 u b t u h 8 q * $ # @ @ @ $ = 5 o @ # @ @ = u 8 8 u 8 N 4 5 q 8 5 & 4           ",
"          + o o % + + + + * & * % ; 5 @ @ # 8 v u 5 q q 5 8 % # # # # + * # $ % @ o @ # & % 5 5 & % 4 5 % % = = # % 4 =         "
};
