/* XPM */
static char *b2db153427334eccbc93768b278c4985OGoLIeVciyNr1bF7[] = {
/* columns rows colors chars-per-pixel */
"64 64 159 2 ",
"   c #000000",
".  c #060507",
"X  c #08070A",
"o  c #0B0A0E",
"O  c #100D0F",
"+  c #0E0D13",
"@  c #100F14",
"#  c #131116",
"$  c #1B1616",
"%  c #1E1815",
"&  c #15141A",
"*  c #19161B",
"=  c #17191C",
"-  c #1C1A1D",
";  c #231D1D",
":  c #1C211F",
">  c #27211E",
",  c #2A221E",
"<  c #30251E",
"1  c #37281D",
"2  c #392C1F",
"3  c #1D1B20",
"4  c #221E21",
"5  c #1F2321",
"6  c #252223",
"7  c #2C2523",
"8  c #242A24",
"9  c #2D2925",
"0  c #272528",
"q  c #262B29",
"w  c #2C2B2A",
"e  c #302722",
"r  c #342B24",
"t  c #3A2E25",
"y  c #352D2A",
"u  c #382F28",
"i  c #253127",
"p  c #2A3126",
"a  c #273229",
"s  c #2A332C",
"d  c #2A3B2D",
"f  c #3C3125",
"g  c #36312B",
"h  c #3C332C",
"j  c #333D2D",
"k  c #3B3A2D",
"l  c #313732",
"z  c #3D3630",
"x  c #3D3C35",
"c  c #423425",
"v  c #42362A",
"b  c #45392D",
"n  c #493C2D",
"m  c #413730",
"M  c #453C32",
"N  c #4A3E32",
"B  c #35442F",
"V  c #2F4031",
"C  c #2F4933",
"Z  c #334333",
"A  c #3C4433",
"S  c #324B34",
"D  c #394D37",
"F  c #3A4639",
"G  c #354D3A",
"H  c #3C4B3B",
"J  c #36533A",
"K  c #3C533A",
"L  c #37593B",
"P  c #3C5C3C",
"I  c #464134",
"U  c #4D4234",
"Y  c #4D4935",
"T  c #4E4539",
"R  c #46493C",
"E  c #4F4838",
"W  c #524536",
"Q  c #544936",
"!  c #524638",
"~  c #554A3A",
"^  c #594D3D",
"/  c #4E5038",
"(  c #415C3F",
")  c #4C5B3B",
"_  c #54503B",
"`  c #5C533D",
"'  c #60573F",
"]  c #635C3F",
"[  c #5B603F",
"{  c #3D5541",
"}  c #3E5D41",
"|  c #3E6442",
" . c #3F6843",
".. c #474E41",
"X. c #4A4D41",
"o. c #5B4F40",
"O. c #465540",
"+. c #495445",
"@. c #435A44",
"#. c #545546",
"$. c #5E5342",
"%. c #525C45",
"&. c #5F5A42",
"*. c #545C4E",
"=. c #5A5A49",
"-. c #605743",
";. c #635B43",
":. c #645B49",
">. c #456443",
",. c #4B6444",
"<. c #426C46",
"1. c #4C6C46",
"2. c #4B644A",
"3. c #4D6A4B",
"4. c #5B6240",
"5. c #516E45",
"6. c #53634A",
"7. c #5B674E",
"8. c #437047",
"9. c #4F7444",
"0. c #47734A",
"q. c #4E734B",
"w. c #4D7A4D",
"e. c #53744C",
"r. c #547B4D",
"t. c #517F51",
"y. c #676245",
"u. c #616445",
"i. c #656244",
"p. c #696546",
"a. c #646944",
"s. c #676048",
"d. c #69624A",
"f. c #6A6549",
"g. c #6C6B4A",
"h. c #6F7150",
"j. c #568153",
"k. c #568352",
"l. c #5B8556",
"z. c #5B8855",
"x. c #5E8955",
"c. c #5F8C58",
"v. c #5F8C5B",
"b. c #618757",
"n. c #638656",
"m. c #608B59",
"M. c #608C58",
"N. c #648F5F",
"B. c #62915B",
"V. c #62915C",
"C. c #63915E",
"Z. c #65925C",
"A. c #67915E",
"S. c #67935F",
"D. c #6A905F",
"F. c #689261",
"G. c #6F9663",
"H. c #6E9665",
"J. c #7E9F6D",
/* pixels */
"                                                                                                                                ",
"                                                                                                                                ",
"                                                                                                                                ",
"                                                                                                                                ",
"                                                                                                                                ",
"                                                                                                                                ",
"                                                                                                                                ",
"                                                                                                                                ",
"                                                                                                                                ",
"                                                                                                                                ",
"                                                                                                                                ",
"                                                                                                                                ",
"                                                                                                                                ",
"                                                    J.G.C.F.N.                                                                  ",
"                                                G.H.D.S.B.Z.B.M.v.                                                              ",
"                                              c.m.x.n.q.1.r.z.r.@.3.    v.l.q.@.D                                               ",
"                                      x.M.Z.l.k.e.r.3.*.+.K 9.,.*...D 2.B t k B S                                               ",
"                      s r u k k A K ( P ,.k.t.w.2.@.x * w H 1.} X.- q v U / ) P }                                               ",
"                        A A Y Q Y n c 2 , P 8.>.@.%.M x @ Z 6.7.#.s ..R ` ` 5.q.                                                ",
"                          ) [ ] ] ` W c 1 8 L G +.=.%.O.+.2.,.K 3.2.@./ [ a.q.0.                                                ",
"                            [ ] ] ` W c c < B j ..#.%.3.3.3.3.3.@.{ H H ,.e.w.                                                  ",
"                              u.] ^ W c n v s s l x x Z j s s a 8 8 s M                                                         ",
"                                a.` W n Q W w a q q s 8 8 s V Z a 8 0 T                                                         ",
"                                      ! ~ R K d 5 3 6 5 8 s d a - & > #.                                                        ",
"                                          D Z p - : 5 8 8 8 6 $ & 9 &.:.-.                                                      ",
"                                          o.! $.M 8 i 8 6 u I 7 I f.d.:.=.                                                      ",
"                                          N N ~ $.$.~ E o.-.s.o.$.&.-.:.-.                                                      ",
"                                          N N N ! ~ $.&.^ ^ ^ ~ ^ $.$.$.:.:.                                                    ",
"                                          M N N M N N ! ~ ~ N ^ o.o.&.-.-.                                                      ",
"                                          M N W W N W ~ o.^ N ~ ^ o.$.$.!                                                       ",
"                                          4 u m ! ~ o.o.~ o.N N ~ o.o.M h !                                                     ",
"                                          h ; 4 4 M N ^ N ~ b ~ ! m u M N M $.                                                  ",
"                                        N r t y ; ; e h u u u e ; e t c N W M                                                   ",
"                                        ! ! N N e , 7 h > % ; ; 7 < e t e t U -.p.                                              ",
"                                      -.~ N b m W 6 , ; > > < < b N 2 2 f n -.' Q M                                             ",
"                                    d.^ ~ N W r ~ ! e , 1 t t u n Q n Q Q ` ` ` U U                                             ",
"                                    :.^ ^ b c r M ~ ` n N Q U h W ~ W ` ` ` ` ' v I                                             ",
"                                    -.' ! 7 7 ; u Q Q ^ ^ Q U v W Q Q ' ` ` ' ` h Y M                                           ",
"                                  ' Q ^ c ; 7 4 7 W c u n W M b N N Q ] y.` ] Q M :.$.                                          ",
"                                  ^ N W N n 7 ; 6 n n t f N Q U N n n ` ' ] ` b U &.:.g.                                        ",
"                                  ~ ~ r ! N u 4 7 W Q v r v W v v b v b U W Q f n ` :.:.                                        ",
"                                  W ^ n u v r 7 $ N Q v r t b u t c r c f c W U U ` -.;.                                        ",
"                                  W ~ ^ N u e r , M Q v 1 ; r e e c 1 c U Q n ` b y ; u v                                       ",
"                                  -.! ~ ^ ! y 7 e u W b v c < r t c c N W ^ u ' g & o o #                                       ",
"                                  o.^ o.o.! u 4 u e ~ n n n , v N n W Q ` N 7 -.I S S # &                                       ",
"                                  ! N N N N h 7 h 7 Q n U c v b n N W Q W 2 y p.Y J  .P $                                       ",
"                              -.z 9 4 ; 4 y w 4 h r W N W Q M b n c b Q n n ! g.Q k D w.$                                       ",
"                              ~ z & O @ & @ $ e b t v Q Q ' Q U W Q N N ' ;.;.p._ % d j.                                        ",
"                              ~ N 4 O & 5 d d y k c y ` ` n ` U ` ` T ! ;.' ' y.Y ; F                                           ",
"                              y * * @ - C  .P y v b e h b W &.M $.y.^ ' ] p.' ] Q f f                                           ",
"                              N v , = 5 L  .D y M n h r ` u.M I ;.s.^ :.;.;.-.' ;.u.u.                                          ",
"                              N ~ ! h l J  .> v M M ~ ;.;.^ h M -.:.;.-.-.' ;.' ' ;.p.g.g.h.                                    ",
"                              z o.o.N F | <.s y ~ -.$.$.y.:._ T $.$.&.$.;.&.;.' ;.;.y.p.;.i.                                    ",
"                                z N N M } R ! o.-.-.^ W U ^ $.$.! o.~ ! h U ' u.p.u.' ^ $.~ h                                   ",
"                                3 y x T T ! o.! ^ ^ ! W W ! T ~ U N U U b 7 v h r , > 7 M z u                                   ",
"                      4 3 0 - + @ & 3 4 y z h m b m m N n U v b u b N b n r ; - % < , , r 7 7 7 r                               ",
"                    & # 3 3 @ + @ @ & @ @ & @ + O @ * & $ * * ; ; r m u 6 7 4 ; 6 u f h ; 7 4 * & @ 3 & 3 4                     ",
"                  # @ 3 3 3 3 3 * 3 ; & 3 & # 9 t e , ; * $ @ 6 * * 4 6 @ & o # - 0 7 ; ; - ; 6 3 3 # & 3 3 = 3 -               ",
"                # + # + 3 + & 3 3 0 0 3 4 g N N N N z - 6 u 6 h h 6 = # & # @ @ # * - @ o @ - - @ & @ 3 3 @ & & & =             ",
"                + # & = + + @ @ & 3 4 & 3 3 0 w 4 r u & @ # * y y 6 = = 3 ; + @ + - - @ @ @ + # @ & & & 3 & & u = = 3           ",
"              @ . + 3 @ + & + + # & & + & & & 4 7 7 6 u 4 ; * 0 = - = # = # # & & - - - & @ @ & @ + & 4 4 3 & y & & &           ",
"              @ X o + @ @ + + + @ & + + X X @ e z z 9 g z g 4 * 4 0 # # = & & @ o @ # 3 & u u x 3 & & & 9 * 3 & ; - @           ",
"            & + X X @ + + o + @ @ @ & & & & * 4 9 e z y 9 4 h * - & @ & # # 4 4 o @ + & # 4 9 h N y * 6 3 4 4 & * * # @         ",
"            + + + + @ @ @ + & 3 & o @ 4 @ @ & y y u w 9 r 7 9 * & # # @ # - * 4 @ @ @ @ & $ r 7 ; 4 0 M 3 4 6 7 ; # 3 =         "
};
