/* XPM */
static char *c1255dead2e64b32f9d772571cfe273fiNmmYHvaS1gUXXh0[] = {
/* columns rows colors chars-per-pixel */
"64 64 159 2 ",
"   c white",
".  c #070609",
"X  c #08070C",
"o  c #0B0A0E",
"O  c #120E0E",
"+  c #0E0D12",
"@  c #100F15",
"#  c #121116",
"$  c #1A1617",
"%  c #15141A",
"&  c #19171B",
"*  c #171A19",
"=  c #1C191C",
"-  c #231D1D",
";  c #281F1B",
":  c #1B211F",
">  c #23201F",
",  c #2A221E",
"<  c #32261D",
"1  c #362A1F",
"2  c #382B1F",
"3  c #1D1B20",
"4  c #221E21",
"5  c #1F2221",
"6  c #1F2C20",
"7  c #242222",
"8  c #2C2523",
"9  c #232B24",
"0  c #2E2925",
"q  c #2B2729",
"w  c #272F29",
"e  c #2B2C2A",
"r  c #302722",
"t  c #332B25",
"y  c #392E24",
"u  c #342D2A",
"i  c #382F2A",
"p  c #263226",
"a  c #243926",
"s  c #27322A",
"d  c #2B342B",
"f  c #2B3C2E",
"g  c #353227",
"h  c #3D3125",
"j  c #36322B",
"k  c #3C332B",
"l  c #323C2E",
"z  c #3A3C2D",
"x  c #2C3630",
"c  c #2F3D31",
"v  c #3D3631",
"b  c #353C33",
"n  c #3D3C32",
"m  c #423526",
"M  c #42362B",
"N  c #453A2D",
"B  c #493C2D",
"V  c #403731",
"C  c #453C32",
"Z  c #4A3E32",
"A  c #36412F",
"S  c #2E4431",
"D  c #2E4830",
"F  c #344434",
"G  c #3B4534",
"H  c #3E4934",
"J  c #3F423B",
"K  c #374F38",
"L  c #3C4C3A",
"P  c #36543A",
"I  c #3C533D",
"U  c #3B5B3C",
"Y  c #3A623F",
"T  c #45432F",
"R  c #4D402F",
"E  c #444135",
"W  c #4D4234",
"Q  c #4C4937",
"!  c #4C4639",
"~  c #454D3C",
"^  c #524536",
"/  c #554937",
"(  c #584D37",
")  c #534639",
"_  c #554A3A",
"`  c #594D3D",
"'  c #425036",
"]  c #4C5137",
"[  c #485539",
"{  c #415B3C",
"}  c #52513A",
"|  c #5C533D",
" . c #5B5A3D",
".. c #60573F",
"X. c #625B3F",
"o. c #46633F",
"O. c #3D5E41",
"+. c #3F6643",
"@. c #4C4E42",
"#. c #5A4F41",
"$. c #415442",
"%. c #4B5342",
"&. c #415A41",
"*. c #505342",
"=. c #5D5442",
"-. c #555A45",
";. c #5D5B42",
":. c #545E4D",
">. c #605644",
",. c #635B44",
"<. c #645C49",
"1. c #436443",
"2. c #4A6344",
"3. c #456D46",
"4. c #4C6945",
"5. c #4A6449",
"6. c #476D4B",
"7. c #4E6C4B",
"8. c #576541",
"9. c #506D45",
"0. c #52654C",
"q. c #566A48",
"w. c #457249",
"e. c #4C744A",
"r. c #4E784C",
"t. c #507546",
"y. c #507348",
"u. c #527A4E",
"i. c #547B51",
"p. c #5A7C51",
"a. c #656244",
"s. c #696546",
"d. c #656B44",
"f. c #6B6947",
"g. c #676349",
"h. c #696348",
"j. c #6A644B",
"k. c #6C6B49",
"l. c #578354",
"z. c #578554",
"x. c #598353",
"c. c #598355",
"v. c #5D8A56",
"b. c #5F8D58",
"n. c #618B59",
"m. c #638A59",
"M. c #668A58",
"N. c #638E5C",
"B. c #61915B",
"V. c #66915D",
"C. c #65935D",
"Z. c #64915E",
"A. c #669060",
"S. c #689360",
"D. c #6B9261",
"F. c #6E9463",
"G. c #6F9664",
"H. c #779B69",
"J. c #8CA675",
/* pixels */
"                                                                                                                                ",
"                                                                                                                                ",
"                                                                                                                                ",
"                                                                                                                                ",
"                                                                                                                                ",
"                                                                                                                                ",
"                                                                                                                                ",
"                                                                                                                                ",
"                                                                                                                                ",
"                                                                                                                                ",
"                                                                                                                                ",
"                                                                                                                                ",
"                                                                                                                                ",
"                                                    J.F.V.V.A.                                                                  ",
"                                                H.F.S.S.V.V.B.n.                                                                ",
"                                              V.n.m.M.c.u.x.v.u.&.6.        p.2.I                                               ",
"                                            c.x.i.p.7.5.$.&.y.o.0.:.$.7.G g z l D                                               ",
"                      A j n ' ' { 1.4.4.e.z.l.u.5.2.%.v E I y.$.@.4 q k B ] [ U O.                                              ",
"                        A z T B B m 2 < 0 1.w.1.$.%.u n + F q.:.*.z @.!  . .9.3.                                                ",
"                          [  .X.X.( ^ m < d U P %.-.-.%.&.5.2.O.7.5.O.} X.d.e.e.                                                ",
"                             .X.X...^ h h , D F @.=.-.5.7.7.9.6.&.O.J L q.q.r.                                                  ",
"                              a.X.( ^ m B m d f b n J L F F b b e w x n                                                         ",
"                                a. .W B ^ W 0 s w x x w 9 d F f p w 9 @.                                                        ",
"                                    Q ^ _ Q L f 7 3 5 5 w d f d 3 % q =.                                                        ",
"                                        *.L D p 3 3 5 9 9 9 8 * % 7 =.<.<.                                                      ",
"                                            ) _ g 6 9 9 9 - 0 * C h.h.<.=.                                                      ",
"                                          Z ^ #.=._ E E _ >.<.#.=.<.<.<.<.                                                      ",
"                                          Z Z Z _ =.>.=.` >.` / _ =.=.=.<.=.                                                    ",
"                                          Z Z Z Z Z ) ) ) _ ^ ` #.#.>.>.=.                                                      ",
"                                          C Z ^ Z Z ^ ) #.` Z ) ` #.>.#.#.                                                      ",
"                                          r v Z ) _ #.` _ #.B ) ` ` =.! k @.                                                    ",
"                                          t 4 4 v Z ) ) ) ) N ) _ Z M N Z Z =.                                                  ",
"                                          i k r - 4 i Z M N M h 4 r m M Z ) Z                                                   ",
"                                        ) Z C M 8 8 - y - $ = $ ; r t y y y W <.k.                                              ",
"                                        ^ ) M Z N ; 8 , - , , t N B y < 1 B | ,.} )                                             ",
"                                      ` ^ ^ ^ y ` Z ; ; r t k k Z ^ m R / ` | ..N Z                                             ",
"                                    <./ _ Z N i W _ ` m N W N M ^ / ^ | ( | | | k E                                             ",
"                                    <.` _ t r - k ) _ | ( ( W N ^ / _ ..| | X.` v ( W                                           ",
"                                    ` ` M - 8 - r ^ m M ^ ^ N N Z ^ / X.,.| ,.^ ! | ^                                           ",
"                                    ^ / B M 4 4 8 W m t h W ^ W Z ^ ^ X.,.X.| M _ ,.h.                                          ",
"                                  ` / y _ W r - 8 ^ ^ m y N ^ M N N m B / ( / y ^ >.,.                                          ",
"                                  ) ` M m V u 8 = ^ ^ m t h B k y m m m m m ^ B Z =.<.>.                                        ",
"                                  Z ^ _ M i r r ; C ^ M < , y 0 < m r m N / C ( Z k k C                                         ",
"                                  >.` ` _ W r 8 , M ^ M h y 8 y y 2 m Z / _ k ,.8 # . o $                                       ",
"                                  #.) #.=.) u r k t _ N B B , h B N Z ( ( ^ u ,.j S a o $                                       ",
"                                  _ ) _ ) Z k 4 k 0 / B B m M N B Z ^ ` ) < k h.n O.3.a =                                       ",
"                                Z V u 8 u k i 8 h 8 ^ B ^ ^ M m B m B Z N y ^ f.E G U 3.$                                       ",
"                              #.i @ o o % @ = 8 M y Z ^ ^ ..W B ^ ( B ^ ..,.,.f.Q - F r.                                        ",
"                              #.Z 7 o * = 9 6 y k M k ` ` W  .W ` ` Z ! X...X.a.C O 2.1.                                        ",
"                              V , - @ % f +.P y N M 8 W W C | C ,.,._ ,.,.,...,.W t k                                           ",
"                              M y = % 3 P +.P 0 N M k 8 _ s.! ! ,.h._ ,.X.s.,.,. . .}                                           ",
"                              C ^ Z g d P +.g z Z C W | ,.( u Z >.<.>.,.>...| ....s.f.k.                                        ",
"                              v ` _ ) b U w.6 y ) _ >.>.g.| ! Q >.<.,.>.,.>.,.....,.a.f.g.;.                                    ",
"                                v _ Z C 1.L ~ ) <.>.=.) / ,.,.=.` ` ` / Z ` g.a.s.a.,.>.=.!                                     ",
"                                4 v C @.E _ _ #.#.` _ ) W ^ ^ ^ Z ^ Z ^ y r Z W z y t h W M                                     ",
"                          u 7 % % 3 4 u v Z Z Z Z W Z C W ) W B i Z Z B Z r - = $ , , - k 8     t =                             ",
"                      & 3 3 # + + # 3 % 3 % % % = - 4 - - - = - 8 k C k r 8 - 4 7 h h y 4 t - $ 3 @ # 3 4                       ",
"                    + 3 3 3 3 @ # % @ # % % + - - - - = % & % 4 = - r 7 % % O % 4 t t 4 - 4 7 % % 3 # 3 3 3 & 3                 ",
"                  @ % + 3 @ 3 3 3 4 q 3 3 q C Z Z Z k 4 7 k 7 k t = & % @ # @ @ @ 7 # # + % - % # 3 @ 3 % % % % & %             ",
"                + + # 3 + + % % 3 3 7 3 3 q u j r i M @ % @ & V i q = & 7 $ @ @ % = & + @ @ @ % @ % @ % 3 % 7 4 % &             ",
"                X + 3 @ + + + @ @ % 3 X & & & & - - = 0 % % = 4 & 4 & % % + % + % 3 % & + # # # + @ % 4 & & 8 3 % % %           ",
"              % X X + @ @ % @ o % % @ @ X X + 8 V V t k v i = - = 3 @ % & % % + + # = = = g q - 3 @ & 4 4 = & - 4 # +           ",
"              + X X + @ + + + % @ @ % @ # & 3 4 8 7 v 8 = q u = - % + % # % = * + + # % % 0 k ! V 3 4 3 4 8 = % = & +           ",
"              @ X o @ @ @ + + % # + + 3 # + # t i V u t k 8 0 = & # # # # = 4 7 o # # # # 4 r 7 , t t v = 4 q 8 & = =           "
};
