/* XPM */
static char *_acd7303461c47e5eb342732b06b3817LKo7IXuxTAVwAYAj[] = {
/* columns rows colors chars-per-pixel */
"64 64 157 2 ",
"   c white",
".  c #070609",
"X  c #09070C",
"o  c #0B0A0E",
"O  c #110E0F",
"+  c #0E0D12",
"@  c #100F14",
"#  c #0F1013",
"$  c #121116",
"%  c #1A1516",
"&  c #1E1817",
"*  c #15141A",
"=  c #19171B",
"-  c #17181C",
";  c #1C191D",
":  c #231D1D",
">  c #1D221E",
",  c #27201F",
"<  c #2B221E",
"1  c #31261E",
"2  c #392A1D",
"3  c #1D1C21",
"4  c #231E21",
"5  c #1F2221",
"6  c #1F2F20",
"7  c #252222",
"8  c #2B2523",
"9  c #232B24",
"0  c #2D2925",
"q  c #262C28",
"w  c #2C2B29",
"e  c #312723",
"r  c #342B24",
"t  c #392E24",
"y  c #342C29",
"u  c #382E28",
"i  c #213424",
"p  c #273229",
"a  c #2B332C",
"s  c #2B3A2D",
"d  c #313326",
"f  c #3C3126",
"g  c #36322B",
"h  c #3C332B",
"j  c #36392A",
"k  c #393A2D",
"l  c #2E3C30",
"z  c #313631",
"x  c #3E3631",
"c  c #333B33",
"v  c #3D3D35",
"b  c #423426",
"n  c #41362B",
"m  c #453A2D",
"M  c #493C2E",
"N  c #403630",
"B  c #453C32",
"V  c #4A3E32",
"C  c #2F4733",
"Z  c #334533",
"A  c #3B4433",
"S  c #364935",
"D  c #394A37",
"F  c #3B4C3B",
"G  c #3B5137",
"H  c #355338",
"J  c #3C563C",
"K  c #375A3B",
"L  c #3C5C3D",
"P  c #474234",
"I  c #4D4234",
"U  c #434E35",
"Y  c #4E4D36",
"T  c #44433A",
"R  c #4C4539",
"E  c #424D3C",
"W  c #4C4A3C",
"Q  c #514435",
"!  c #554A36",
"~  c #584C37",
"^  c #534639",
"/  c #554A3A",
"(  c #594D3D",
")  c #455236",
"_  c #475B3E",
"`  c #4E5F3C",
"'  c #57533C",
"]  c #5C533D",
"[  c #54593B",
"{  c #5F593D",
"}  c #60573F",
"|  c #625B3F",
" . c #3E5B42",
".. c #3D6342",
"X. c #414A40",
"o. c #5B4F40",
"O. c #455743",
"+. c #495642",
"@. c #425D43",
"#. c #4B5B46",
"$. c #4D5A49",
"%. c #535545",
"&. c #5D5342",
"*. c #505A45",
"=. c #5D5942",
"-. c #565F4B",
";. c #5E5D4A",
":. c #605743",
">. c #635B43",
",. c #645B48",
"<. c #456242",
"1. c #4D6544",
"2. c #436C45",
"3. c #4C654A",
"4. c #4D6A4C",
"5. c #5A6442",
"6. c #5C6946",
"7. c #53644B",
"8. c #59644B",
"9. c #506F4D",
"0. c #467046",
"q. c #4F7344",
"w. c #4D744B",
"e. c #4E7A4D",
"r. c #527047",
"t. c #51744B",
"y. c #547B4E",
"u. c #557B52",
"i. c #666244",
"p. c #6A6646",
"a. c #6A6947",
"s. c #6A654A",
"d. c #6D684E",
"f. c #528152",
"g. c #588251",
"h. c #5E8353",
"j. c #5B8553",
"k. c #588754",
"l. c #598457",
"z. c #598955",
"x. c #5C8857",
"c. c #5E8956",
"v. c #5D8A57",
"b. c #5D8C58",
"n. c #608B5B",
"m. c #628F5C",
"M. c #678F5D",
"N. c #648F5F",
"B. c #62915B",
"V. c #65905D",
"C. c #659161",
"Z. c #699260",
"A. c #6D9562",
"S. c #709A68",
"D. c #789968",
"F. c #8BA774",
"G. c #98AC7B",
/* pixels */
"                                                                                                                                ",
"                                                                                                                                ",
"                                                                                                                                ",
"                                                                                                                                ",
"                                                                                                                                ",
"                                                                                                                                ",
"                                                                                                                                ",
"                                                                                                                                ",
"                                                                                                                                ",
"                                                                                                                                ",
"                                                                                                                                ",
"                                                                                                                                ",
"                                                        G.                                                                      ",
"                                                  F.D.S.n.C.V.                                                                  ",
"                                                Z.M.A.V.b.B.B.z.x.                                                              ",
"                                              x.x.h.y. ._ w.j.y. .#.                                                            ",
"                          E _ 1.t.y.g.k.z.b.f.f.9.9.$.T X.J r.<.$.v D u.L S A j s                                               ",
"                        j j m f 2 d 2 d Z e.e.0.<.$.w = 7 F w.J T 7 w j f m U D H                                               ",
"                          ) [ | { ~ I b 1 Z 2.@.O.8.T j + E 8.8.%.@ E P ! [ ` 2.                                                ",
"                            5.i.| ] I b 2 7 H F %.;.8.+.O.3.<.L 4.3.#.Y { i.r.2.                                                ",
"                            5.>.| ( Q b b 2 s l T %.8.7.9.9.4.4. .@.O.X.5.6.0.u.                                                ",
"                                i.] Q b Q I a s z c v F c a a q q q z B                                                         ",
"                                  { I I ^ Q y s q q q 5 q s S l p q 6 X.                                                        ",
"                                      ^ / F K s 5 ; > , 9 p s p ; * 8 ,.                                                        ",
"                                            P g 3 > 9 9 9 9 3 % $ k ,.,.                                                        ",
"                                            ^ &.P p p 9 8 h W 7 o.s.s.&.&.                                                      ",
"                                            V ( &.&./ ' o.:.:.&.o.&.,.,.&.                                                      ",
"                                          V V V Q / &.( o.o.^ ( o.o.&.,.,.                                                      ",
"                                          V V V B V V ( ( ^ V ( o.&.:.,.:.                                                      ",
"                                          B V Q Q Q ^ ( ( ( V ^ ( ( &.( R                                                       ",
"                                          7 y n I ( ( ( ( o.V ^ ( o.( B x                                                       ",
"                                          h : 4 0 B Q ^ V V M ^ Q n u B R V &.                                                  ",
"                                        N r u e : : e h t r f 8 : e t n Q ^ V                                                   ",
"                                        ^ Q V B e e 8 f & : : : 8 e e t r t ^ ,.d.                                              ",
"                                      :.^ ^ n V B , , , , < 8 1 M V 2 1 t I ] >.Y Q                                             ",
"                                      ( Q Q I u ~ I , < 2 r f f V Q M Q ! ] ' { n I                                             ",
"                                    ,.! / m n t Q ( ( m V I I h ^ Q ! ] ~ ] ] ] g I                                             ",
"                                    :.&.Q 8 : : h ^ ~ ( ~ ~ V m ^ ! ~ } } { } ! m ~ B                                           ",
"                                  :.~ ~ u : 8 : t Q u b I I M B I Q ~ | >.} >.V / ] '                                           ",
"                                  ( V ^ M n : : e I b r b I Q V M V Q } >.| ] u ~ ,.s.                                          ",
"                                  ( Q g ~ V e : 8 / Q f t m I n n M n M ~ ~ ! t Q >.,.                                          ",
"                                  / ~ n h n y 0 : Q I b t u V t t b t b 2 m I P I &.,.,.                                        ",
"                                  V ^ Q n t 0 e : I Q b 1 < t e t t 2 n M ~ m ~ V g u B                                         ",
"                                  ] ( o./ V 8 e 8 n Q n b r e t t 2 b Q ^ ! h >.4 @ . X ;                                       ",
"                                  o.o.o.o.V y e r h ^ M M M e f M M Q ( ~ M h ,.w C i o &                                       ",
"                                o.^ Q / I B u 8 u r ~ m M n h m M V Q ~ Q < k a.g ..0.6 :                                       ",
"                                x y w 4 e h y e u e ~ M Q I n m M b M Q n f ' p.m D <...                                        ",
"                              / y @ X @ * + 3 e n r I Q ! } m Q ! ! m Q } ,.>.a.T & D e.                                        ",
"                              / B ; + - 3 p 9 u h b n ] ( Q ' Q ' ~ I / | { >.i.k O 1.@.                                        ",
"                              y 8 % + = C ..H u m h 8 I M V ] I >.>.^ >.| >.} i.V 0 h                                           ",
"                              B r : @ 5 L K K r n n u r ' i.v / ,.i.( >.>.,.,.>.} [ Y                                           ",
"                              V I M u s L K k h V B R =.>./ w W ,.i.&.>.>.} ] } :.p.p.                                          ",
"                              N o.o.V D K 2.4 u ^ o.,.,.>.] I B :.,.&.>.>.>.] ] } | i.a.p.=.                                    ",
"                              y N o.R v ..J I / ,.>.( ^ ~ >.,.] o.o.^ ^ I =.i.p.i.i.i.>.&.R                                     ",
"                              8 7 x R R W o.o.o.( ( / ^ I Q Q ^ I V Q Q r r I ^ V f f B I N                                     ",
"                              * * 3 4 y B B V V V V V V Q ^ I I h V V M M 8 7 & % : : : h 8 8                                   ",
"                      * * 3 @ + @ @ * * * 3 = = : 4 4 8 4 4 : 4 8 n n h y r : 4 4 u u r : y : & * @ @ 3                         ",
"                    + 3 3 3 3 $ $ $ $ * * * o : : = : % ; % $ : ; 8 0 8 $ $ % $ 8 y u 8 : 8 8 * 3 3 $ 3 3 3 =                   ",
"                  * * $ 3 $ 3 3 3 4 7 3 3 y N B M V u ; 4 h 8 u 8 $ = * $ $ $ @ * 8 $ * @ * = % $ * $ 3 - * * - ;               ",
"                @ $ $ - + + $ $ 3 q 7 3 3 w x x 0 n N @ @ * 3 h h w 3 - 7 $ $ + * ; % @ @ @ = * * = $ $ 3 * - = * -             ",
"              + X + 3 + + X + + @ $ 3 o * - * = ; : ; 4 $ $ 3 4 3 4 * $ * + $ + 3 3 * * + + $ $ @ * $ 3 * * y 4 $ -             ",
"              3 X + + $ + 3 + + 3 $ + @ X + @ y N n y x k y = 4 * 3 * $ 3 $ $ # + $ = ; = 8 3 - * $ ; 4 4 ; = 4 4 $             ",
"            * + X X + + $ + + $ $ $ * $ * * 3 8 8 8 u 7 4 y 8 ; 4 ; $ $ - % 3 + + + $ ; ; h B I u = 3 3 4 4 = * ; * o           ",
"            $ + X X $ + @ o + $ $ + + * $ $ ; 0 y h u y u 8 y ; * * $ $ $ * 7 4 X $ $ + + 4 0 8 t y y u 4 4 0 8 * ; =           "
};
