/* XPM */
static char *befb1407349948628ddb9f3364e9bc1dyYw5OGl6otTd9Kbb[] = {
/* columns rows colors chars-per-pixel */
"64 64 155 2 ",
"   c white",
".  c #070607",
"X  c #070608",
"o  c #08070B",
"O  c #0B0A0E",
"+  c #0E0D12",
"@  c #100F14",
"#  c #131116",
"$  c #191516",
"%  c #1D1817",
"&  c #15141A",
"*  c #19171B",
"=  c #1C1A1D",
"-  c #231D1D",
";  c #281F1C",
":  c #1E211F",
">  c #27211D",
",  c #2B221E",
"<  c #31261E",
"1  c #392A1D",
"2  c #1D1C21",
"3  c #221E21",
"4  c #1E2121",
"5  c #252322",
"6  c #2B2523",
"7  c #232B24",
"8  c #2E2A26",
"9  c #2D2729",
"0  c #262E29",
"q  c #2E2B2A",
"w  c #322721",
"e  c #342B25",
"r  c #392E24",
"t  c #342D2A",
"y  c #213424",
"u  c #2B3226",
"i  c #253925",
"p  c #273229",
"a  c #2B332C",
"s  c #2C3C2E",
"d  c #353227",
"f  c #3C3126",
"g  c #35322B",
"h  c #3B332B",
"j  c #343A2C",
"k  c #3E392F",
"l  c #3D3530",
"z  c #323B31",
"x  c #3C3D34",
"c  c #413325",
"v  c #42362B",
"b  c #453A2D",
"n  c #493D2E",
"m  c #403630",
"M  c #453C32",
"N  c #4A3E32",
"B  c #2F412F",
"V  c #34432F",
"C  c #2F4532",
"Z  c #334333",
"A  c #394436",
"S  c #324D36",
"D  c #394934",
"F  c #354F38",
"G  c #3E4A3C",
"H  c #395136",
"J  c #375238",
"K  c #3C553C",
"L  c #3B5C3E",
"P  c #3A613E",
"I  c #4E432F",
"U  c #434236",
"Y  c #4D4234",
"T  c #4A4C34",
"R  c #43463D",
"E  c #4D4438",
"W  c #424B3B",
"Q  c #4B4C3B",
"!  c #514535",
"~  c #544B36",
"^  c #594D37",
"/  c #534639",
"(  c #554A3A",
")  c #594D3D",
"_  c #43533C",
"`  c #4A533F",
"'  c #5C533D",
"]  c #555C3E",
"[  c #5C593F",
"{  c #615A3E",
"}  c #3E5E41",
"|  c #3F6543",
" . c #3F6944",
".. c #5B4F40",
"X. c #455443",
"o. c #4B5444",
"O. c #445A41",
"+. c #495C46",
"@. c #4C5C4A",
"#. c #575746",
"$. c #5D5342",
"%. c #5D5C41",
"&. c #515749",
"*. c #555F4D",
"=. c #585D4A",
"-. c #605643",
";. c #635B43",
":. c #645C48",
">. c #446043",
",. c #4B6346",
"<. c #436D46",
"1. c #4A6B44",
"2. c #466749",
"3. c #4B6248",
"4. c #4B6C4B",
"5. c #536747",
"6. c #596441",
"7. c #546D47",
"8. c #5A604C",
"9. c #516C4A",
"0. c #4C7146",
"q. c #46744B",
"w. c #4D714A",
"e. c #4D794C",
"r. c #56774E",
"t. c #527C4F",
"y. c #557E51",
"u. c #666245",
"i. c #686346",
"p. c #6B6947",
"a. c #6A654B",
"s. c #6A6A48",
"d. c #548151",
"f. c #5A8753",
"g. c #5C8554",
"h. c #5C8855",
"j. c #5E8C57",
"k. c #5E8D57",
"l. c #5C8B58",
"z. c #5F8B58",
"x. c #628857",
"c. c #608B58",
"v. c #668D5C",
"b. c #61905B",
"n. c #66915D",
"m. c #65915F",
"M. c #66945E",
"N. c #67945F",
"B. c #699361",
"V. c #689462",
"C. c #6E9463",
"Z. c #6F9663",
"A. c #739A67",
"S. c #7A9B6A",
"D. c #93A876",
/* pixels */
"                                                                                                                                ",
"                                                                                                                                ",
"                                                                                                                                ",
"                                                                                                                                ",
"                                                                                                                                ",
"                                                                                                                                ",
"                                                                                                                                ",
"                                                                                                                                ",
"                                                                                                                                ",
"                                                                                                                                ",
"                                                                                                                                ",
"                                                                                                                                ",
"                                                                                                                                ",
"                                                    D.S.B.B.                                                                    ",
"                                                  A.C.C.N.N.N.M.                                                                ",
"                                              v.z.c.x.w.1.d.k.x.4.L                                                             ",
"                                    g.g.c.b.h.d.y.r.,.&.X.F 0.0.O.*.O.                                                          ",
"                        d u d e d j V V H t.d.w.4.,.R * 5 W 1.,.o.4 q >.V j d d j a                                             ",
"                          D T ^ ^ I b c < B 0.L @.@.x g @ Z >.5.o.U 6 M v I T _ H                                               ",
"                            ] { { [ ~ n 1 , J F @.=.8.W x +.3.o.3.W o.R I { ] 1.|                                               ",
"                              %.{ { ~ v c 1 j C G #.=.3.4.w.9.4.2.2.+.X.[ u.6.<.                                                ",
"                              6.{ ^ I v n I a a z x G X.X.D A x z z x z _ 7.0.e.                                                ",
"                                  %./ b / / h a 0 0 a 0 5 p s s 0 0 0 x                                                         ",
"                                        ) W K C 7 2 4 4 7 a C s 5 4 2 E                                                         ",
"                                            D p 2 : 7 7 7 7 q : & # E :.                                                        ",
"                                            ( ..l 7 p 7 5 3 6 * a :.a.:.$.                                                      ",
"                                            N ( -.) U U ( $.a...:.-.:.:.$.                                                      ",
"                                          N N N / ) -.{ ) $.../ ....$.$.:.                                                      ",
"                                          N N N N N / ( ( ( / ) ....$.:.:.                                                      ",
"                                          M N ! N N N ( ..( N ( ( $.$.....                                                      ",
"                                          6 h b / ( ) ) ( ..n N ( ..$./ h                                                       ",
"                                          h 3 3 t N ! ( / / b / ..N v k N E $.                                                  ",
"                                          r v t - - r b v v v k 3 w r b E / N                                                   ",
"                                        / N m v 9 w 3 v - $ % % 3 e r r f r N                                                   ",
"                                      ;.( / v N M ; 6 3 - ; < < v b 1 w < b $.-.' E                                             ",
"                                      $./ N ! e ) N - ; < e t r n ! c n ! ) ' [ N n                                             ",
"                                    i./ ) N b r N ) ) r b n n k N ^ ! ^ ^ ^ ' { k I                                             ",
"                                    :.$.( e w - h ! ^ ) ^ ^ E v ! / ( { [ { { ) g ' E                                           ",
"                                    ) ) b - 5 - e N b b ! ! N b ! N ^ { ;.{ -./ Y ~ n                                           ",
"                                  / ! / N v ; - 6 N c e f Y E n N N N { ;.-.{ v ! :.a.                                          ",
"                                  ) ( g ( ! e % 6 ! ! v t b ! b n b b N ^ ^ ^ r ! -.:.                                          ",
"                                  ! ' v c b g 3 = N ! v 1 f n h c c c c c v ! b N -.:.-.                                        ",
"                                  N ! ( v t e e ; b / v < , d e w r w v v ~ I ( E m m N                                         ",
"                                  $.) ) ) N e ; , v / b f r < e r 1 c n ~ ~ g ;.8 # . + %                                       ",
"                                  ..( ....! h 6 t e / n n b , h n n N ^ ^ ! w ;.g s y + $                                       ",
"                                  / / ( ( N v 3 f 6 / b n v v v n n ! ^ ( r t i.U L <.i %                                       ",
"                                E l t w 9 f t 9 r e ! n ! ! v v b v n N b e E p.Y D L <.$                                       ",
"                              ..l # o + $ @ - 3 b f M ! ! { Y N ^ ! n ! ^ :.;.p.Q > j t.                                        ",
"                              ..N 5 @ $ = 4 4 e k f d ' ) ! [ Y ( ^ Y ! ;.{ { u.Y @ O.1.                                        ",
"                              h , - @ * s P P e b v 6 N Y n ' N -.;.( { { ;.-.;.Y e k                                           ",
"                              m d - # 2 S  .L q v v g w ~ u.Q E ;.i.) :.{ :.-.;.[ [ T                                           ",
"                              M / Y h 0 F  .7 b N M Y ' :.( h U ;.:.-.-.-.{ { { { u.s.                                          ",
"                                ( ..E l L q.y t E ) -.-.i.-.E M -.$.:.-.-.;.-.[ [ u.;.s.u.;.                                    ",
"                                l / N M | D Q N -.$.$./ ( { ;.$...( ) / Y ^ u.i.i.i.u.-.$./                                     ",
"                                2 l l ..U ) ....$.) / / Y / ! ~ E N ! ! k 6 I E n e t k ! v                                     ",
"                                + 2 3 9 l M M M M E N N Y / N N g N N b N 6 - = $ ; ; ; g 6                                     ",
"                    & & 2 & & + @ @ 2 & & 2 $ $ % - - 3 - - = - 3 v v h e t - 2 6 r r e 6 6 5 % & + + 2                         ",
"                  * + & 2 2 2 @ # & @ # & & + - - - - - * * @ 3 $ ; e 5 @ & O & 5 9 t 6 3 3 5 $ & 2 & 2 2 2 * 2                 ",
"                  @ # + & @ 2 2 2 2 5 2 2 9 M M N N l 3 3 g 6 t t * * & # @ @ & @ 3 & @ + & - & & & @ 2 & & & & * &             ",
"                + # & 2 @ + @ & 2 2 5 2 2 2 g g 9 t m & @ # * h h 9 * 2 4 = @ + & = % + @ @ # & @ 2 @ @ 2 2 2 3 & * 2           ",
"                o + & @ @ @ @ @ @ & 2 + & & & * - - - 6 * $ = 3 & 2 & # & @ & + & 3 & * @ + @ & + @ & 3 * & e 3 & & &           ",
"              2 O o @ @ @ @ & O # # @ @ O o + 6 M m 9 h l h 3 2 - 5 & # 2 & @ # + # * 2 $ g 6 = 2 @ & 3 3 = & - 3 # +           ",
"              @ O o + + + + + @ & @ & & & * * 3 e - h t - 5 g 2 - * @ # & # = * + O + * # 9 h E m - 3 2 3 5 = & = * + @         ",
"            @ + o + + @ @ + + 2 @ + + & # + # 8 t m t 9 t 5 t * & # & # # * - 3 O @ & # @ - 6 6 , t 9 l 2 5 9 6 * % = #         "
};
