/* XPM */
static char *result[] = {
/* columns rows colors chars-per-pixel */
"64 64 147 2 ",
"   c #060507",
".  c #070609",
"X  c #090709",
"o  c #0B0A0E",
"O  c #120F0F",
"+  c #0E0D12",
"@  c #100F14",
"#  c #131116",
"$  c #1A1516",
"%  c #1E1917",
"&  c #15141A",
"*  c #1A161A",
"=  c #17191B",
"-  c #1C1A1C",
";  c #221D1D",
":  c #281D18",
">  c #1C211F",
",  c #26201D",
"<  c #2B221D",
"1  c #35271C",
"2  c #35291E",
"3  c #392B1E",
"4  c #1D1C21",
"5  c #221E21",
"6  c #1E2222",
"7  c #252222",
"8  c #2B2523",
"9  c #232922",
"0  c #2D2926",
"q  c #262728",
"w  c #2A2628",
"e  c #252E29",
"r  c #2E2C2A",
"t  c #332A24",
"y  c #392E24",
"u  c #342D2A",
"i  c #382F29",
"p  c #243027",
"a  c #283126",
"s  c #263229",
"d  c #2A342B",
"f  c #273828",
"g  c #2A3F2D",
"h  c #3C3125",
"j  c #34312B",
"k  c #3C332B",
"l  c #32392B",
"z  c #3C3B2D",
"x  c #353531",
"c  c #3D3531",
"v  c #323E33",
"b  c #3C3C32",
"n  c #413426",
"m  c #41362B",
"M  c #45392D",
"N  c #493D2E",
"B  c #403730",
"V  c #453B31",
"C  c #4A3E32",
"Z  c #2C452C",
"A  c #2D4030",
"S  c #2F4933",
"D  c #334535",
"F  c #3C4333",
"G  c #334933",
"H  c #394C37",
"J  c #334D38",
"K  c #384E3A",
"L  c #335038",
"P  c #3D543C",
"I  c #3C5B3D",
"U  c #3C613F",
"Y  c #4B402F",
"T  c #444635",
"R  c #4D4234",
"E  c #424937",
"W  c #4C4338",
"Q  c #4D4B3A",
"!  c #524535",
"~  c #544A36",
"^  c #534738",
"/  c #554A3A",
"(  c #594D3C",
")  c #46543D",
"_  c #435F3F",
"`  c #4A5B39",
"'  c #57513A",
"]  c #5C523D",
"[  c #60573F",
"{  c #61593F",
"}  c #46653F",
"|  c #3C5E41",
" . c #3F6944",
".. c #5A4F41",
"X. c #445242",
"o. c #4B5544",
"O. c #455B45",
"+. c #4B5A44",
"@. c #4B5E4A",
"#. c #545743",
"$. c #5D5442",
"%. c #515846",
"&. c #5E5A42",
"*. c #505E4A",
"=. c #605642",
"-. c #635B43",
";. c #655D48",
":. c #446444",
">. c #496443",
",. c #426C47",
"<. c #4B6D44",
"1. c #4C644A",
"2. c #446F48",
"3. c #4D6A4A",
"4. c #5F6943",
"5. c #477147",
"6. c #467048",
"7. c #4D754B",
"8. c #4F7B4E",
"9. c #597348",
"0. c #557C4E",
"q. c #5F784C",
"w. c #4C7C50",
"e. c #577B53",
"r. c #666143",
"t. c #696646",
"y. c #6A6946",
"u. c #66604A",
"i. c #69624D",
"p. c #626B4A",
"a. c #6C6B4A",
"s. c #62744C",
"d. c #6F704E",
"f. c #6C6F53",
"g. c #568455",
"h. c #5B8554",
"j. c #5E8956",
"k. c #5F8C59",
"l. c #648E5C",
"z. c #698D5D",
"x. c #63915E",
"c. c #679160",
"v. c #759162",
"b. c #789766",
"n. c #7E9E6C",
"m. c #849868",
"M. c white",
/* pixels */
"M.M.M.M.M.M.M.M.M.M.M.M.M.M.M.M.M.M.M.M.M.M.M.M.M.M.M.M.M.M.M.M.M.M.M.M.M.M.M.M.M.M.M.M.M.M.M.M.M.M.M.M.M.M.M.M.M.M.M.M.M.M.M.M.",
"M.M.M.M.M.M.M.M.M.M.M.M.M.M.M.M.M.M.M.M.M.M.M.M.M.M.M.M.M.M.M.M.M.M.M.M.M.M.M.M.M.M.M.M.M.M.M.M.M.M.M.M.M.M.M.M.M.M.M.M.M.M.M.M.",
"M.M.M.M.M.M.M.M.M.M.M.M.M.M.M.M.M.M.M.M.M.M.M.M.M.M.M.M.M.M.M.M.M.M.M.M.M.M.M.M.M.M.M.M.M.M.M.M.M.M.M.M.M.M.M.M.M.M.M.M.M.M.M.M.",
"M.M.M.M.M.M.M.M.M.M.M.M.M.M.M.M.M.M.M.M.M.M.M.M.M.M.M.M.M.M.M.M.M.M.M.M.M.M.M.M.M.M.M.M.M.M.M.M.M.M.M.M.M.M.M.M.M.M.M.M.M.M.M.M.",
"M.M.M.M.M.M.M.M.M.M.M.M.M.M.M.M.M.M.M.M.M.M.M.M.M.M.M.M.M.M.M.M.M.M.M.M.M.M.M.M.M.M.M.M.M.M.M.M.M.M.M.M.M.M.M.M.M.M.M.M.M.M.M.M.",
"M.M.M.M.M.M.M.M.M.M.M.M.M.M.M.M.M.M.M.M.M.M.M.M.M.M.M.M.M.M.M.M.M.M.M.M.M.M.M.M.M.M.M.M.M.M.M.M.M.M.M.M.M.M.M.M.M.M.M.M.M.M.M.M.",
"M.M.M.M.M.M.M.M.M.M.M.M.M.M.M.M.M.M.M.M.M.M.M.M.M.M.M.M.M.M.M.M.M.M.M.M.M.M.M.M.M.M.M.M.M.M.M.M.M.M.M.M.M.M.M.M.M.M.M.M.M.M.M.M.",
"M.M.M.M.M.M.M.M.M.M.M.M.M.M.M.M.M.M.M.M.M.M.M.M.M.M.M.M.M.M.M.M.M.M.M.M.M.M.M.M.M.M.M.M.M.M.M.M.M.M.M.M.M.M.M.M.M.M.M.M.M.M.M.M.",
"M.M.M.M.M.M.M.M.M.M.M.M.M.M.M.M.M.M.M.M.M.M.M.M.M.M.M.M.M.M.M.M.M.M.M.M.M.M.M.M.M.M.M.M.M.M.M.M.M.M.M.M.M.M.M.M.M.M.M.M.M.M.M.M.",
"M.M.M.M.M.M.M.M.M.M.M.M.M.M.M.M.M.M.M.M.M.M.M.M.M.M.M.M.M.M.M.M.M.M.M.M.M.M.M.M.M.M.M.M.M.M.M.M.M.M.M.M.M.M.M.M.M.M.M.M.M.M.M.M.",
"M.M.M.M.M.M.M.M.M.M.M.M.M.M.M.M.M.M.M.M.M.M.M.M.M.M.M.M.M.M.M.M.M.M.M.M.G M.M.M.M.M.M.M.M.M.M.M.M.M.M.M.M.M.M.M.M.M.M.M.M.M.M.M.",
"M.M.M.M.M.M.M.M.M.M.M.M.M.M.M.M.M.M.M.M.M.M.M.M.M.M.M.M.M.M.M.M.M.M.M.G M.M.M.M.M.M.M.M.M.M.M.M.M.M.M.M.M.M.M.M.M.M.M.M.M.M.M.M.",
"M.M.M.M.M.M.M.M.M.M.M.M.M.M.M.M.M.M.M.M.M.M.M.M.M.M.M.M.M.M.M.M.M.g.G P M.M.M.M.M.M.M.M.M.M.M.M.M.M.M.M.M.M.M.M.M.M.M.M.M.M.M.M.",
"M.M.M.M.M.M.M.M.M.M.M.M.M.M.M.M.M.M.M.M.M.M.M.M.M.M.n.b.x.c.M.M.l.F ` <.M.M.M.M.M.M.M.M.M.M.M.M.M.M.M.M.M.M.M.M.M.M.M.M.M.M.M.M.",
"M.M.M.M.M.M.M.M.M.M.M.M.M.M.M.M.M.M.M.M.M.M.M.M.m.z.x.g.x.k.7.3.e.( r.0.w.M.M.M.M.M.M.M.M.M.M.M.M.M.M.M.M.M.M.M.M.M.M.M.M.M.M.M.",
"M.M.M.M.M.M.M.M.M.M.M.M.M.M.M.M.M.M.M.M.M.M.M.v.h.h.k.x.k.e.:.1.| ..y.q.w.M.M.M.M.M.M.M.M.M.M.M.M.M.M.M.M.M.M.M.M.M.M.M.M.M.M.M.",
"M.M.M.M.M.M.M.M.M.M.M.M.M.M.M.M.M.M.M.M.M.M.l.0.h.j.h.h.h.<.+.7 x Q t.s.M.M.M.M.M.M.M.M.M.M.M.M.M.M.M.M.M.M.M.M.M.M.M.M.M.M.M.M.",
"M.M.M.M.M.M.M.M.M.M.M.M.M.M.M.M.M.M.M.M.M.M.0.7.g.<.) I } } o.V x +.&.9.M.M.M.M.M.M.M.M.M.M.M.M.M.M.M.M.M.M.M.M.M.M.M.M.M.M.M.M.",
"M.M.M.M.M.M.M.M.M.M.M.M.M.M.M.M.M.M.M.M.M.0.7.<.3.o.o.D } >.) x +.@.+.M.M.M.M.M.M.M.M.M.M.M.M.M.M.M.M.M.M.M.M.M.M.M.M.M.M.M.M.M.",
"M.M.M.M.M.M.M.M.M.M.M.M.M.M.M.M.M.M.M.M.M.5.:.>.o.x * v P p.@.3.1.X.M.M.M.M.M.M.M.M.M.M.M.M.M.M.M.M.M.M.M.M.M.M.M.M.M.M.M.M.M.M.",
"M.M.M.M.M.M.M.M.M.M.M.M.M.M.M.M.M.M.j.h.8.:.I H E # u 9 O.) ,.O.S d M.M.M.M.M.M.M.M.M.M.M.M.M.M.M.M.M.M.M.M.M.M.M.M.M.M.M.M.M.M.",
"M.M.M.M.M.M.M.M.M.M.M.M.M.M.M.M.0.7.I ,.7.I P H #.c e O.3.1.X.s 9 r M.M.M.M.M.M.M.M.M.M.M.M.M.M.M.M.M.M.M.M.M.M.M.M.M.M.M.M.M.M.",
"M.M.M.M.M.M.M.M.M.M.M.M.M.M._ G l < : ; D S D E #.#.+.1.| d f s 6 t W M.M.M.M.M.M.M.M.M.M.M.M.M.M.M.M.M.M.M.M.M.M.M.M.M.M.M.M.M.",
"M.M.M.M.M.M.M.M.M.M.M.F t t 3 n n n 1 : - s x F X.%.o.D 9 d A 6 - 0 ' i.M.M.M.M.M.M.M.M.M.M.M.M.M.M.M.M.M.M.M.M.M.M.M.M.M.M.M.M.",
"M.M.M.M.M.M.M.M.M.M.M.l z T ~ ~ Y M 3 3 w 7 7 q r r e 7 7 9 9 - ; ^ ;.=.M.M.M.M.M.M.M.M.M.M.M.M.M.M.M.M.M.M.M.M.M.M.M.M.M.M.M.M.",
"M.M.M.M.M.M.M.M.M.M.M.M.M.Q ~ ~ ! N n n c b e = 4 6 - 4 - % $ 9 #.r.;.;.$.M.M.M.M.M.M.M.M.M.M.M.M.M.M.M.M.M.M.M.M.M.M.M.M.M.M.M.",
"M.M.M.M.M.M.M.M.M.M.M.M.M.M.' ] ! ! N C B b C h $ & = - i ( =...$.-.-.$.-.M.M.M.M.M.M.M.M.M.M.M.M.M.M.M.M.M.M.M.M.M.M.M.M.M.M.M.",
"M.M.M.M.M.M.M.M.M.M.M.M.M.M.M.M.M.M.M.M.V C ~ ( $.W / ] ..=.( ....$.$.;.;.M.M.M.M.M.M.M.M.M.M.M.M.M.M.M.M.M.M.M.M.M.M.M.M.M.M.M.",
"M.M.M.M.M.M.M.M.M.M.M.M.M.M.M.M.M.M.M.M.M.C C C / ] =./ ~ ( C ( ( ..$.$...M.M.M.M.M.M.M.M.M.M.M.M.M.M.M.M.M.M.M.M.M.M.M.M.M.M.M.",
"M.M.M.M.M.M.M.M.M.M.M.M.M.M.M.M.M.M.M.M.M.C C C M N C ^ ^ ^ N / ( ..$.( B M.M.M.M.M.M.M.M.M.M.M.M.M.M.M.M.M.M.M.M.M.M.M.M.M.M.M.",
"M.M.M.M.M.M.M.M.M.M.M.M.M.M.M.M.M.M.M.M.M.C C C C C ! ^ / ( N ^ ( ..( m R M.M.M.M.M.M.M.M.M.M.M.M.M.M.M.M.M.M.M.M.M.M.M.M.M.M.M.",
"M.M.M.M.M.M.M.M.M.M.M.M.M.M.M.M.M.M.M.M.M.u c V ^ / ( ( ^ ^ M C / C h V V R $.M.M.M.M.M.M.M.M.M.M.M.M.M.M.M.M.M.M.M.M.M.M.M.M.M.",
"M.M.M.M.M.M.M.M.M.M.M.M.M.M.M.M.M.M.M.M.M.; ; 5 t m C ^ C R m m < < 3 n / / M M.M.M.M.M.M.M.M.M.M.M.M.M.M.M.M.M.M.M.M.M.M.M.M.M.",
"M.M.M.M.M.M.M.M.M.M.M.M.M.M.M.M.M.M.M.M.C n C i % ; w y t ; ; : < 8 1 y 8 y ! ;.a.M.M.M.M.M.M.M.M.M.M.M.M.M.M.M.M.M.M.M.M.M.M.M.",
"M.M.M.M.M.M.M.M.M.M.M.M.M.M.M.M.M.M.M.] C / m C V 5 7 i ; ; , 8 n C n 1 y N ] =.^ W M.M.M.M.M.M.M.M.M.M.M.M.M.M.M.M.M.M.M.M.M.M.",
"M.M.M.M.M.M.M.M.M.M.M.M.M.M.M.M.M.M.M.( ! C ^ y ( C : ; : < t j N ^ M ~ ~ ' ] [ M N M.M.M.M.M.M.M.M.M.M.M.M.M.M.M.M.M.M.M.M.M.M.",
"M.M.M.M.M.M.M.M.M.M.M.M.M.M.M.M.M.M.;.~ / C n i C ( ( n n N M m ! ^ ~ [ ( ] ] ] h R M.M.M.M.M.M.M.M.M.M.M.M.M.M.M.M.M.M.M.M.M.M.",
"M.M.M.M.M.M.M.M.M.M.M.M.M.M.M.M.M.M.;.( / t t : i ! ( ] / ( R k ! ^ ~ [ [ ] [ ' z ~ C M.M.M.M.M.M.M.M.M.M.M.M.M.M.M.M.M.M.M.M.M.",
"M.M.M.M.M.M.M.M.M.M.M.M.M.M.M.M.M.M.( ~ N ; 7 ; 8 ! m n R R C M ! C ~ { { [ { Y W ] ! M.M.M.M.M.M.M.M.M.M.M.M.M.M.M.M.M.M.M.M.M.",
"M.M.M.M.M.M.M.M.M.M.M.M.M.M.M.M.M.( C / C M 7 ; ; ! m t h R R C ! C ~ { { { { n ! ;.i.M.M.M.M.M.M.M.M.M.M.M.M.M.M.M.M.M.M.M.M.M.",
"M.M.M.M.M.M.M.M.M.M.M.M.M.M.M.M.M./ ( y / ! t ; 5 ^ / h t m ! N n m m N ~ ~ ( y ~ =.;.;.M.M.M.M.M.M.M.M.M.M.M.M.M.M.M.M.M.M.M.M.",
"M.M.M.M.M.M.M.M.M.M.M.M.M.M.M.M.M.! ( m y m y 7 % C ^ m y y m h n n y n n n Y N ! =.;.=.M.M.M.M.M.M.M.M.M.M.M.M.M.M.M.M.M.M.M.M.",
"M.M.M.M.M.M.M.M.M.M.M.M.M.M.M.M.M.C ^ / M i 8 t , m ! m t < t 8 t n t n N ~ V ] C i t B M.M.M.M.M.M.M.M.M.M.M.M.M.M.M.M.M.M.M.M.",
"M.M.M.M.M.M.M.M.M.M.M.M.M.M.M.M.M.=.( ( ( C t 8 8 k ! m n h 1 t 3 3 n N ! ( k r.7 # . o $ M.M.M.M.M.M.M.M.M.M.M.M.M.M.M.M.M.M.M.",
"M.M.M.M.M.M.M.M.M.M.M.M.M.M.M.M.M.( / ....! i 5 i t / M M M < h N n ! ~ ( ! t -.z G g + * M.M.M.M.M.M.M.M.M.M.M.M.M.M.M.M.M.M.M.",
"M.M.M.M.M.M.M.M.M.M.M.M.M.M.M.M.M./ C / ! C B 5 c 8 ! N N n n M N C ! ( ~ 1 k t.V | 5.Z * M.M.M.M.M.M.M.M.M.M.M.M.M.M.M.M.M.M.M.",
"M.M.M.M.M.M.M.M.M.M.M.M.M.M.M.M.C i t 5 w i i 8 h t N N ~ ~ N n N n N ^ M m ^ a.Q b I 5.- M.M.M.M.M.M.M.M.M.M.M.M.M.M.M.M.M.M.M.",
"M.M.M.M.M.M.M.M.M.M.M.M.M.M.M...c $   @ & + ; 5 M y N ! C [ T N ^ ^ N C [ { -.t.Q % A 8.M.M.M.M.M.M.M.M.M.M.M.M.M.M.M.M.M.M.M.M.",
"M.M.M.M.M.M.M.M.M.M.M.M.M.M.M...C 8 o $ = p 9 8 m m 2 ' ( N ] W ( ] R W { [ [ { R # +.>.M.M.M.M.M.M.M.M.M.M.M.M.M.M.M.M.M.M.M.M.",
"M.M.M.M.M.M.M.M.M.M.M.M.M.M.M.t ; - @ - Z U  .0 m m 0 M N N $.V =.-./ [ r.r.-.-.R t h M.M.M.M.M.M.M.M.M.M.M.M.M.M.M.M.M.M.M.M.M.",
"M.M.M.M.M.M.M.M.M.M.M.M.M.M.M.V k , $ 4 J  .L 0 m M k 8 ~ r.W T -.;.( -.{ { [ -.r.4.#.M.M.M.M.M.M.M.M.M.M.M.M.M.M.M.M.M.M.M.M.M.",
"M.M.M.M.M.M.M.M.M.M.M.M.M.M.M.V / R k d J  ., M N M W ] -.~ u V $.-.=.[ -.[ -.] $.-.y.a.d.f.M.M.M.M.M.M.M.M.M.M.M.M.M.M.M.M.M.M.",
"M.M.M.M.M.M.M.M.M.M.M.M.M.M.M.u ^ ..^ c | ,.f t ! ( $.$.-.{ ! W $...=.$.-.-.-.$.[ r.r.t.r.-.T M.M.M.M.M.M.M.M.M.M.M.M.M.M.M.M.M.",
"M.M.M.M.M.M.M.M.M.M.M.M.M.M.M.M.u W C V U F Q ^ =.$.( ! ! ] $.] ^ ( / ! z ! -.t.t.r.-.$...( B M.M.M.M.M.M.M.M.M.M.M.M.M.M.M.M.M.",
"M.M.M.M.M.M.M.M.M.M.M.M.M.M.M.M.4 r c W R ^ / ( ( ( ! ! R ! R ! C R R C m < M V t 8 < j C c j M.M.M.M.M.M.M.M.M.M.M.M.M.M.M.M.M.",
"M.M.M.M.M.M.M.M.M.M.M.4 * 7 4 @ @ & 4 7 r k k k m M B V V R M M t M N m N 8 ; % % < < , u t 8 M.M.M.M.M.M.M.M.M.M.M.M.M.M.M.M.M.",
"M.M.M.M.M.M.M.M.M.M.+ @ & 4 # + @ @ & & @ & # O O $ $ % $ * % - ; i m i 8 t ; - 7 y h y 5 8 ; * * @ & 4 4 M.M.M.M.M.M.M.M.M.M.M.",
"M.M.M.M.M.M.M.M.M.& + & 4 * 4 & & * * & & & + 7 8 < 5 ; * $ o ; $ - 5 7 @ @ o # ; w u 5 ; ; 5 - 4 & & 4 4 4 M.M.M.M.M.M.M.M.M.M.",
"M.M.M.M.M.M.M.M.@ + + + @ + # 4 # 5 7 - 4 u C C C C k 5 5 u 7 u h 7 & # # + @ # # - * @ @ # ; * # * # 4 & & & M.M.M.M.M.M.M.M.M.",
"M.M.M.M.M.M.M.M.o + & & + + + & # 4 5 & @ 4 w w 8 8 k @ @ @ & t j 5 * & - - + o @ - * + @ + + # # & # & * 4 5 r M.M.M.M.M.M.M.M.",
"M.M.M.M.M.M.M.+ . o & + + + + + @ & & + + & @ $ , 8 ; 8 - - % 5 & - & + & # & + # 4 * * # @ # & @ o * 4 - 4 5 7 M.M.M.M.M.M.M.M.",
"M.M.M.M.M.M.M.4 . . + + @ + + + @ @ @ + X . + 5 M j r i u u 7 * ; 7 + # = # # + o + & 4 * j j u 4 & & 4 w 4 * % 7 M.M.M.M.M.M.M.",
"M.M.M.M.M.M.& + . . + + + o + + @ @ @ @ & & & ; r : B i , ; u % * # + # # + 4 - o + + & # 5 u V m w 5 5 5 7 ; * - M.M.M.M.M.M.M.",
"M.M.M.M.M.M.+ o o + + + @ + + & @ o + * + + & t t k t w 8 w u # & @ # + + - - 5 @ # # # # * u 8 : w 0 c 4 7 7 w - M.M.M.M.M.M.M."
};
