/* XPM */
static char *result[] = {
/* columns rows colors chars-per-pixel */
"64 64 135 2 ",
"   c #060608",
".  c #000000",
"X  c #0B0A0E",
"o  c #0E0D12",
"O  c #100F14",
"+  c #131116",
"@  c #1A1516",
"#  c #161817",
"$  c #1E1916",
"%  c #15141A",
"&  c #19161B",
"*  c #1C1A1C",
"=  c #231D1D",
"-  c #172319",
";  c #1E221F",
":  c #24211D",
">  c #2B221D",
",  c #32261D",
"<  c #33281F",
"1  c #1D1B21",
"2  c #231E21",
"3  c #1E2521",
"4  c #242223",
"5  c #2B2523",
"6  c #242B24",
"7  c #2D2925",
"8  c #2B2729",
"9  c #2B2B2B",
"0  c #342B24",
"q  c #3A2E23",
"w  c #342D29",
"e  c #382F29",
"r  c #273129",
"t  c #2B352B",
"y  c #3C3226",
"u  c #34322C",
"i  c #3C332B",
"p  c #373A2C",
"a  c #3E392E",
"s  c #2E3830",
"d  c #3B3531",
"f  c #373D35",
"g  c #3B3C35",
"h  c #413426",
"j  c #41362B",
"k  c #45392D",
"l  c #493C2E",
"z  c #453B32",
"x  c #493E32",
"c  c #2B422F",
"v  c #2E4331",
"b  c #344535",
"n  c #3C4335",
"m  c #324B35",
"M  c #3C4933",
"N  c #354A3A",
"B  c #3C4C3A",
"V  c #3B5337",
"C  c #365339",
"Z  c #3C543C",
"A  c #3A5C3E",
"S  c #454333",
"D  c #4D4234",
"F  c #4B4A36",
"G  c #454038",
"H  c #4D4338",
"J  c #434B3B",
"K  c #4F4939",
"L  c #514535",
"P  c #534936",
"I  c #534638",
"U  c #554A3B",
"Y  c #594D3D",
"T  c #43513A",
"R  c #435F3D",
"E  c #55513D",
"W  c #5C523D",
"Q  c #5E583F",
"!  c #60573F",
"~  c #615A3F",
"^  c #4F623E",
"/  c #3C6341",
"(  c #544E42",
")  c #5A4F40",
"_  c #455342",
"`  c #445C44",
"'  c #4C5B45",
"]  c #4E5A4A",
"[  c #535544",
"{  c #5D5342",
"}  c #535A46",
"|  c #5E5A40",
" . c #525B49",
".. c #605644",
"X. c #635B43",
"o. c #645C49",
"O. c #446442",
"+. c #496445",
"@. c #446A44",
"#. c #4C6F43",
"$. c #436348",
"%. c #4C634B",
"&. c #466C49",
"*. c #4C6A4A",
"=. c #5F6D45",
"-. c #52654D",
";. c #516B4E",
":. c #4D754B",
">. c #4D7A4D",
",. c #52734D",
"<. c #537D4E",
"1. c #5E794E",
"2. c #537D51",
"3. c #666245",
"4. c #686545",
"5. c #6A6A47",
"6. c #676549",
"7. c #6A644B",
"8. c #626C4A",
"9. c #6C6B4A",
"0. c #578253",
"q. c #5B8554",
"w. c #5D8955",
"e. c #5D8658",
"r. c #638656",
"t. c #608A57",
"y. c #628D5B",
"u. c #63925D",
"i. c #679262",
"p. c #749564",
"a. c #7A9262",
"s. c #779968",
"d. c #7A9B69",
"f. c #A0AA7A",
"g. c white",
/* pixels */
"g.g.g.g.g.g.g.g.g.g.g.g.g.g.g.g.g.g.g.g.g.g.g.g.g.g.g.g.g.g.g.g.g.g.g.g.g.g.g.g.g.g.g.g.g.g.g.g.g.g.g.g.g.g.g.g.g.g.g.g.g.g.g.g.",
"g.g.g.g.g.g.g.g.g.g.g.g.g.g.g.g.g.g.g.g.g.g.g.g.g.g.g.g.g.g.g.g.g.g.g.g.g.g.g.g.g.g.g.g.g.g.g.g.g.g.g.g.g.g.g.g.g.g.g.g.g.g.g.g.",
"g.g.g.g.g.g.g.g.g.g.g.g.g.g.g.g.g.g.g.g.g.g.g.g.g.g.g.g.g.g.g.g.g.g.g.g.g.g.g.g.g.g.g.g.g.g.g.g.g.g.g.g.g.g.g.g.g.g.g.g.g.g.g.g.",
"g.g.g.g.g.g.g.g.g.g.g.g.g.g.g.g.g.g.g.g.g.g.g.g.g.g.g.g.g.g.g.g.g.g.g.g.g.g.g.g.g.g.g.g.g.g.g.g.g.g.g.g.g.g.g.g.g.g.g.g.g.g.g.g.",
"g.g.g.g.g.g.g.g.g.g.g.g.g.g.g.g.g.g.g.g.g.g.g.g.g.g.g.g.g.g.g.g.g.g.g.g.g.g.g.g.g.g.g.g.g.g.g.g.g.g.g.g.g.g.g.g.g.g.g.g.g.g.g.g.",
"g.g.g.g.g.g.g.g.g.g.g.g.g.g.g.g.g.g.g.g.g.g.g.g.g.g.g.g.g.g.g.g.g.g.g.g.g.g.g.g.g.g.g.g.g.g.g.g.g.g.g.g.g.g.g.g.g.g.g.g.g.g.g.g.",
"g.g.g.g.g.g.g.g.g.g.g.g.g.g.g.g.g.g.g.g.g.g.g.g.g.g.g.g.g.g.g.g.g.g.g.g.g.g.g.g.g.g.g.g.g.g.g.g.g.g.g.g.g.g.g.g.g.g.g.g.g.g.g.g.",
"g.g.g.g.g.g.g.g.g.g.g.g.g.g.g.g.g.g.g.g.g.g.g.g.g.g.g.g.g.g.g.g.g.g.g.g.g.g.g.g.g.g.g.g.g.g.g.g.g.g.g.g.g.g.g.g.g.g.g.g.g.g.g.g.",
"g.g.g.g.g.g.g.g.g.g.g.g.g.g.g.g.g.g.g.g.g.g.g.g.g.g.g.g.g.g.g.g.g.g.g.g.g.g.g.g.g.g.g.g.g.g.g.g.g.g.g.g.g.g.g.g.g.g.g.g.g.g.g.g.",
"g.g.g.g.g.g.g.g.g.g.g.g.g.g.g.g.g.g.g.g.g.g.g.g.g.g.g.g.g.g.g.g.g.g.g.g.g.g.g.g.g.g.g.g.g.g.g.g.g.g.g.g.g.g.g.g.g.g.g.g.g.g.g.g.",
"g.g.g.g.g.g.g.g.g.g.g.g.g.g.g.g.g.g.g.g.g.g.g.g.g.g.g.g.g.g.g.g.g.g.g.g.g.g.g.g.g.g.g.g.g.g.g.g.g.g.g.g.g.g.g.g.g.g.g.g.g.g.g.g.",
"g.g.g.g.g.g.g.g.g.g.g.g.g.g.g.g.g.g.g.g.g.g.g.g.g.g.g.g.g.g.g.g.g.g.g.,.b g.g.g.g.g.g.g.g.g.g.g.g.g.g.g.g.g.g.g.g.g.g.g.g.g.g.g.",
"g.g.g.g.g.g.g.g.g.g.g.g.g.g.g.g.g.g.g.g.g.g.g.g.g.g.g.g.g.g.g.g.g.g.>.M R g.g.g.g.g.g.g.g.g.g.g.g.g.g.g.g.g.g.g.g.g.g.g.g.g.g.g.",
"g.g.g.g.g.g.g.g.g.g.g.g.g.g.g.g.g.g.g.g.g.g.g.g.g.g.f.d.d.y.i.g.g.e.S ^ :.g.g.g.g.g.g.g.g.g.g.g.g.g.g.g.g.g.g.g.g.g.g.g.g.g.g.g.",
"g.g.g.g.g.g.g.g.g.g.g.g.g.g.g.g.g.g.g.g.g.g.g.g.g.a.p.i.0.u.w.>.&.,.| =.<.g.g.g.g.g.g.g.g.g.g.g.g.g.g.g.g.g.g.g.g.g.g.g.g.g.g.g.",
"g.g.g.g.g.g.g.g.g.g.g.g.g.g.g.g.g.g.g.g.g.g.g.g.s.q.q.w.u.u.0.$. ._ X.5.1.g.g.g.g.g.g.g.g.g.g.g.g.g.g.g.g.g.g.g.g.g.g.g.g.g.g.g.",
"g.g.g.g.g.g.g.g.g.g.g.g.g.g.g.g.g.g.g.g.g.g.g.t.0.w.w.w.0.w.^ ' 1 f E 5.1.g.g.g.g.g.g.g.g.g.g.g.g.g.g.g.g.g.g.g.g.g.g.g.g.g.g.g.",
"g.g.g.g.g.g.g.g.g.g.g.g.g.g.g.g.g.g.g.g.g.g.a.<.<.1.,.^ / #.+.} S f ] o.g.g.g.g.g.g.g.g.g.g.g.g.g.g.g.g.g.g.g.g.g.g.g.g.g.g.g.g.",
"g.g.g.g.g.g.g.g.g.g.g.g.g.g.g.g.g.g.g.g.g.g.2.:.,.,._ _ b +.+.J t ' %.' g.g.g.g.g.g.g.g.g.g.g.g.g.g.g.g.g.g.g.g.g.g.g.g.g.g.g.g.",
"g.g.g.g.g.g.g.g.g.g.g.g.g.g.g.g.g.g.g.g.g.g.&.O.+.` g 8 b Z 8.-.;.%._ g.g.g.g.g.g.g.g.g.g.g.g.g.g.g.g.g.g.g.g.g.g.g.g.g.g.g.g.g.",
"g.g.g.g.g.g.g.g.g.g.g.g.g.g.g.g.g.g.g.g.u.>.O.A Z n % p 4 ` T &.$.m t g.g.g.g.g.g.g.g.g.g.g.g.g.g.g.g.g.g.g.g.g.g.g.g.g.g.g.g.g.",
"g.g.g.g.g.g.g.g.g.g.g.g.g.g.g.g.g.r.<.@.:.:.Z Z B [ 7 $ _ -.*.` t 6 w g.g.g.g.g.g.g.g.g.g.g.g.g.g.g.g.g.g.g.g.g.g.g.g.g.g.g.g.g.",
"g.g.g.g.g.g.g.g.g.g.g.g.g.g.g.,.@.V p : 6 C m N J [ } +.*.` f t t ; u U g.g.g.g.g.g.g.g.g.g.g.g.g.g.g.g.g.g.g.g.g.g.g.g.g.g.g.g.",
"g.g.g.g.g.g.g.g.g.g.g.g.g.g.p , < < < , = 3 t s g (  .] B 4 t c 3 * 9 { g.g.g.g.g.g.g.g.g.g.g.g.g.g.g.g.g.g.g.g.g.g.g.g.g.g.g.g.",
"g.g.g.g.g.g.g.g.g.g.g.g.7 q a l L l h , , = 4 4 9 d s t 4 6 8 6 * * U 3...g.g.g.g.g.g.g.g.g.g.g.g.g.g.g.g.g.g.g.g.g.g.g.g.g.g.g.",
"g.g.g.g.g.g.g.g.g.g.g.g.g.S F L L l l q q d w 3 1 1 4 1 * $ & & 6 { 7.X.o.{ g.g.g.g.g.g.g.g.g.g.g.g.g.g.g.g.g.g.g.g.g.g.g.g.g.g.",
"g.g.g.g.g.g.g.g.g.g.g.g.g.g.E L P D l l z d n z 7 o % * = 5 U { [ ..o.o...o.g.g.g.g.g.g.g.g.g.g.g.g.g.g.g.g.g.g.g.g.g.g.g.g.g.g.",
"g.g.g.g.g.g.g.g.g.g.g.g.g.g.g.g.~ W P L g.z x I Y U z D Y Y { { U Y ..{ o.o.g.g.g.g.g.g.g.g.g.g.g.g.g.g.g.g.g.g.g.g.g.g.g.g.g.g.",
"g.g.g.g.g.g.g.g.g.g.g.g.g.g.g.g.g.g.g.g.g.g.z x L U ) ) ) Y { x I { W o...) g.g.g.g.g.g.g.g.g.g.g.g.g.g.g.g.g.g.g.g.g.g.g.g.g.g.",
"g.g.g.g.g.g.g.g.g.g.g.g.g.g.g.g.g.g.g.g.g.g.x x x k l L x U x l Y ) { { U z g.g.g.g.g.g.g.g.g.g.g.g.g.g.g.g.g.g.g.g.g.g.g.g.g.g.",
"g.g.g.g.g.g.g.g.g.g.g.g.g.g.g.g.g.g.g.g.g.g.S x x x l L Y U I k I Y { U j H g.g.g.g.g.g.g.g.g.g.g.g.g.g.g.g.g.g.g.g.g.g.g.g.g.g.",
"g.g.g.g.g.g.g.g.g.g.g.g.g.g.g.g.g.g.g.g.g.g.i z x I U U Y I U k L U x i x x D g.g.g.g.g.g.g.g.g.g.g.g.g.g.g.g.g.g.g.g.g.g.g.g.g.",
"g.g.g.g.g.g.g.g.g.g.g.g.g.g.g.g.g.g.g.g.g.g.= 2 0 d l L I D D l x 0 , q k I Y x g.g.g.g.g.g.g.g.g.g.g.g.g.g.g.g.g.g.g.g.g.g.g.g.",
"g.g.g.g.g.g.g.g.g.g.g.g.g.g.g.g.g.g.g.g.g.j e z 5 $ 2 w i 0 > = = = < < h q 0 L 6.g.g.g.g.g.g.g.g.g.g.g.g.g.g.g.g.g.g.g.g.g.g.g.",
"g.g.g.g.g.g.g.g.g.g.g.g.g.g.g.g.g.g.g.g.) L L j x j = > e = = = , k l q < < x { X.L g.g.g.g.g.g.g.g.g.g.g.g.g.g.g.g.g.g.g.g.g.g.",
"g.g.g.g.g.g.g.g.g.g.g.g.g.g.g.g.g.g.g.g.Y x L x 0 ) j = = = > 0 0 x x l L U Y Y Q j g.g.g.g.g.g.g.g.g.g.g.g.g.g.g.g.g.g.g.g.g.g.",
"g.g.g.g.g.g.g.g.g.g.g.g.g.g.g.g.g.g.g.o.L U l l e x Y U < y k j h L P P ! U ! W W 0 D g.g.g.g.g.g.g.g.g.g.g.g.g.g.g.g.g.g.g.g.g.",
"g.g.g.g.g.g.g.g.g.g.g.g.g.g.g.g.g.g.g.X.Y U e , 2 h U W W U Y D j P P P ! W ! ! P z W S g.g.g.g.g.g.g.g.g.g.g.g.g.g.g.g.g.g.g.g.",
"g.g.g.g.g.g.g.g.g.g.g.g.g.g.g.g.g.g.g.Y Y j * 5 = q L k k D L l k x P W ~ ~ W ~ k U D L g.g.g.g.g.g.g.g.g.g.g.g.g.g.g.g.g.g.g.g.",
"g.g.g.g.g.g.g.g.g.g.g.g.g.g.g.g.g.g.U L Y k e = = 5 x h 0 j D L x x L P ~ ~ ~ W i { 3.7.g.g.g.g.g.g.g.g.g.g.g.g.g.g.g.g.g.g.g.g.",
"g.g.g.g.g.g.g.g.g.g.g.g.g.g.g.g.g.g.U I i U x 0 $ 4 I I i q z L l k k k l Y ! P h U X.o.g.g.g.g.g.g.g.g.g.g.g.g.g.g.g.g.g.g.g.g.",
"g.g.g.g.g.g.g.g.g.g.g.g.g.g.g.g.g.g.L Y h j k w 5 = I x h 0 q l e h h h h h l l j L X.o.o.g.g.g.g.g.g.g.g.g.g.g.g.g.g.g.g.g.g.g.",
"g.g.g.g.g.g.g.g.g.g.g.g.g.g.g.g.g.g.l L I e q 5 0 = x L h 0 , q 0 0 q 0 h k U l I x k z D g.g.g.g.g.g.g.g.g.g.g.g.g.g.g.g.g.g.g.",
"g.g.g.g.g.g.g.g.g.g.g.g.g.g.g.g.g.g...Y Y U x 0 5 7 j L j q 0 > q q q q L U L z | = O   + g.g.g.g.g.g.g.g.g.g.g.g.g.g.g.g.g.g.g.",
"g.g.g.g.g.g.g.g.g.g.g.g.g.g.g.g.g.g.) U ) ) x e 7 w e I l l k > q l l x Y Y l z X.6 v - O 2 g.g.g.g.g.g.g.g.g.g.g.g.g.g.g.g.g.g.",
"g.g.g.g.g.g.g.g.g.g.g.g.g.g.g.g.g.g.I I I I x e 5 w 0 L k l k y k l x L Y L 5 x 5.t / @.+ 2 g.g.g.g.g.g.g.g.g.g.g.g.g.g.g.g.g.g.",
"g.g.g.g.g.g.g.g.g.g.g.g.g.g.g.g.g.x i e 8 w d w 0 y , P l D D y h l h l L h h Y 7.w B :.m g.g.g.g.g.g.g.g.g.g.g.g.g.g.g.g.g.g.g.",
"g.g.g.g.g.g.g.g.g.g.g.g.g.g.g.g.) w O   O O o 2 0 j < D D L ..j x U L l L ~ ~ 4.5.a = A ^ g.g.g.g.g.g.g.g.g.g.g.g.g.g.g.g.g.g.g.",
"g.g.g.g.g.g.g.g.g.g.g.g.g.g.g.g.Y z 2 X % * 6 3 w p y j W U D W L U Y l W ~ ! ~ 3.0 + ,.g.g.g.g.g.g.g.g.g.g.g.g.g.g.g.g.g.g.g.g.",
"g.g.g.g.g.g.g.g.g.g.g.g.g.g.g.g.i 2 $ o * v / C 0 k i < D l l E D X.X.H X.4.~ ~ 3.i e u g.g.g.g.g.g.g.g.g.g.g.g.g.g.g.g.g.g.g.g.",
"g.g.g.g.g.g.g.g.g.g.g.g.g.g.g.g.j q = O 3 A / Z 0 k j e 0 U X.k ( o.7.U X.! X.! 3.W E F g.g.g.g.g.g.g.g.g.g.g.g.g.g.g.g.g.g.g.g.",
"g.g.g.g.g.g.g.g.g.g.g.g.g.g.g.g.x I l e t A A u i S k D X.! P 5 I { X.W X.X.! Y X.! 5.9.g.g.g.g.g.g.g.g.g.g.g.g.g.g.g.g.g.g.g.g.",
"g.g.g.g.g.g.g.g.g.g.g.g.g.g.g.g.d U Y H b A &.: y L Y { ..3.W S G { o.....! X...Q ! X.5.5.5.K g.g.g.g.g.g.g.g.g.g.g.g.g.g.g.g.g.",
"g.g.g.g.g.g.g.g.g.g.g.g.g.g.g.g.g.d I x a / Z G U ! ..U L P { o.Y { Y L L x W 6.3.5.4.~ { { z g.g.g.g.g.g.g.g.g.g.g.g.g.g.g.g.g.",
"g.g.g.g.g.g.g.g.g.g.g.g.g.g.g.g.g.1 d G D D I I ) Y U I L L L L L x D x L 0 u D D q q w z D i g.g.g.g.g.g.g.g.g.g.g.g.g.g.g.g.g.",
"g.g.g.g.g.g.g.g.g.g.g.g.4 g.8 1 O + & * 8 d z z z k x z k D D l k y l l j k > = @ = = = 5 w 0 g.g.g.g.g.g.g.g.g.g.g.g.g.g.g.g.g.",
"g.g.g.g.g.g.g.g.g.g.g.+ % % 1 O o o O % + o % O @ @ & $ = * * = = 4 j j e 0 5 2 = > y y 7 = 7 4 % + O 1 g.g.g.g.g.g.g.g.g.g.g.g.",
"g.g.g.g.g.g.g.g.g.g.% o & 1 1 1 + % 1 % % % % O = = = = $ $ + + * $ 2 4 2 O o + & 4 0 0 = = 4 5 % % 1 % 1 1 1 g.g.g.g.g.g.g.g.g.",
"g.g.g.g.g.g.g.g.g.o o + o O X 1 1 % 4 4 1 1 d x x L x e % 2 w 8 a 5 * % + o O O O & = + O X 1 * + & % % & % % 1 g.g.g.g.g.g.g.g.",
"g.g.g.g.g.g.g.g.g.o + + 1 o X o % % 1 2 1 O 4 8 w = i w O o + & z 7 5 * & 4 o o o & & + O o O + % + & O 1 1 % 5 g.g.g.g.g.g.g.g.",
"g.g.g.g.g.g.g.g.o   o O o o o o o o + % o + % + $ = = : 8 + * & 2 % 1 o + % o % X * * % + o o + o o % 1 1 % % u % g.g.g.g.g.g.g.",
"g.g.g.g.g.g.g.g.% . . o o % o o o + % o o . . o 0 d d 0 w d w + 2 4 % o % % + + o o % 1 & : w 8 & & % % 8 1 1 & = g.g.g.g.g.g.g.",
"g.g.g.g.g.g.o % o .   o o o o X O o O + + + % & 2 5 5 i 5 = 7 7 % * + o + + % 1 O O o + % * w G x 7 & 1 2 2 4 + * g.g.g.g.g.g.g.",
"g.g.g.g.g.g.o o o X X o o % o O % + o o % o o = 0 e i 7 0 w 5 > & + + o + + * 1 $ X O + + O 4 0 = 5 8 z 2 2 5 5 4 g.g.g.g.g.g.g."
};
