/* XPM */
static char *result[] = {
/* columns rows colors chars-per-pixel */
"64 64 168 2 ",
"   c #070607",
".  c #070608",
"X  c #08070B",
"o  c #0B0A0E",
"O  c #120E0F",
"+  c #0E0D12",
"@  c #100F14",
"#  c #131116",
"$  c #1A1516",
"%  c #1E1817",
"&  c #15141A",
"*  c #19161B",
"=  c #171818",
"-  c #1C1A1C",
";  c #211A17",
":  c #231D1D",
">  c #291F1A",
",  c #1E201D",
"<  c #27211E",
"1  c #2B231E",
"2  c #33271D",
"3  c #37291E",
"4  c #1E1B21",
"5  c #211F21",
"6  c #1E2420",
"7  c #1F2E21",
"8  c #242222",
"9  c #2B2523",
"0  c #252925",
"q  c #2D2A25",
"w  c #2C272A",
"e  c #262E28",
"r  c #2C2A29",
"t  c #302724",
"y  c #332B24",
"u  c #392E24",
"i  c #342D2A",
"p  c #382E29",
"a  c #243225",
"s  c #2E3426",
"d  c #2B342C",
"f  c #2A3B2C",
"g  c #363027",
"h  c #3D3125",
"j  c #35312C",
"k  c #3C332C",
"l  c #34392D",
"z  c #3D3828",
"x  c #2F3931",
"c  c #353530",
"v  c #3D3631",
"b  c #363C30",
"n  c #3C3C34",
"m  c #413325",
"M  c #42362A",
"N  c #453A2D",
"B  c #493D2E",
"V  c #403732",
"C  c #443B32",
"Z  c #493E32",
"A  c #31432F",
"S  c #2E4130",
"D  c #324333",
"F  c #3C4532",
"G  c #334C36",
"H  c #3B4B37",
"J  c #374838",
"K  c #3A483A",
"L  c #355239",
"P  c #3C543B",
"I  c #3A5B3D",
"U  c #404032",
"Y  c #4C4234",
"T  c #424836",
"R  c #4D4A36",
"E  c #424738",
"W  c #4A4439",
"Q  c #474C3A",
"!  c #4E4C3B",
"~  c #514535",
"^  c #544836",
"/  c #534638",
"(  c #554A3B",
")  c #594E3D",
"_  c #44543B",
"`  c #4F553A",
"'  c #43583D",
"]  c #495E3B",
"[  c #55523A",
"{  c #5C533D",
"}  c #575C3F",
"|  c #5C5A3E",
" . c #615B3F",
".. c #3D5E41",
"X. c #3F6140",
"o. c #474F40",
"O. c #5A4F40",
"+. c #455242",
"@. c #4C5545",
"#. c #445B42",
"$. c #4A5A44",
"%. c #465E48",
"&. c #4D5D49",
"*. c #535545",
"=. c #5E5442",
"-. c #515B42",
";. c #5C5B44",
":. c #555E4D",
">. c #585848",
",. c #605743",
"<. c #635B43",
"1. c #625748",
"2. c #645D49",
"3. c #416444",
"4. c #4A6244",
"5. c #436B45",
"6. c #4C6B45",
"7. c #456648",
"8. c #4D654B",
"9. c #476D49",
"0. c #4B6D49",
"q. c #5D6144",
"w. c #546E46",
"e. c #5F6D46",
"r. c #53654C",
"t. c #59654F",
"y. c #536C4D",
"u. c #467147",
"i. c #47734B",
"p. c #4C744A",
"a. c #4C7A4E",
"s. c #5D7049",
"d. c #527C4D",
"f. c #4F7951",
"g. c #527B52",
"h. c #666244",
"j. c #686546",
"k. c #6A6945",
"l. c #69634B",
"z. c #616E4A",
"x. c #6C6A4A",
"c. c #706F4E",
"v. c #696351",
"b. c #6C6A51",
"n. c #706E53",
"m. c #568254",
"M. c #5B8555",
"N. c #5D8856",
"B. c #668353",
"V. c #628C5B",
"C. c #6A8E5D",
"Z. c #64915C",
"A. c #798163",
"S. c #798861",
"D. c #679461",
"F. c #6A9462",
"G. c #6B9863",
"H. c #7A9464",
"J. c #789967",
"K. c #8C9E6F",
"L. c #8B9C70",
"P. c #84A370",
"I. c #A1A97C",
"U. c #A6AC80",
"Y. c #A9AF83",
"T. c #A7B588",
"R. c #B1B78A",
"E. c white",
/* pixels */
"E.E.E.E.E.E.E.E.E.E.E.E.E.E.E.E.E.E.E.E.E.E.E.E.E.E.E.E.E.E.E.E.E.E.E.E.E.E.E.E.E.E.E.E.E.E.E.E.E.E.E.E.E.E.E.E.E.E.E.E.E.E.E.E.",
"E.E.E.E.E.E.E.E.E.E.E.E.E.E.E.E.E.E.E.E.E.E.E.E.E.E.E.E.E.E.E.E.E.E.E.E.E.E.E.E.E.E.E.E.E.E.E.E.E.E.E.E.E.E.E.E.E.E.E.E.E.E.E.E.",
"E.E.E.E.E.E.E.E.E.E.E.E.E.E.E.E.E.E.E.E.E.E.E.E.E.E.E.E.E.E.E.E.E.E.E.E.E.E.E.E.E.E.E.E.E.E.E.E.E.E.E.E.E.E.E.E.E.E.E.E.E.E.E.E.",
"E.E.E.E.E.E.E.E.E.E.E.E.E.E.E.E.E.E.E.E.E.E.E.E.E.E.E.E.E.E.E.E.E.E.E.E.E.E.E.E.E.E.E.E.E.E.E.E.E.E.E.E.E.E.E.E.E.E.E.E.E.E.E.E.",
"E.E.E.E.E.E.E.E.E.E.E.E.E.E.E.E.E.E.E.E.E.E.E.E.E.E.E.E.E.E.E.E.E.E.E.E.E.E.E.E.E.E.E.E.E.E.E.E.E.E.E.E.E.E.E.E.E.E.E.E.E.E.E.E.",
"E.E.E.E.E.E.E.E.E.E.E.E.E.E.E.E.E.E.E.E.E.E.E.E.E.E.E.E.E.E.E.E.E.E.E.E.E.E.E.E.E.E.E.E.E.E.E.E.E.E.E.E.E.E.E.E.E.E.E.E.E.E.E.E.",
"E.E.E.E.E.E.E.E.E.E.E.E.E.E.E.E.E.E.E.E.E.E.E.E.E.E.E.E.E.E.E.E.E.E.E.E.E.E.E.E.E.E.E.E.E.E.E.E.E.E.E.E.E.E.E.E.E.E.E.E.E.E.E.E.",
"E.E.E.E.E.E.E.E.E.E.E.E.E.E.E.E.E.E.E.E.E.E.E.E.E.E.E.E.E.E.E.E.E.E.E.E.E.E.E.E.E.E.E.E.E.E.E.E.E.E.E.E.E.E.E.E.E.E.E.E.E.E.E.E.",
"E.E.E.E.E.E.E.E.E.E.E.E.E.E.E.E.E.E.E.E.E.E.E.E.E.E.E.E.E.E.E.E.E.E.E.E.E.E.E.E.E.E.E.E.E.E.E.E.E.E.E.E.E.E.E.E.E.E.E.E.E.E.E.E.",
"E.E.E.E.E.E.E.E.E.E.E.E.E.E.E.E.E.E.E.E.E.E.E.E.E.E.E.E.E.E.E.E.E.E.E.E.u.S E.E.E.E.E.E.E.E.E.E.E.E.E.E.E.E.E.E.E.E.E.E.E.E.E.E.",
"E.E.E.E.E.E.E.E.E.E.E.E.E.E.E.E.E.E.E.E.E.E.E.E.E.E.E.E.E.E.E.E.E.E.E.g.A G E.E.E.E.E.E.E.E.E.E.E.E.E.E.E.E.E.E.E.E.E.E.E.E.E.E.",
"E.E.E.E.E.E.E.E.E.E.E.E.E.E.E.E.E.E.E.E.E.E.E.E.E.E.E.E.T.E.E.E.E.D.p.F P 3.E.E.E.E.E.E.E.E.E.E.E.E.E.E.E.E.E.E.E.E.E.E.E.E.E.E.",
"E.E.E.E.E.E.E.E.E.E.E.E.E.E.E.E.E.E.E.E.E.E.E.E.R.Y.P.J.V.F.F.E.G.p.F ] u.u.E.E.E.E.E.E.E.E.E.E.E.E.E.E.E.E.E.E.E.E.E.E.E.E.E.E.",
"E.E.E.E.E.E.E.E.E.E.E.E.E.E.E.E.E.E.E.E.E.E.E.U.L.C.D.M.Z.Z.m.0.m.[ | w.a.d.E.E.E.E.E.E.E.E.E.E.E.E.E.E.E.E.E.E.E.E.E.E.E.E.E.E.",
"E.E.E.E.E.E.E.E.E.E.E.E.E.E.E.E.E.E.E.E.E.E.I.H.N.N.N.D.V.N.%.r.+.( <.e.a.g.E.E.E.E.E.E.E.E.E.E.E.E.E.E.E.E.E.E.E.E.E.E.E.E.E.E.",
"E.E.E.E.E.E.E.E.E.E.E.E.E.E.E.E.E.E.E.E.E.E.V.M.M.N.N.N.N.p.&.j 0 ! ;.e.g.g.E.E.E.E.E.E.E.E.E.E.E.E.E.E.E.E.E.E.E.E.E.E.E.E.E.E.",
"E.E.E.E.E.E.E.E.E.E.E.E.E.E.E.E.E.E.E.E.E.H.d.d.M.0.P P 6.6.o.>.- :.) s.g.E.E.E.E.E.E.E.E.E.E.E.E.E.E.E.E.E.E.E.E.E.E.E.E.E.E.E.",
"E.E.E.E.E.E.E.E.E.E.E.E.E.E.E.E.E.E.E.E.S.d.p.0.0.$.@.J ] 6._ 0 +.&.@.y.E.E.E.E.E.E.E.E.E.E.E.E.E.E.E.E.E.E.E.E.E.E.E.E.E.E.E.E.",
"E.E.E.E.E.E.E.E.E.E.E.E.E.E.E.E.E.E.E.E.M.9.7.4.#.j = l P z.r.y.8.$.#.E.E.E.E.E.E.E.E.E.E.E.E.E.E.E.E.E.E.E.E.E.E.E.E.E.E.E.E.E.",
"E.E.E.E.E.E.E.E.E.E.E.E.E.E.E.E.E.B.N.N.d.5.I H H & q 8 %._ 7.7.H x W E.E.E.E.E.E.E.E.E.E.E.E.E.E.E.E.E.E.E.E.E.E.E.E.E.E.E.E.E.",
"E.E.E.E.E.E.E.E.E.E.E.E.E.E.L.B.d.u.I X.u.I P K *.v l #.9.9.%.x 0 0 O.b.E.E.E.E.E.E.E.E.E.E.E.E.E.E.E.E.E.E.E.E.E.E.E.E.E.E.E.E.",
"E.E.E.E.E.E.E.E.E.E.E.E.A.6.' A g 1 > % f G J E *.@.$.8.+.b d d 6 0 W n.E.E.E.E.E.E.E.E.E.E.E.E.E.E.E.E.E.E.E.E.E.E.E.E.E.E.E.E.",
"E.E.E.E.E.E.E.E.E.t.$.k q 2 3 m m m 2 > * e d n o.*.$.J 0 d S 0 - 8 ) b.E.E.E.E.E.E.E.E.E.E.E.E.E.E.E.E.E.E.E.E.E.E.E.E.E.E.E.E.",
"E.E.E.E.E.E.E.E.E.8 j l z N ~ ^ Y m 3 3 9 6 8 w i c e < 0 0 e , 4 Y j.1.2.E.E.E.E.E.E.E.E.E.E.E.E.E.E.E.E.E.E.E.E.E.E.E.E.E.E.E.",
"E.E.E.E.E.E.E.E.E.E.E.T [ R ^ ^ Y N m m v k e - 8 8 4 , : - = 6 ( l.j.2.=.E.E.E.E.E.E.E.E.E.E.E.E.E.E.E.E.E.E.E.E.E.E.E.E.E.E.E.",
"E.E.E.E.E.E.E.E.E.E.E.E.-.-.[ { ^ Y B B v v C i # & - = 9 Z =.( 1.2.2.2.2.2.E.E.E.E.E.E.E.E.E.E.E.E.E.E.E.E.E.E.E.E.E.E.E.E.E.E.",
"E.E.E.E.E.E.E.E.E.E.E.E.E.E.;.q.=.[ Y Y C Z ( O.[ C Y ( ) 1.O.) ) =.=.2.2.=.E.E.E.E.E.E.E.E.E.E.E.E.E.E.E.E.E.E.E.E.E.E.E.E.E.E.",
"E.E.E.E.E.E.E.E.E.E.E.E.E.E.E.E.E.E.E.E.C Z Z Z ) O.=.=.) O.Z ) =.O.1.=.1.E.E.E.E.E.E.E.E.E.E.E.E.E.E.E.E.E.E.E.E.E.E.E.E.E.E.E.",
"E.E.E.E.E.E.E.E.E.E.E.E.E.E.E.E.E.E.E.E.k Y Z Z C B ~ / / / B ( ) =.=.O.C O.E.E.E.E.E.E.E.E.E.E.E.E.E.E.E.E.E.E.E.E.E.E.E.E.E.E.",
"E.E.E.E.E.E.E.E.E.E.E.E.E.E.E.E.E.E.E.E.V C Z Z Z Z ~ / ) / B / O.) =.C Z O.E.E.E.E.E.E.E.E.E.E.E.E.E.E.E.E.E.E.E.E.E.E.E.E.E.E.",
"E.E.E.E.E.E.E.E.E.E.E.E.E.E.E.E.E.E.E.E.i k C Z ~ / ) ) / ) N / ( ~ k N Z Z 2.E.E.E.E.E.E.E.E.E.E.E.E.E.E.E.E.E.E.E.E.E.E.E.E.E.",
"E.E.E.E.E.E.E.E.E.E.E.E.E.E.E.E.E.E.E.E.v 5 5 t p Z Z / Z ~ N Z u 9 u N / ) Y E.E.E.E.E.E.E.E.E.E.E.E.E.E.E.E.E.E.E.E.E.E.E.E.E.",
"E.E.E.E.E.E.E.E.E.E.E.E.E.E.E.E.E.E.E.2.N p M i $ 9 i k p 9 8 $ : y y m y u B 1.c.E.E.E.E.E.E.E.E.E.E.E.E.E.E.E.E.E.E.E.E.E.E.E.",
"E.E.E.E.E.E.E.E.E.E.E.E.E.E.E.E.E.E.E.,.~ Z C Z k : : p : ; < < m B m 3 y N =.<.{ B E.E.E.E.E.E.E.E.E.E.E.E.E.E.E.E.E.E.E.E.E.E.",
"E.E.E.E.E.E.E.E.E.E.E.E.E.E.E.E.E.E.l.) Z Z Z u ) B < % > < y u B ~ m B ^ [ { { U B E.E.E.E.E.E.E.E.E.E.E.E.E.E.E.E.E.E.E.E.E.E.",
"E.E.E.E.E.E.E.E.E.E.E.E.E.E.E.E.E.E.<./ ) Z Z M Z ) ( 3 u M M h Z ( ^  .^ { { { k Y ( E.E.E.E.E.E.E.E.E.E.E.E.E.E.E.E.E.E.E.E.E.",
"E.E.E.E.E.E.E.E.E.E.E.E.E.E.E.E.E.2.2.( ) M t > p ~ ) { ^ ) Y k ^ ^ ^  . .)  .{ k [ Y E.E.E.E.E.E.E.E.E.E.E.E.E.E.E.E.E.E.E.E.E.",
"E.E.E.E.E.E.E.E.E.E.E.E.E.E.E.E.E.,.) ) Z ; 9 : 9 ~ B M ~ ~ B M / Z /  . . . .^ Y ( B 2.E.E.E.E.E.E.E.E.E.E.E.E.E.E.E.E.E.E.E.E.",
"E.E.E.E.E.E.E.E.E.E.E.E.E.E.E.E.E.) Z ^ B p : 5 9 Y m 2 k Y Y Z Z Z ~  . . . .N / h.l.l.E.E.E.E.E.E.E.E.E.E.E.E.E.E.E.E.E.E.E.E.",
"E.E.E.E.E.E.E.E.E.E.E.E.E.E.E.E.E./ ( m / ~ y = : Y ( M u N ~ Z N B N B ) { { u ~ 1.2.2.E.E.E.E.E.E.E.E.E.E.E.E.E.E.E.E.E.E.E.E.",
"E.E.E.E.E.E.E.E.E.E.E.E.E.E.E.E.E.~ ) M m C p 5 % Z / M y u B h m m m m m m ~ N Y { 2.2.v.E.E.E.E.E.E.E.E.E.E.E.E.E.E.E.E.E.E.E.",
"E.E.E.E.E.E.E.E.E.E.E.E.E.E.E.E.E.Z ~ / M p t t : M ) M u 1 u t t m 2 u m ~ Y ( Y B N Y O.E.E.E.E.E.E.E.E.E.E.E.E.E.E.E.E.E.E.E.",
"E.E.E.E.E.E.E.E.E.E.E.E.E.E.E.E.E.=.) ( ) Z y 1 t k R M g 3 9 y 3 3 u B ^ ( M <.0 # . + % E.E.E.E.E.E.E.E.E.E.E.E.E.E.E.E.E.E.E.",
"E.E.E.E.E.E.E.E.E.E.E.E.E.E.E.E.) O.( O.O./ p 9 k t / B B B 2 u B B B / ^ ^ i <.l S , + = E.E.E.E.E.E.E.E.E.E.E.E.E.E.E.E.E.E.E.",
"E.E.E.E.E.E.E.E.E.E.E.E.E.E.E.E.) ) W ) / Z v : k 9 / B B m g N B Z ~ ( ^ u p h.B I 5.a = E.E.E.E.E.E.E.E.E.E.E.E.E.E.E.E.E.E.E.",
"E.E.E.E.E.E.E.E.E.E.E.E.E.E.E.2.Y k k k i V j t h t ~ B Y Y N M m B Z ~ B y Y k.W H X.5.= E.E.E.E.E.E.E.E.E.E.E.E.E.E.E.E.E.E.E.",
"E.E.E.E.E.E.E.E.E.E.E.E.E.E.E.O.c @ o o # @ : 5 N u B B ^  .Y B ^ ^ B / ) <.<.k.R < D p.u E.E.E.E.E.E.E.E.E.E.E.E.E.E.E.E.E.E.E.",
"E.E.E.E.E.E.E.E.E.E.E.E.E.E.E.O.Z 9 o & - , 0 t M M u ) ( ~ { Y ^ ) B ~ <.{  .h.Y + #.9.k E.E.E.E.E.E.E.E.E.E.E.E.E.E.E.E.E.E.E.",
"E.E.E.E.E.E.E.E.E.E.E.E.E.E.E.M 9 : + & f I I y M N 9 Y ~ N { C ,.2./  . .<. .<.Y y M d E.E.E.E.E.E.E.E.E.E.E.E.E.E.E.E.E.E.E.E.",
"E.E.E.E.E.E.E.E.E.E.E.E.E.E.E.M y % # - L 5...q M M k 9 Y h.( W 1.l.( ,.<.2. .<.;.[ W E.E.E.E.E.E.E.E.E.E.E.E.E.E.E.E.E.E.E.E.E.",
"E.E.E.E.E.E.E.E.E.E.E.E.E.E.E.C / Z j e L X.s z N C Z ( <.) i C ,.<.,. .<. .{ ,.<.h.k.x.E.E.E.E.E.E.E.E.E.E.E.E.E.E.E.E.E.E.E.E.",
"E.E.E.E.E.E.E.E.E.E.E.E.E.E.E.c ( ) / c I i.7 k Y ( <.=.j.{ Z C ,.1.,.,.<.<.;.{ |  .h.k.h.2.W E.E.E.E.E.E.E.E.E.E.E.E.E.E.E.E.E.",
"E.E.E.E.E.E.E.E.E.E.E.E.E.E.E.i v ( Z n 3.J Q Y 1. .) / ( ,.2. .( ( ) ~ Y ) h.h.j.j.h.<.,.( N E.E.E.E.E.E.E.E.E.E.E.E.E.E.E.E.E.",
"E.E.E.E.E.E.E.E.E.E.E.E.E.E.E.t 4 c C O.W ) ) O.O.) ( ~ ~ ^ ~ ~ Y ~ ~ ~ h y Y ( Z k k k ~ C p E.E.E.E.E.E.E.E.E.E.E.E.E.E.E.E.E.",
"E.E.E.E.E.E.E.E.E.E.E.4 * w 8 * @ 4 4 w v C N Z Z Z Z Z B / Z Z p Z B B Z 1 8 % # > ; > k t 9 9 y * E.E.E.E.E.E.E.E.E.E.E.E.E.E.",
"E.E.E.E.E.E.E.E.E.E.& @ & 4 & + @ @ * * # * * = % ; ; 5 : : : : 9 p N h y i 5 : < u g u 5 y 5 ; & # & - E.E.E.E.E.E.E.E.E.E.E.E.",
"E.E.E.E.E.E.E.E.E.* + & 4 4 4 + @ & # # # * + ; % : : % & * # : $ : 9 9 # & @ $ 9 9 p 5 > 5 9 & & 4 & * 4 E.E.E.E.E.E.E.E.E.E.E.",
"E.E.E.E.E.E.E.E.@ + @ @ & + 4 4 4 8 8 4 8 r C C Y Z k 8 < k 8 i t $ & & @ @ @ @ @ 5 & $ @ & - & # * @ 4 * * E.E.E.E.E.E.E.E.E.E.",
"E.E.E.E.E.E.E.E.+ + # 4 @ + + & # 4 w * * 4 i c i i V & @ # & k k r - * - = @ o # - * @ @ @ # $ & * # & 4 & E.E.E.E.E.E.E.E.E.E.",
"E.E.E.E.E.E.E.# . o & @ @ + + + + & * + @ 4 & * - : % 1 & & - 8 * - - # * # # + & 5 & & @ @ @ # + + & 4 & & 4 E.E.E.E.E.E.E.E.E.",
"E.E.E.E.E.E.E.& X . # # & @ & X & & @ @ X X + 9 N k p c c p 5 - - 5 + @ 4 & # # o & * 4 # i 8 * 4 # * 4 5 5 * E.E.E.E.E.E.E.E.E.",
"E.E.E.E.E.E.4 + X . + + + o o @ # @ # @ & * * 5 r : h i ; 8 i - : 4 + # @ # - & O o @ * # i v Y v - 4 4 5 5 4 # E.E.E.E.E.E.E.E.",
"E.E.E.E.E.E.@ + + o + @ + + @ 4 # o + & @ + # t i V i i i 9 i * & & @ # @ = 4 5 o @ # @ @ - r 9 1 i t v 4 5 w 9 E.E.E.E.E.E.E.E.",
"E.E.E.E.E.+ + o + 4 & + + # 4 * & : 9 - @ & - M p 9 9 w w 8 4 # @ * & + 4 # $ = # o @ # - = 8 - - * 4 4 * * * = E.E.E.E.E.E.E.E."
};
