/* XPM */
static char *result[] = {
/* columns rows colors chars-per-pixel */
"64 64 147 2 ",
"   c #070607",
".  c #070709",
"X  c #08070C",
"o  c #0B0A0E",
"O  c #0E0D12",
"+  c #100F14",
"@  c #131116",
"#  c #1A1516",
"$  c #1E1816",
"%  c #15141A",
"&  c #19171B",
"*  c #1C191D",
"=  c #211B17",
"-  c #231D1C",
";  c #281F1B",
":  c #1F211D",
">  c #26201F",
",  c #2B221E",
"<  c #32271D",
"1  c #372A1F",
"2  c #1D1C20",
"3  c #211E21",
"4  c #1D2020",
"5  c #252222",
"6  c #2B2523",
"7  c #232A25",
"8  c #2D2925",
"9  c #2A2728",
"0  c #262D28",
"q  c #2D2B2A",
"w  c #302723",
"e  c #332A24",
"r  c #3A2E23",
"t  c #342D29",
"y  c #382F29",
"u  c #213323",
"i  c #2F3125",
"p  c #2B342C",
"a  c #2B3D2E",
"s  c #363024",
"d  c #3D3125",
"f  c #36312B",
"g  c #3B332B",
"h  c #36382F",
"j  c #3C392E",
"k  c #2D3A31",
"l  c #333532",
"z  c #3D3531",
"x  c #313D32",
"c  c #3E3831",
"v  c #413426",
"b  c #42362A",
"n  c #45392D",
"m  c #493D2E",
"M  c #403730",
"N  c #453B32",
"B  c #4A3E32",
"V  c #2F402E",
"C  c #2F4332",
"Z  c #2F4832",
"A  c #334534",
"S  c #3C4433",
"D  c #374833",
"F  c #394B37",
"G  c #364B3A",
"H  c #3C4D3A",
"J  c #355038",
"K  c #3C533A",
"L  c #3A5C3D",
"P  c #4D412F",
"I  c #434336",
"U  c #4C4234",
"Y  c #4E4835",
"T  c #44453A",
"R  c #4B4539",
"E  c #434B3C",
"W  c #4A4B39",
"Q  c #514535",
"!  c #554937",
"~  c #584E37",
"^  c #534638",
"/  c #554A3A",
"(  c #594D3C",
")  c #41523F",
"_  c #445B3C",
"`  c #56563B",
"'  c #5C533C",
"]  c #5E583E",
"[  c #60573E",
"{  c #615A3F",
"}  c #3D5B41",
"|  c #3E6042",
" . c #514F41",
".. c #5A4F40",
"X. c #475545",
"o. c #4C5443",
"O. c #455A44",
"+. c #4B5D45",
"@. c #4D5749",
"#. c #4C5B4A",
"$. c #545443",
"%. c #5D5342",
"&. c #535B47",
"*. c #5F5A42",
"=. c #515C4C",
"-. c #605643",
";. c #635B44",
":. c #655D49",
">. c #436444",
",. c #4B6644",
"<. c #436B45",
"1. c #4A6C46",
"2. c #4C6349",
"3. c #4A6A4B",
"4. c #536046",
"5. c #5A6643",
"6. c #536C46",
"7. c #54664C",
"8. c #46724B",
"9. c #4C754B",
"0. c #5F7147",
"q. c #50764B",
"w. c #537B4E",
"e. c #4F7A51",
"r. c #666144",
"t. c #686446",
"y. c #666A45",
"u. c #6A6946",
"i. c #60664C",
"p. c #6A644C",
"a. c #6C6A4A",
"s. c #58814F",
"d. c #578254",
"f. c #5B8353",
"g. c #588855",
"h. c #5F8759",
"j. c #5F8E59",
"k. c #618657",
"l. c #628D5C",
"z. c #6B8A59",
"x. c #64925C",
"c. c #6B9361",
"v. c #859B6B",
"b. c #8FA876",
"n. c #9EA77A",
"m. c #9FAC7D",
"M. c white",
/* pixels */
"M.M.M.M.M.M.M.M.M.M.M.M.M.M.M.M.M.M.M.M.M.M.M.M.M.M.M.M.M.M.M.M.M.M.M.M.M.M.M.M.M.M.M.M.M.M.M.M.M.M.M.M.M.M.M.M.M.M.M.M.M.M.M.M.",
"M.M.M.M.M.M.M.M.M.M.M.M.M.M.M.M.M.M.M.M.M.M.M.M.M.M.M.M.M.M.M.M.M.M.M.M.M.M.M.M.M.M.M.M.M.M.M.M.M.M.M.M.M.M.M.M.M.M.M.M.M.M.M.M.",
"M.M.M.M.M.M.M.M.M.M.M.M.M.M.M.M.M.M.M.M.M.M.M.M.M.M.M.M.M.M.M.M.M.M.M.M.M.M.M.M.M.M.M.M.M.M.M.M.M.M.M.M.M.M.M.M.M.M.M.M.M.M.M.M.",
"M.M.M.M.M.M.M.M.M.M.M.M.M.M.M.M.M.M.M.M.M.M.M.M.M.M.M.M.M.M.M.M.M.M.M.M.M.M.M.M.M.M.M.M.M.M.M.M.M.M.M.M.M.M.M.M.M.M.M.M.M.M.M.M.",
"M.M.M.M.M.M.M.M.M.M.M.M.M.M.M.M.M.M.M.M.M.M.M.M.M.M.M.M.M.M.M.M.M.M.M.M.M.M.M.M.M.M.M.M.M.M.M.M.M.M.M.M.M.M.M.M.M.M.M.M.M.M.M.M.",
"M.M.M.M.M.M.M.M.M.M.M.M.M.M.M.M.M.M.M.M.M.M.M.M.M.M.M.M.M.M.M.M.M.M.M.M.M.M.M.M.M.M.M.M.M.M.M.M.M.M.M.M.M.M.M.M.M.M.M.M.M.M.M.M.",
"M.M.M.M.M.M.M.M.M.M.M.M.M.M.M.M.M.M.M.M.M.M.M.M.M.M.M.M.M.M.M.M.M.M.M.M.M.M.M.M.M.M.M.M.M.M.M.M.M.M.M.M.M.M.M.M.M.M.M.M.M.M.M.M.",
"M.M.M.M.M.M.M.M.M.M.M.M.M.M.M.M.M.M.M.M.M.M.M.M.M.M.M.M.M.M.M.M.M.M.M.M.M.M.M.M.M.M.M.M.M.M.M.M.M.M.M.M.M.M.M.M.M.M.M.M.M.M.M.M.",
"M.M.M.M.M.M.M.M.M.M.M.M.M.M.M.M.M.M.M.M.M.M.M.M.M.M.M.M.M.M.M.M.M.M.M.M.M.M.M.M.M.M.M.M.M.M.M.M.M.M.M.M.M.M.M.M.M.M.M.M.M.M.M.M.",
"M.M.M.M.M.M.M.M.M.M.M.M.M.M.M.M.M.M.M.M.M.M.M.M.M.M.M.M.M.M.M.M.M.M.M.M.M.M.M.M.M.M.M.M.M.M.M.M.M.M.M.M.M.M.M.M.M.M.M.M.M.M.M.M.",
"M.M.M.M.M.M.M.M.M.M.M.M.M.M.M.M.M.M.M.M.M.M.M.M.M.M.M.M.M.M.M.M.M.M.M.M.F Z M.M.M.M.M.M.M.M.M.M.M.M.M.M.M.M.M.M.M.M.M.M.M.M.M.M.",
"M.M.M.M.M.M.M.M.M.M.M.M.M.M.M.M.M.M.M.M.M.M.M.M.M.M.M.M.M.M.M.M.M.M.M.D K | M.M.M.M.M.M.M.M.M.M.M.M.M.M.M.M.M.M.M.M.M.M.M.M.M.M.",
"M.M.M.M.M.M.M.M.M.M.M.M.M.M.M.M.M.M.M.M.M.M.M.M.M.m.b.c.l.l.M.M.M.d.j _ <.8.M.M.M.M.M.M.M.M.M.M.M.M.M.M.M.M.M.M.M.M.M.M.M.M.M.M.",
"M.M.M.M.M.M.M.M.M.M.M.M.M.M.M.M.M.M.M.M.M.M.M.n.v.k.g.l.j.x.d.>.q.6.' 5.q.w.M.M.M.M.M.M.M.M.M.M.M.M.M.M.M.M.M.M.M.M.M.M.M.M.M.M.",
"M.M.M.M.M.M.M.M.M.M.M.M.M.M.M.M.M.M.M.M.M.M.M.z.k.j.f.j.x.f.2.7.X.T ] y.w.M.M.M.M.M.M.M.M.M.M.M.M.M.M.M.M.M.M.M.M.M.M.M.M.M.M.M.",
"M.M.M.M.M.M.M.M.M.M.M.M.M.M.M.M.M.M.M.M.M.M.h.d.f.h.f.d.d.w.X.l 2  .' y.w.M.M.M.M.M.M.M.M.M.M.M.M.M.M.M.M.M.M.M.M.M.M.M.M.M.M.M.",
"M.M.M.M.M.M.M.M.M.M.M.M.M.M.M.M.M.M.M.M.M.M.9.w.s.>.K A _ 6.X.$.@ =./ 0.M.M.M.M.M.M.M.M.M.M.M.M.M.M.M.M.M.M.M.M.M.M.M.M.M.M.M.M.",
"M.M.M.M.M.M.M.M.M.M.M.M.M.M.M.M.M.M.M.M.M.8.8.1.,.@.T G K 1.+.S E 2.X.7.M.M.M.M.M.M.M.M.M.M.M.M.M.M.M.M.M.M.M.M.M.M.M.M.M.M.M.M.",
"M.M.M.M.M.M.M.M.M.M.M.M.M.M.M.M.M.M.M.M.d.<.>._ ) 9 * : X.5.=.3.3.#.M.M.M.M.M.M.M.M.M.M.M.M.M.M.M.M.M.M.M.M.M.M.M.M.M.M.M.M.M.M.",
"M.M.M.M.M.M.M.M.M.M.M.M.M.M.M.M.M.s.q.q.w.<.O.F E @ : 7 >._ 3.>.G k M.M.M.M.M.M.M.M.M.M.M.M.M.M.M.M.M.M.M.M.M.M.M.M.M.M.M.M.M.M.",
"M.M.M.M.M.M.M.M.M.M.M.M.M.M.M.,.K V , 0 L L G F &. .T +.1.,.O.p 7 9 M.M.M.M.M.M.M.M.M.M.M.M.M.M.M.M.M.M.M.M.M.M.M.M.M.M.M.M.M.M.",
"M.M.M.M.M.M.M.M.M.M.M.M.h f < < r r 1 ; 3 C k T  .o.+.2.H p p p * 5 R a.M.M.M.M.M.M.M.M.M.M.M.M.M.M.M.M.M.M.M.M.M.M.M.M.M.M.M.M.",
"M.M.M.M.M.M.M.M.M.M.8 i s n P U P v 1 < ; 7 0 l N X.E x 9 p C 7 & 5 / a.M.M.M.M.M.M.M.M.M.M.M.M.M.M.M.M.M.M.M.M.M.M.M.M.M.M.M.M.",
"M.M.M.M.M.M.M.M.M.M.M.M.Y Y Q ! P m r r e 5 2 5 9 q 7 4 5 7 7 * 2 R p.:.M.M.M.M.M.M.M.M.M.M.M.M.M.M.M.M.M.M.M.M.M.M.M.M.M.M.M.M.",
"M.M.M.M.M.M.M.M.M.M.M.M.M.` ! / P P v m c I k & & * * * 2 & & 4 $.p.p.:.%.M.M.M.M.M.M.M.M.M.M.M.M.M.M.M.M.M.M.M.M.M.M.M.M.M.M.M.",
"M.M.M.M.M.M.M.M.M.M.M.M.M.M.M.r.[ ~ U Q N c R B 6 % * : y / ;.%.%.;.:.:.:.M.M.M.M.M.M.M.M.M.M.M.M.M.M.M.M.M.M.M.M.M.M.M.M.M.M.M.",
"M.M.M.M.M.M.M.M.M.M.M.M.M.M.M.M.M.M.M.M.M.B Q ( %./ ~ %.( %.( ( ..%.%.:.:.M.M.M.M.M.M.M.M.M.M.M.M.M.M.M.M.M.M.M.M.M.M.M.M.M.M.M.",
"M.M.M.M.M.M.M.M.M.M.M.M.M.M.M.M.M.M.M.M.M.N B B ^ ..' / ^ ( ^ ( %...-.-.%.M.M.M.M.M.M.M.M.M.M.M.M.M.M.M.M.M.M.M.M.M.M.M.M.M.M.M.",
"M.M.M.M.M.M.M.M.M.M.M.M.M.M.M.M.M.M.M.M.M.B B B n N Q ^ ^ ^ m / ..%.%.' N M.M.M.M.M.M.M.M.M.M.M.M.M.M.M.M.M.M.M.M.M.M.M.M.M.M.M.",
"M.M.M.M.M.M.M.M.M.M.M.M.M.M.M.M.M.M.M.M.M.N B B B B Q ^ ^ ( B B ( ..%.n B M.M.M.M.M.M.M.M.M.M.M.M.M.M.M.M.M.M.M.M.M.M.M.M.M.M.M.",
"M.M.M.M.M.M.M.M.M.M.M.M.M.M.M.M.M.M.M.M.M.t z B ^ ^ ( ( ^ ^ b ^ ^ B g m B U -.M.M.M.M.M.M.M.M.M.M.M.M.M.M.M.M.M.M.M.M.M.M.M.M.M.",
"M.M.M.M.M.M.M.M.M.M.M.M.M.M.M.M.M.M.M.M.M.; * 3 e N B ^ B ^ m B w 6 y b ^ / N M.M.M.M.M.M.M.M.M.M.M.M.M.M.M.M.M.M.M.M.M.M.M.M.M.",
"M.M.M.M.M.M.M.M.M.M.M.M.M.M.M.M.M.M.M.M.B v B y # 3 6 y e ; - * , 6 1 r w e m :.M.M.M.M.M.M.M.M.M.M.M.M.M.M.M.M.M.M.M.M.M.M.M.M.",
"M.M.M.M.M.M.M.M.M.M.M.M.M.M.M.M.M.M.M.-.B Q n B m ; 5 y ; = , , b m v < r n ] ;.' R M.M.M.M.M.M.M.M.M.M.M.M.M.M.M.M.M.M.M.M.M.M.",
"M.M.M.M.M.M.M.M.M.M.M.M.M.M.M.M.M.M.M.~ B B ^ w ( U , = ; 5 < e m ^ b Q ! ( ' [ m m M.M.M.M.M.M.M.M.M.M.M.M.M.M.M.M.M.M.M.M.M.M.",
"M.M.M.M.M.M.M.M.M.M.M.M.M.M.M.M.M.M.;.^ ( B n b n / ( g r n n g Q ! ! [ ~ [ ~ ' g U M.M.M.M.M.M.M.M.M.M.M.M.M.M.M.M.M.M.M.M.M.M.",
"M.M.M.M.M.M.M.M.M.M.M.M.M.M.M.M.M.M.:.( ( y w ; y Q / ( / ( Q g ^ Q ! [ [ ' [ ' h ( U M.M.M.M.M.M.M.M.M.M.M.M.M.M.M.M.M.M.M.M.M.",
"M.M.M.M.M.M.M.M.M.M.M.M.M.M.M.M.M.%.( ( N = 3 3 6 Q n b U Q m n Q Q ^ { ;.[ { ! U ~ U M.M.M.M.M.M.M.M.M.M.M.M.M.M.M.M.M.M.M.M.M.",
"M.M.M.M.M.M.M.M.M.M.M.M.M.M.M.M.M.^ B ^ B b ; 3 3 B b w v B U B B B Q { ;.{ [ n ^ :.a.M.M.M.M.M.M.M.M.M.M.M.M.M.M.M.M.M.M.M.M.M.",
"M.M.M.M.M.M.M.M.M.M.M.M.M.M.M.M.M./ / y ^ Q y = ; Q ^ n e n Q B n b b m ( ' ~ y U -.:.M.M.M.M.M.M.M.M.M.M.M.M.M.M.M.M.M.M.M.M.M.",
"M.M.M.M.M.M.M.M.M.M.M.M.M.M.M.M.M.^ ( n v N y 3 $ N / n e e m g d r v v v v Q n U %.:.-.M.M.M.M.M.M.M.M.M.M.M.M.M.M.M.M.M.M.M.M.",
"M.M.M.M.M.M.M.M.M.M.M.M.M.M.M.M.M.B Q ^ b y e e , g / b r , y e e v 1 v n Q m ~ B N c B M.M.M.M.M.M.M.M.M.M.M.M.M.M.M.M.M.M.M.M.",
"M.M.M.M.M.M.M.M.M.M.M.M.M.M.M.M.M.-...( ( B y 3 8 g U b d r w e r r r m Q ~ g ;.8 @   o $ M.M.M.M.M.M.M.M.M.M.M.M.M.M.M.M.M.M.M.",
"M.M.M.M.M.M.M.M.M.M.M.M.M.M.M.M.M...^ ....^ y 6 g w ~ n m m , r b b m ! ( ! e ;.h a u O & M.M.M.M.M.M.M.M.M.M.M.M.M.M.M.M.M.M.M.",
"M.M.M.M.M.M.M.M.M.M.M.M.M.M.M.M.M.^ U / ^ B g 3 g 6 ! P m b d b Q m Q / ! y y t.n } <.u * M.M.M.M.M.M.M.M.M.M.M.M.M.M.M.M.M.M.M.",
"M.M.M.M.M.M.M.M.M.M.M.M.M.M.M.M.R c y t t z f e g w U m Q U b v b n m Q b e U u.R F L <.$ M.M.M.M.M.M.M.M.M.M.M.M.M.M.M.M.M.M.M.",
"M.M.M.M.M.M.M.M.M.M.M.M.M.M.M...y @ X o @ O - 3 n d m U Q ] U U Q ! m ^ ] ;.;.u.W ; V q.M.M.M.M.M.M.M.M.M.M.M.M.M.M.M.M.M.M.M.M.",
"M.M.M.M.M.M.M.M.M.M.M.M.M.M.M...B 6 O % & 7 7 e b b w ( ( Q %.U ! ~ Q U ;.' { r.U + O.1.M.M.M.M.M.M.M.M.M.M.M.M.M.M.M.M.M.M.M.M.",
"M.M.M.M.M.M.M.M.M.M.M.M.M.M.M.g 5 - + % a L L e n n 6 B U m ' B -.;./ [ { r.-.;.U w g M.M.M.M.M.M.M.M.M.M.M.M.M.M.M.M.M.M.M.M.M.",
"M.M.M.M.M.M.M.M.M.M.M.M.M.M.M.n y * # * J <.L q b n d 6 Y ;./ T :.p./ ;.;.:.[ ;.*.` Y M.M.M.M.M.M.M.M.M.M.M.M.M.M.M.M.M.M.M.M.M.",
"M.M.M.M.M.M.M.M.M.M.M.M.M.M.M.N ^ B g q J | i j B N U / ;.~ f N -.:.-.-.;.[ %.] ;.r.a.M.M.M.M.M.M.M.M.M.M.M.M.M.M.M.M.M.M.M.M.M.",
"M.M.M.M.M.M.M.M.M.M.M.M.M.M.M.M.^ ..Q l L 8.u f Q / -.-.t.*.U N -.-.;.-.;.{ *.] ] r.t.y.t.;.M.M.M.M.M.M.M.M.M.M.M.M.M.M.M.M.M.M.",
"M.M.M.M.M.M.M.M.M.M.M.M.M.M.M.M.f ^ B N >.F W B ;.%.( ^ / -.;.%.^ ( ( ^ U ' r.t.r.t.r.;.%.^ M.M.M.M.M.M.M.M.M.M.M.M.M.M.M.M.M.M.",
"M.M.M.M.M.M.M.M.M.M.M.M.M.M.M.M.2 l N  .R ( ..( %.( / ^ U Q Q ! U Q Q Q d e N / U g g g Q N M.M.M.M.M.M.M.M.M.M.M.M.M.M.M.M.M.M.",
"M.M.M.M.M.M.M.M.M.M.M.M.M.M.M.% + 2 2 9 z N N N B B B B U ^ B B g B B n m , , * # > = ; b 8 M.M.M.M.M.M.M.M.M.M.M.M.M.M.M.M.M.M.",
"M.M.M.M.M.M.M.M.M.M.M.M.% @ % O + + 2 % % & # % # = - 5 ; - * - 3 y n d t t - * , e d e 3 8 5 $ % @ & * 3 M.M.M.M.M.M.M.M.M.M.M.",
"M.M.M.M.M.M.M.M.M.M.@ % 2 2 2 O % % @ @ % 2 + 3 = - - = % $ @ - # ; 8 9 + % + & 3 e t 5 ; 5 6 % % 2 + 2 2 2 M.M.M.M.M.M.M.M.M.M.",
"M.M.M.M.M.M.M.M.M.% % + % O 2 2 2 3 3 2 2 q N N B B g 3 5 f 5 y e % & @ + + + + % 3 & @ + @ - % @ 2 + 2 % & & M.M.M.M.M.M.M.M.M.",
"M.M.M.M.M.M.M.M.O O @ 2 O O O 2 % 2 3 2 % 3 f f t t M % + @ % h g q 2 2 * & + O % & * O + + @ @ % % @ % 2 % * * M.M.M.M.M.M.M.M.",
"M.M.M.M.M.M.M.M.. O % + O O O O O % 2 O % % 2 @ * - = 5 % @ * 5 & - & @ & + % o % 3 % % + + + % O @ % 2 % % y 3 M.M.M.M.M.M.M.M.",
"M.M.M.M.M.M.M.M.X X + + O O % X @ % @ + X X o w N M t z z f 3 * * * @ @ 2 % @ @ + # & 2 @ q - & % @ % 3 3 2 & 3 3 M.M.M.M.M.M.M.",
"M.M.M.M.M.M.M.M.X X O + O O O O @ + % + @ & & 3 6 3 g w $ 5 t * > & O @ + @ * % o o + & & t c U z & 2 3 5 3 * % 2 M.M.M.M.M.M.M.",
"M.M.M.M.M.M.M.O O X O + + O O 2 @ o o & @ O @ 9 t b t t t 6 t % % % @ @ % % 2 5 o + @ + O 3 6 6 w t t z 2 3 9 6 & M.M.M.M.M.M.M.",
"M.M.M.M.M.M.M.O O 2 @ O O % & 2 # 3 3 * O & * z y 9 8 9 6 9 * @ % % % O & @ % % + o + @ * @ 3 3 & % 2 2 & 2 & & % M.M.M.M.M.M.M."
};
