/* XPM */
static char *result[] = {
/* columns rows colors chars-per-pixel */
"64 64 133 2 ",
"   c #07060A",
".  c #08070A",
"X  c #0B0A0E",
"o  c #120F0F",
"O  c #0E0D12",
"+  c #100F14",
"@  c #0F1014",
"#  c #131116",
"$  c #1A1616",
"%  c #15141A",
"&  c #19171B",
"*  c #1C191D",
"=  c #231D1D",
"-  c #1E211F",
";  c #25211E",
":  c #2B221E",
">  c #2C291F",
",  c #36291E",
"<  c #1D1C21",
"1  c #221E21",
"2  c #1F2622",
"3  c #242223",
"4  c #2B2523",
"5  c #242A25",
"6  c #2E2925",
"7  c #252F28",
"8  c #2B2B2B",
"9  c #312721",
"0  c #332A24",
"q  c #392E24",
"w  c #342D2A",
"e  c #382F29",
"r  c #253024",
"t  c #263529",
"y  c #2A332C",
"u  c #273F28",
"i  c #2C3B2E",
"p  c #3D3125",
"a  c #35322B",
"s  c #3B332B",
"d  c #303D2C",
"f  c #3D3A2D",
"g  c #2F3D30",
"h  c #353432",
"j  c #3D3530",
"k  c #303F34",
"l  c #413426",
"z  c #42362B",
"x  c #45392D",
"c  c #4A3D2E",
"v  c #453B31",
"b  c #4A3E32",
"n  c #2B442E",
"m  c #2F4033",
"M  c #364432",
"N  c #3B4234",
"B  c #344B35",
"V  c #3E463A",
"C  c #364D3A",
"Z  c #3B4E3C",
"A  c #3B5337",
"S  c #36553B",
"D  c #3D553D",
"F  c #375A3C",
"G  c #3B5B3D",
"H  c #464036",
"J  c #4D4233",
"K  c #40463A",
"L  c #4B4439",
"P  c #424C3B",
"I  c #4D4A3D",
"U  c #514535",
"Y  c #554A36",
"T  c #534739",
"R  c #554A3A",
"E  c #594D3C",
"W  c #425637",
"Q  c #43523F",
"!  c #4D563E",
"~  c #445A3D",
"^  c #56503E",
"/  c #5C533D",
"(  c #5C5A3E",
")  c #60573F",
"_  c #615B3F",
"`  c #3F5E40",
"'  c #3D6342",
"]  c #444B40",
"[  c #494D43",
"{  c #504F41",
"}  c #5B4F40",
"|  c #4C5546",
" . c #435E44",
".. c #4A5C45",
"X. c #4E5E48",
"o. c #505544",
"O. c #5D5342",
"+. c #535B44",
"@. c #515A4C",
"#. c #605743",
"$. c #635B43",
"%. c #655C4A",
"&. c #436443",
"*. c #4A6444",
"=. c #436C45",
"-. c #4B6A43",
";. c #4C644B",
":. c #496B4A",
">. c #53664D",
",. c #4B754B",
"<. c #527247",
"1. c #5C7047",
"2. c #54764F",
"3. c #5F7048",
"4. c #537A4C",
"5. c #4F7C51",
"6. c #517C50",
"7. c #666144",
"8. c #696546",
"9. c #6A6947",
"0. c #666149",
"q. c #6A644B",
"w. c #636452",
"e. c #5A814F",
"r. c #548151",
"t. c #5B8454",
"y. c #5F8C57",
"u. c #5E8B59",
"i. c #648D5B",
"p. c #64915D",
"a. c #779D6A",
"s. c #8BA373",
"d. c white",
/* pixels */
"d.d.d.d.d.d.d.d.d.d.d.d.d.d.d.d.d.d.d.d.d.d.d.d.d.d.d.d.d.d.d.d.d.d.d.d.d.d.d.d.d.d.d.d.d.d.d.d.d.d.d.d.d.d.d.d.d.d.d.d.d.d.d.d.",
"d.d.d.d.d.d.d.d.d.d.d.d.d.d.d.d.d.d.d.d.d.d.d.d.d.d.d.d.d.d.d.d.d.d.d.d.d.d.d.d.d.d.d.d.d.d.d.d.d.d.d.d.d.d.d.d.d.d.d.d.d.d.d.d.",
"d.d.d.d.d.d.d.d.d.d.d.d.d.d.d.d.d.d.d.d.d.d.d.d.d.d.d.d.d.d.d.d.d.d.d.d.d.d.d.d.d.d.d.d.d.d.d.d.d.d.d.d.d.d.d.d.d.d.d.d.d.d.d.d.",
"d.d.d.d.d.d.d.d.d.d.d.d.d.d.d.d.d.d.d.d.d.d.d.d.d.d.d.d.d.d.d.d.d.d.d.d.d.d.d.d.d.d.d.d.d.d.d.d.d.d.d.d.d.d.d.d.d.d.d.d.d.d.d.d.",
"d.d.d.d.d.d.d.d.d.d.d.d.d.d.d.d.d.d.d.d.d.d.d.d.d.d.d.d.d.d.d.d.d.d.d.d.d.d.d.d.d.d.d.d.d.d.d.d.d.d.d.d.d.d.d.d.d.d.d.d.d.d.d.d.",
"d.d.d.d.d.d.d.d.d.d.d.d.d.d.d.d.d.d.d.d.d.d.d.d.d.d.d.d.d.d.d.d.d.d.d.d.d.d.d.d.d.d.d.d.d.d.d.d.d.d.d.d.d.d.d.d.d.d.d.d.d.d.d.d.",
"d.d.d.d.d.d.d.d.d.d.d.d.d.d.d.d.d.d.d.d.d.d.d.d.d.d.d.d.d.d.d.d.d.d.d.d.d.d.d.d.d.d.d.d.d.d.d.d.d.d.d.d.d.d.d.d.d.d.d.d.d.d.d.d.",
"d.d.d.d.d.d.d.d.d.d.d.d.d.d.d.d.d.d.d.d.d.d.d.d.d.d.d.d.d.d.d.d.d.d.d.d.d.d.d.d.d.d.d.d.d.d.d.d.d.d.d.d.d.d.d.d.d.d.d.d.d.d.d.d.",
"d.d.d.d.d.d.d.d.d.d.d.d.d.d.d.d.d.d.d.d.d.d.d.d.d.d.d.d.d.d.d.d.d.d.d.d.d.d.d.d.d.d.d.d.d.d.d.d.d.d.d.d.d.d.d.d.d.d.d.d.d.d.d.d.",
"d.d.d.d.d.d.d.d.d.d.d.d.d.d.d.d.d.d.d.d.d.d.d.d.d.d.d.d.d.d.d.d.d.d.d.d.d.d.d.d.d.d.d.d.d.d.d.d.d.d.d.d.d.d.d.d.d.d.d.d.d.d.d.d.",
"d.d.d.d.d.d.d.d.d.d.d.d.d.d.d.d.d.d.d.d.d.d.d.d.d.d.d.d.d.d.d.d.d.d.d.d.d.d.d.d.d.d.d.d.d.d.d.d.d.d.d.d.d.d.d.d.d.d.d.d.d.d.d.d.",
"d.d.d.d.d.d.d.d.d.d.d.d.d.d.d.d.d.d.d.d.d.d.d.d.d.d.d.d.d.d.d.d.d.d.d.d.d.d.d.d.d.d.d.d.d.d.d.d.d.d.d.d.d.d.d.d.d.d.d.d.d.d.d.d.",
"d.d.d.d.d.d.d.d.d.d.d.d.d.d.d.d.d.d.d.d.d.d.d.d.d.d.d.d.d.d.d.d.d.d.d.d.d.d.~ i d.d.d.d.d.d.d.d.d.d.d.d.d.d.d.d.d.d.d.d.d.d.d.d.",
"d.d.d.d.d.d.d.d.d.d.d.d.d.d.d.d.d.d.d.d.d.d.d.d.d.d.d.s.a.p.p.d.d.d.d.d.,.M B S d.d.d.d.d.d.d.d.d.d.d.d.d.d.d.d.d.d.d.d.d.d.d.d.",
"d.d.d.d.d.d.d.d.d.d.d.d.d.d.d.d.d.d.d.d.d.d.d.d.d.s.i.i.u.p.p.u.:.d.p.D f W &.d.d.d.d.d.d.d.d.d.d.d.d.d.d.d.d.d.d.d.d.d.d.d.d.d.",
"d.d.d.d.d.d.d.d.d.d.d.d.d.d.d.d.d.d.d.d.d.d.d.d.i.i.i.i.y.i.y.-.>.@.*.b ( -.,.d.d.d.d.d.d.d.d.d.d.d.d.d.d.d.d.d.d.d.d.d.d.d.d.d.",
"d.d.d.d.d.d.d.d.d.d.d.d.d.d.d.d.d.d.d.d.d.d.d.d.t.t.t.&.&.,.<.&.[ < N R 7.1.,.d.d.d.d.d.d.d.d.d.d.d.d.d.d.d.d.d.d.d.d.d.d.d.d.d.",
"d.d.d.d.d.d.d.d.d.d.d.d.d.d.d.d.d.d.d.d.d.d.d.r.4.4...| Z G <.~ w.3 P L 7.3.5.d.d.d.d.d.d.d.d.d.d.d.d.d.d.d.d.d.d.d.d.d.d.d.d.d.",
"d.d.d.d.d.d.d.d.d.d.d.d.d.d.d.d.d.d.d.d.d.d.,.,.....V 2 y Z -.>.N N ..| ( 4.d.d.d.d.d.d.d.d.d.d.d.d.d.d.d.d.d.d.d.d.d.d.d.d.d.d.",
"d.d.d.d.d.d.d.d.d.d.d.d.d.d.d.d.d.d.e.4.,.r.,.:.D Q 3 a o Z +.! :.;.;.] d.d.d.d.d.d.d.d.d.d.d.d.d.d.d.d.d.d.d.d.d.d.d.d.d.d.d.d.",
"d.d.d.d.d.d.d.d.d.d.d.d.d.d.*.` A M n , r G &.G Z +.[ a V ;.:.:.&.C k d.d.d.d.d.d.d.d.d.d.d.d.d.d.d.d.d.d.d.d.d.d.d.d.d.d.d.d.d.",
"d.d.d.d.d.d.d.d.d.d.d.d.6 > q p l x l , : ; B g P { o...;.;...V y 5 5 d.d.d.d.d.d.d.d.d.d.d.d.d.d.d.d.d.d.d.d.d.d.d.d.d.d.d.d.d.",
"d.d.d.d.d.d.d.d.d.d.d.d.d.N L Y / Y J p , : 5 y h [ { X.Q y 5 d y 2 < b d.d.d.d.d.d.d.d.d.d.d.d.d.d.d.d.d.d.d.d.d.d.d.d.d.d.d.d.",
"d.d.d.d.d.d.d.d.d.d.d.d.d.d.! R ) Y b l l s 4 5 8 8 h y 3 r i i 5 & < T q.d.d.d.d.d.d.d.d.d.d.d.d.d.d.d.d.d.d.d.d.d.d.d.d.d.d.d.",
"d.d.d.d.d.d.d.d.d.d.d.d.d.d.d./ ) E U x b v z 8 < < 2 < 3 5 5 5 < & I 8.%.d.d.d.d.d.d.d.d.d.d.d.d.d.d.d.d.d.d.d.d.d.d.d.d.d.d.d.",
"d.d.d.d.d.d.d.d.d.d.d.d.d.d.d.d.d._ / c } b k k 4 % & * 3 * % $ 3 { q.0.$.O.d.d.d.d.d.d.d.d.d.d.d.d.d.d.d.d.d.d.d.d.d.d.d.d.d.d.",
"d.d.d.d.d.d.d.d.d.d.d.d.d.d.d.d.d.d.d.d.d.d.b R R H 6 6 e v #.%.O.O.O.%.$.%.d.d.d.d.d.d.d.d.d.d.d.d.d.d.d.d.d.d.d.d.d.d.d.d.d.d.",
"d.d.d.d.d.d.d.d.d.d.d.d.d.d.d.d.d.d.d.d.d.d.b b E O.O.O.E E #.} E O.O.O.%.%.d.d.d.d.d.d.d.d.d.d.d.d.d.d.d.d.d.d.d.d.d.d.d.d.d.d.",
"d.d.d.d.d.d.d.d.d.d.d.d.d.d.d.d.d.d.d.d.d.d.b b c J T E R R R b } } O.$.O.O.d.d.d.d.d.d.d.d.d.d.d.d.d.d.d.d.d.d.d.d.d.d.d.d.d.d.",
"d.d.d.d.d.d.d.d.d.d.d.d.d.d.d.d.d.d.d.d.d.d.b b b x b b T T R c R } } #.} v d.d.d.d.d.d.d.d.d.d.d.d.d.d.d.d.d.d.d.d.d.d.d.d.d.d.",
"d.d.d.d.d.d.d.d.d.d.d.d.d.d.d.d.d.d.d.d.d.d.v b J J U R R R E c b } } E z J d.d.d.d.d.d.d.d.d.d.d.d.d.d.d.d.d.d.d.d.d.d.d.d.d.d.",
"d.d.d.d.d.d.d.d.d.d.d.d.d.d.d.d.d.d.d.d.d.d.1 e s J R E E T T x T R v s v b J O.d.d.d.d.d.d.d.d.d.d.d.d.d.d.d.d.d.d.d.d.d.d.d.d.",
"d.d.d.d.d.d.d.d.d.d.d.d.d.d.d.d.d.d.d.d.d.d.0 1 = 1 s b c b b x l 1 9 0 x U R c d.d.d.d.d.d.d.d.d.d.d.d.d.d.d.d.d.d.d.d.d.d.d.d.",
"d.d.d.d.d.d.d.d.d.d.d.d.d.d.d.d.d.d.d.d.d.b z c z 1 = = 0 4 $ = = 9 , q q 1 q T 0.d.d.d.d.d.d.d.d.d.d.d.d.d.d.d.d.d.d.d.d.d.d.d.",
"d.d.d.d.d.d.d.d.d.d.d.d.d.d.d.d.d.d.d.d.#.T U c b b = 9 0 = = : : c c q , l b #._ Y L d.d.d.d.d.d.d.d.d.d.d.d.d.d.d.d.d.d.d.d.d.",
"d.d.d.d.d.d.d.d.d.d.d.d.d.d.d.d.d.d.d.d.E c c T 0 E U = = : 9 0 e c Y c Y Y / E / x J d.d.d.d.d.d.d.d.d.d.d.d.d.d.d.d.d.d.d.d.d.",
"d.d.d.d.d.d.d.d.d.d.d.d.d.d.d.d.d.d.d.$.T R b x l c R E z z J x x T Y Y / E / / / p H d.d.d.d.d.d.d.d.d.d.d.d.d.d.d.d.d.d.d.d.d.",
"d.d.d.d.d.d.d.d.d.d.d.d.d.d.d.d.d.d.d.%.} R 0 = = w T E E E Y J z U R Y ) ) ) ) R f Y c d.d.d.d.d.d.d.d.d.d.d.d.d.d.d.d.d.d.d.d.",
"d.d.d.d.d.d.d.d.d.d.d.d.d.d.d.d.d.d.d.Y Y z = 4 1 9 b l p J U b x U U E $.$./ _ J Y O.E d.d.d.d.d.d.d.d.d.d.d.d.d.d.d.d.d.d.d.d.",
"d.d.d.d.d.d.d.d.d.d.d.d.d.d.d.d.d.d.E U R x z 4 = 4 b c 0 p b U b b c c _ _ _ ) s R $.q.d.d.d.d.d.d.d.d.d.d.d.d.d.d.d.d.d.d.d.d.",
"d.d.d.d.d.d.d.d.d.d.d.d.d.d.d.d.d.d.R R q R b 0 = 4 U R l 0 x U v x x z c Y Y Y q U #.%.d.d.d.d.d.d.d.d.d.d.d.d.d.d.d.d.d.d.d.d.",
"d.d.d.d.d.d.d.d.d.d.d.d.d.d.d.d.d.d.U E z q z w 9 $ L U z 0 q x e q l q l p l J U U E $.#.d.d.d.d.d.d.d.d.d.d.d.d.d.d.d.d.d.d.d.",
"d.d.d.d.d.d.d.d.d.d.d.d.d.d.d.d.d.d.J R T c w 0 0 = v U z , : w 0 q q 9 z c R b E v q 9 s d.d.d.d.d.d.d.d.d.d.d.d.d.d.d.d.d.d.d.",
"d.d.d.d.d.d.d.d.d.d.d.d.d.d.d.d.d.d.O.R } } b 0 9 6 s U z l q 4 q , 0 l b U Y s 7.= % . X % d.d.d.d.d.d.d.d.d.d.d.d.d.d.d.d.d.d.",
"d.d.d.d.d.d.d.d.d.d.d.d.d.d.d.d.d.d.} } } } b j 4 a w U c c c : l J x U Y E b e $.a B n X $ d.d.d.d.d.d.d.d.d.d.d.d.d.d.d.d.d.d.",
"d.d.d.d.d.d.d.d.d.d.d.d.d.d.d.d.d.d.T b T b v j 4 s 9 R x c l z l c U U Y U 9 j 9.f &.=.n * d.d.d.d.d.d.d.d.d.d.d.d.d.d.d.d.d.d.",
"d.d.d.d.d.d.d.d.d.d.d.d.d.d.d.d.d.b w 8 1 4 e e 4 z 9 U c U U x x c l x Y z x E 9.H M G =.d.d.d.d.d.d.d.d.d.d.d.d.d.d.d.d.d.d.d.",
"d.d.d.d.d.d.d.d.d.d.d.d.d.d.d.d.} j # . # % O & : x w c U U _ J c R U c T ) $.$.8.L $ M ,.d.d.d.d.d.d.d.d.d.d.d.d.d.d.d.d.d.d.d.",
"d.d.d.d.d.d.d.d.d.d.d.d.d.d.d.d.E b 4 X % * t r e z l p ^ E J ^ U ^ E J ^ _ / _ 7.x # *.d.d.d.d.d.d.d.d.d.d.d.d.d.d.d.d.d.d.d.d.",
"d.d.d.d.d.d.d.d.d.d.d.d.d.d.d.d.s = & + * n ' G w z x 4 v c J / J $.%.R _ _ %.#.$.J 6 p d.d.d.d.d.d.d.d.d.d.d.d.d.d.d.d.d.d.d.d.",
"d.d.d.d.d.d.d.d.d.d.d.d.d.d.d.d.x e = # 2 F ' D 6 x x a 0 / 0.x T $.q.E 8._ $.) _ $.O.( d.d.d.d.d.d.d.d.d.d.d.d.d.d.d.d.d.d.d.d.",
"d.d.d.d.d.d.d.d.d.d.d.d.d.d.d.d.b E c s i F =.6 x v c T $.( Y w H #.%.#.#.$._ / ) ( 8.8.d.d.d.d.d.d.d.d.d.d.d.d.d.d.d.d.d.d.d.d.",
"d.d.d.d.d.d.d.d.d.d.d.d.d.d.d.d.d.R E R N ' =.5 p L O.#.O.0.$.T L O.#.#.$.$.$.$.$.) $.8.8.7.( d.d.d.d.d.d.d.d.d.d.d.d.d.d.d.d.d.",
"d.d.d.d.d.d.d.d.d.d.d.d.d.d.d.d.d.j L L j ` P L } $.O.} U U / #.O.R R R L x T 7.8.8.$._ O.O.U d.d.d.d.d.d.d.d.d.d.d.d.d.d.d.d.d.",
"d.d.d.d.d.d.d.d.d.d.d.d.d.d.d.d.d.< h v I L T } } } R U U J U U U b J U U p 6 x x e 9 : s J s d.d.d.d.d.d.d.d.d.d.d.d.d.d.d.d.d.",
"d.d.d.d.d.d.d.d.d.d.d.d.d.d.d.< @ + < < 4 s j z z v v v b J L b x e x b x c : = * $ : : = w 9 3 9 9 d.d.d.d.d.d.d.d.d.d.d.d.d.d.",
"d.d.d.d.d.d.d.d.d.d.d.% % % < @ O O @ % # + % + o + # * = & & = = = s x a 6 6 = 3 : p p w = 8 = % % + < < < 1 d.d.d.d.d.d.d.d.d.",
"d.d.d.d.d.d.d.d.d.d.& O & < < < % % < % % < < + : 4 , 1 = * # + = & = 3 3 + O O # 1 4 8 = = 3 4 # % < % % < < < < d.d.d.d.d.d.d.",
"d.d.d.d.d.d.d.d.d.d.O % O < O % < % 3 4 < < e b b U b z % 1 e 4 e a 3 & # + + + + # 1 # + X $ * % % % # < % % % % & d.d.d.d.d.d.",
"d.d.d.d.d.d.d.d.d.O # % < O @ + < % < 1 % % 3 8 w 1 w e + + # % s w 4 & & 3 # + O & & & + + O O % + % % % % & 3 4 % & d.d.d.d.d.",
"d.d.d.d.d.d.d.d.d.  X % O + + O + # # % O % % # * ; 3 = 6 & & 1 1 & < % % % @ & + % 1 & & O O % % + + % 1 & < 4 1 % & d.d.d.d.d.",
"d.d.d.d.d.d.d.d.d.X X + + + + + O # % + O . . + 9 v z w e j e & < = 1 @ % & % @ + O + % * * a w 4 & # % 1 3 & & * 1 # d.d.d.d.d.",
"d.d.d.d.d.d.d.d.+ O   + O X X O + + + % # % % & 1 6 4 z 6 1 6 w & * % @ % @ % < # o O O & % 6 w b x 1 1 * 1 3 * % * & O d.d.d.d.",
"d.d.d.d.d.d.d.d.O O X + + + O % & # O X < O + % e w j 6 w 6 4 9 & % @ @ % % & < 3 X # % # @ 1 6 4 1 9 q j < 1 4 4 * & < d.d.d.d."
};
