/* XPM */
static char *result[] = {
/* columns rows colors chars-per-pixel */
"64 64 138 2 ",
"   c #070607",
".  c #070608",
"X  c #08070B",
"o  c #0C0A0E",
"O  c #120E0E",
"+  c #0E0D13",
"@  c #100F15",
"#  c #131116",
"$  c #1A1516",
"%  c #15141A",
"&  c #19171B",
"*  c #1C1A1C",
"=  c #231D1D",
"-  c #281F1C",
";  c #1D201D",
":  c #25211E",
">  c #2C231E",
",  c #32251C",
"<  c #37291D",
"1  c #1E1C20",
"2  c #221E21",
"3  c #1F3022",
"4  c #242223",
"5  c #2B2523",
"6  c #242C25",
"7  c #2D2A24",
"8  c #262D2A",
"9  c #2D2B2A",
"0  c #302724",
"q  c #332A24",
"w  c #392E25",
"e  c #332D29",
"r  c #382F2A",
"t  c #213423",
"y  c #293027",
"u  c #2A352B",
"i  c #2C3A2C",
"p  c #3D3226",
"a  c #36332B",
"s  c #3B322B",
"d  c #323E2E",
"f  c #3F382E",
"g  c #333330",
"h  c #3C3531",
"j  c #343B33",
"k  c #3F3932",
"l  c #413526",
"z  c #42362A",
"x  c #45392D",
"c  c #493C2E",
"v  c #413730",
"b  c #453C32",
"n  c #4A3E32",
"m  c #2F4132",
"M  c #314233",
"N  c #3B4533",
"B  c #324B34",
"V  c #3A4C37",
"C  c #364D3A",
"Z  c #3B4C3A",
"A  c #3A533B",
"S  c #3B5C3E",
"D  c #4D4234",
"F  c #4B4934",
"G  c #434438",
"H  c #4A4539",
"J  c #454C3B",
"K  c #4D4C39",
"L  c #524535",
"P  c #534936",
"I  c #594E37",
"U  c #534638",
"Y  c #554A3A",
"T  c #594D3C",
"R  c #44563D",
"E  c #455E3F",
"W  c #4F5B3D",
"Q  c #57523A",
"!  c #5D533D",
"~  c #5D593E",
"^  c #60573F",
"/  c #615B3E",
"(  c #4F613C",
")  c #3F4F41",
"_  c #3B5640",
"`  c #3E5B41",
"'  c #554F41",
"]  c #5B4F40",
"[  c #445242",
"{  c #4D5243",
"}  c #455D43",
"|  c #4B5B46",
" . c #495B48",
".. c #535443",
"X. c #5D5342",
"o. c #525A47",
"O. c #5D5A42",
"+. c #515C49",
"@. c #605744",
"#. c #635B44",
"$. c #655C49",
"%. c #446444",
"&. c #496245",
"*. c #436B45",
"=. c #4A6C46",
"-. c #476348",
";. c #4B6449",
":. c #476A4A",
">. c #4F6B4C",
",. c #516244",
"<. c #5D6C44",
"1. c #52614D",
"2. c #46734A",
"3. c #4C754B",
"4. c #4E794F",
"5. c #54764E",
"6. c #5D754A",
"7. c #537C4D",
"8. c #507750",
"9. c #527C51",
"0. c #666244",
"q. c #686345",
"w. c #626E46",
"e. c #6A6946",
"r. c #6A644B",
"t. c #6C6949",
"y. c #58814F",
"u. c #558352",
"i. c #5C8555",
"p. c #5F8C59",
"a. c #638C5B",
"s. c #62915C",
"d. c #6D9362",
"f. c #809F6E",
"g. c #92A575",
"h. c #98A97D",
"j. c #A6AE81",
"k. c white",
/* pixels */
"k.k.k.k.k.k.k.k.k.k.k.k.k.k.k.k.k.k.k.k.k.k.k.k.k.k.k.k.k.k.k.k.k.k.k.k.k.k.k.k.k.k.k.k.k.k.k.k.k.k.k.k.k.k.k.k.k.k.k.k.k.k.k.k.",
"k.k.k.k.k.k.k.k.k.k.k.k.k.k.k.k.k.k.k.k.k.k.k.k.k.k.k.k.k.k.k.k.k.k.k.k.k.k.k.k.k.k.k.k.k.k.k.k.k.k.k.k.k.k.k.k.k.k.k.k.k.k.k.k.",
"k.k.k.k.k.k.k.k.k.k.k.k.k.k.k.k.k.k.k.k.k.k.k.k.k.k.k.k.k.k.k.k.k.k.k.k.k.k.k.k.k.k.k.k.k.k.k.k.k.k.k.k.k.k.k.k.k.k.k.k.k.k.k.k.",
"k.k.k.k.k.k.k.k.k.k.k.k.k.k.k.k.k.k.k.k.k.k.k.k.k.k.k.k.k.k.k.k.k.k.k.k.k.k.k.k.k.k.k.k.k.k.k.k.k.k.k.k.k.k.k.k.k.k.k.k.k.k.k.k.",
"k.k.k.k.k.k.k.k.k.k.k.k.k.k.k.k.k.k.k.k.k.k.k.k.k.k.k.k.k.k.k.k.k.k.k.k.k.k.k.k.k.k.k.k.k.k.k.k.k.k.k.k.k.k.k.k.k.k.k.k.k.k.k.k.",
"k.k.k.k.k.k.k.k.k.k.k.k.k.k.k.k.k.k.k.k.k.k.k.k.k.k.k.k.k.k.k.k.k.k.k.k.k.k.k.k.k.k.k.k.k.k.k.k.k.k.k.k.k.k.k.k.k.k.k.k.k.k.k.k.",
"k.k.k.k.k.k.k.k.k.k.k.k.k.k.k.k.k.k.k.k.k.k.k.k.k.k.k.k.k.k.k.k.k.k.k.k.k.k.k.k.k.k.k.k.k.k.k.k.k.k.k.k.k.k.k.k.k.k.k.k.k.k.k.k.",
"k.k.k.k.k.k.k.k.k.k.k.k.k.k.k.k.k.k.k.k.k.k.k.k.k.k.k.k.k.k.k.k.k.k.k.k.k.k.k.k.k.k.k.k.k.k.k.k.k.k.k.k.k.k.k.k.k.k.k.k.k.k.k.k.",
"k.k.k.k.k.k.k.k.k.k.k.k.k.k.k.k.k.k.k.k.k.k.k.k.k.k.k.k.k.k.k.k.k.k.k.k.k.k.k.k.k.k.k.k.k.k.k.k.k.k.k.k.k.k.k.k.k.k.k.k.k.k.k.k.",
"k.k.k.k.k.k.k.k.k.k.k.k.k.k.k.k.k.k.k.k.k.k.k.k.k.k.k.k.k.k.k.k.k.k.k.k.k.k.k.k.k.k.k.k.k.k.k.k.k.k.k.k.k.k.k.k.k.k.k.k.k.k.k.k.",
"k.k.k.k.k.k.k.k.k.k.k.k.k.k.k.k.k.k.k.k.k.k.k.k.k.k.k.k.k.k.k.k.k.k.k.k.k.k.k.k.k.k.k.k.k.k.k.k.k.k.k.k.k.k.k.k.k.k.k.k.k.k.k.k.",
"k.k.k.k.k.k.k.k.k.k.k.k.k.k.k.k.k.k.k.k.k.k.k.k.k.k.k.k.k.k.k.k.k.k.k.k.k.k.k.k.k.k.k.k.k.k.k.k.k.k.k.k.k.k.k.k.k.k.k.k.k.k.k.k.",
"k.k.k.k.k.k.k.k.k.k.k.k.k.k.k.k.k.k.k.k.k.k.k.k.k.k.k.k.k.k.k.k.k.k.k.k.k.k.S k.k.k.k.k.k.k.k.k.k.k.k.k.k.k.k.k.k.k.k.k.k.k.k.k.",
"k.k.k.k.k.k.k.k.k.k.k.k.k.k.k.k.k.k.k.k.k.k.k.k.k.j.h.f.d.s.k.k.k.k.k.k.%.d B k.k.k.k.k.k.k.k.k.k.k.k.k.k.k.k.k.k.k.k.k.k.k.k.k.",
"k.k.k.k.k.k.k.k.k.k.k.k.k.k.k.k.k.k.k.k.k.k.k.k.g.d.a.p.s.s.a.9.k.k.8.N N S S k.k.k.k.k.k.k.k.k.k.k.k.k.k.k.k.k.k.k.k.k.k.k.k.k.",
"k.k.k.k.k.k.k.k.k.k.k.k.k.k.k.k.k.k.k.k.k.k.k.d.a.a.s.a.p.s.5. .1.;.J P ( =.3.k.k.k.k.k.k.k.k.k.k.k.k.k.k.k.k.k.k.k.k.k.k.k.k.k.",
"k.k.k.k.k.k.k.k.k.k.k.k.k.k.k.k.k.k.k.k.k.k.k.p.i.i.=.-.3.7.*.| 5 j F / <.3.k.k.k.k.k.k.k.k.k.k.k.k.k.k.k.k.k.k.k.k.k.k.k.k.k.k.",
"k.k.k.k.k.k.k.k.k.k.k.k.k.k.k.k.k.k.k.k.k.k.7.4.6.&. .) V =.} ..Z j ' / w.4.k.k.k.k.k.k.k.k.k.k.k.k.k.k.k.k.k.k.k.k.k.k.k.k.k.k.",
"k.k.k.k.k.k.k.k.k.k.k.k.k.k.k.k.k.k.k.k.k.4.4.} &.[ 5 9 Z ( :.J 9 {  .! 6.9.k.k.k.k.k.k.k.k.k.k.k.k.k.k.k.k.k.k.k.k.k.k.k.k.k.k.",
"k.k.k.k.k.k.k.k.k.k.k.k.k.k.k.k.k.y.u.3.u.4.:.` } 9 a @ d +.O.:.>. .{ ,.>.k.k.k.k.k.k.k.k.k.k.k.k.k.k.k.k.k.k.k.k.k.k.k.k.k.k.k.",
"k.k.k.k.k.k.k.k.k.k.k.k.k.E R V B a y 7 A *.A A o...5 y &.:.%.:.` C k.k.k.k.k.k.k.k.k.k.k.k.k.k.k.k.k.k.k.k.k.k.k.k.k.k.k.k.k.k.",
"k.k.k.k.k.k.k.k.k.k.k.7 7 p p l c l p , : B j Z { o.;.>.>.;.[ j 6 8 k.k.k.k.k.k.k.k.k.k.k.k.k.k.k.k.k.k.k.k.k.k.k.k.k.k.k.k.k.k.",
"k.k.k.k.k.k.k.k.k.k.k.k.N F I Q I D l < > 6 u j G ' 1. .d 8 i i 8 ; v k.k.k.k.k.k.k.k.k.k.k.k.k.k.k.k.k.k.k.k.k.k.k.k.k.k.k.k.k.",
"k.k.k.k.k.k.k.k.k.k.k.k.k.W ! Q I D l l z 5 8 8 g g g 4 6 u m 8 & & v r.k.k.k.k.k.k.k.k.k.k.k.k.k.k.k.k.k.k.k.k.k.k.k.k.k.k.k.k.",
"k.k.k.k.k.k.k.k.k.k.k.k.k.k.~ / / P c c b v 9 4 1 4 1 ; 6 6 8 * & y 0.$.k.k.k.k.k.k.k.k.k.k.k.k.k.k.k.k.k.k.k.k.k.k.k.k.k.k.k.k.",
"k.k.k.k.k.k.k.k.k.k.k.k.k.k.k.k./ I D P n N M 4 1 % ; ; ; & % ; b r.r.$.X.k.k.k.k.k.k.k.k.k.k.k.k.k.k.k.k.k.k.k.k.k.k.k.k.k.k.k.",
"k.k.k.k.k.k.k.k.k.k.k.k.k.k.k.k.k.k.k.k.k.n L Y f : 4 ; a U #.Y @.$.$.@.@.k.k.k.k.k.k.k.k.k.k.k.k.k.k.k.k.k.k.k.k.k.k.k.k.k.k.k.",
"k.k.k.k.k.k.k.k.k.k.k.k.k.k.k.k.k.k.k.k.k.n D Y X.X.X.o.] @.Y T ' @.X.@.$.k.k.k.k.k.k.k.k.k.k.k.k.k.k.k.k.k.k.k.k.k.k.k.k.k.k.k.",
"k.k.k.k.k.k.k.k.k.k.k.k.k.k.k.k.k.k.k.k.k.n n n D U T T Y T U T ] ] $.$.X.k.k.k.k.k.k.k.k.k.k.k.k.k.k.k.k.k.k.k.k.k.k.k.k.k.k.k.",
"k.k.k.k.k.k.k.k.k.k.k.k.k.k.k.k.k.k.k.k.k.n n n b c n L U Y c T Y ] @.' H k.k.k.k.k.k.k.k.k.k.k.k.k.k.k.k.k.k.k.k.k.k.k.k.k.k.k.",
"k.k.k.k.k.k.k.k.k.k.k.k.k.k.k.k.k.k.k.k.k.v n n D D L T Y T n U Y ] X.n b ' k.k.k.k.k.k.k.k.k.k.k.k.k.k.k.k.k.k.k.k.k.k.k.k.k.k.",
"k.k.k.k.k.k.k.k.k.k.k.k.k.k.k.k.k.k.k.k.k.5 r v D U T Y U T z n ] L z b D D @.k.k.k.k.k.k.k.k.k.k.k.k.k.k.k.k.k.k.k.k.k.k.k.k.k.",
"k.k.k.k.k.k.k.k.k.k.k.k.k.k.k.k.k.k.k.k.k.0 = 2 2 z n L n D x n q 2 w z n Y n k.k.k.k.k.k.k.k.k.k.k.k.k.k.k.k.k.k.k.k.k.k.k.k.k.",
"k.k.k.k.k.k.k.k.k.k.k.k.k.k.k.k.k.k.k.k.n p n z 2 = 2 q q - = $ - q < l r q n $.k.k.k.k.k.k.k.k.k.k.k.k.k.k.k.k.k.k.k.k.k.k.k.k.",
"k.k.k.k.k.k.k.k.k.k.k.k.k.k.k.k.k.k.k.k.U U x n c - 5 q - = : > z c l q q x @.^ ! k.k.k.k.k.k.k.k.k.k.k.k.k.k.k.k.k.k.k.k.k.k.k.",
"k.k.k.k.k.k.k.k.k.k.k.k.k.k.k.k.k.k.k.T L n n q Y n - = - : 0 r c U l c P I ! ! D b k.k.k.k.k.k.k.k.k.k.k.k.k.k.k.k.k.k.k.k.k.k.",
"k.k.k.k.k.k.k.k.k.k.k.k.k.k.k.k.k.k.#.L Y n x z n T Y q p x z p L P P ! I T ! ^ z b k.k.k.k.k.k.k.k.k.k.k.k.k.k.k.k.k.k.k.k.k.k.",
"k.k.k.k.k.k.k.k.k.k.k.k.k.k.k.k.k.k.$.] Y r q - r L I ! U T U s U L P ^ ^ ! ^ I a Q k.k.k.k.k.k.k.k.k.k.k.k.k.k.k.k.k.k.k.k.k.k.",
"k.k.k.k.k.k.k.k.k.k.k.k.k.k.k.k.k.k.T T n = 0 - 0 n n x L L n x L L L / #.! / Y n Y c k.k.k.k.k.k.k.k.k.k.k.k.k.k.k.k.k.k.k.k.k.",
"k.k.k.k.k.k.k.k.k.k.k.k.k.k.k.k.k.U L U n z - 2 2 n l q l D D b L n L #.#./ / c U 0.r.k.k.k.k.k.k.k.k.k.k.k.k.k.k.k.k.k.k.k.k.k.",
"k.k.k.k.k.k.k.k.k.k.k.k.k.k.k.k.k.Y T w Y L 0 = - D Y l q x L n z x x n P ^ I w L @.$.k.k.k.k.k.k.k.k.k.k.k.k.k.k.k.k.k.k.k.k.k.",
"k.k.k.k.k.k.k.k.k.k.k.k.k.k.k.k.k.L T x l c r 2 * n U x < a x f w l l l l l L z n @.$.#.k.k.k.k.k.k.k.k.k.k.k.k.k.k.k.k.k.k.k.k.",
"k.k.k.k.k.k.k.k.k.k.k.k.k.k.k.k.k.n L Y x w 0 0 - z P z q > a q , l < l x P n I n b v L k.k.k.k.k.k.k.k.k.k.k.k.k.k.k.k.k.k.k.k.",
"k.k.k.k.k.k.k.k.k.k.k.k.k.k.k.k.k.X.' Y T n e 5 0 a U x l < , q w q w c L I s #.0 @ . + * k.k.k.k.k.k.k.k.k.k.k.k.k.k.k.k.k.k.k.",
"k.k.k.k.k.k.k.k.k.k.k.k.k.k.k.k.k.] Y ] Y L h 5 r 5 U c c c , a c x n I I U 0 #.a i 3 + & k.k.k.k.k.k.k.k.k.k.k.k.k.k.k.k.k.k.k.",
"k.k.k.k.k.k.k.k.k.k.k.k.k.k.k.k.k.U L ' Y n z 2 h 7 L c c l p z n c n I T w r q.b ` *.3 * k.k.k.k.k.k.k.k.k.k.k.k.k.k.k.k.k.k.k.",
"k.k.k.k.k.k.k.k.k.k.k.k.k.k.k.k.D h h 0 e v r 0 p q L c L L z x l x c L c q n t.F N ( *.$ k.k.k.k.k.k.k.k.k.k.k.k.k.k.k.k.k.k.k.",
"k.k.k.k.k.k.k.k.k.k.k.k.k.k.k.] h # o + @ # 2 2 z s c n L ^ D n L I x U T #.#.t.J : m 4.k.k.k.k.k.k.k.k.k.k.k.k.k.k.k.k.k.k.k.k.",
"k.k.k.k.k.k.k.k.k.k.k.k.k.k.k.X.D 5 o % * 3 3 7 z z r Y Y U ! D T ] n F #.! / q.D O } :.k.k.k.k.k.k.k.k.k.k.k.k.k.k.k.k.k.k.k.k.",
"k.k.k.k.k.k.k.k.k.k.k.k.k.k.k.s > = @ % i S S q x z 5 D L c ! b @.#.Y @./ #.^ #.F q z k.k.k.k.k.k.k.k.k.k.k.k.k.k.k.k.k.k.k.k.k.",
"k.k.k.k.k.k.k.k.k.k.k.k.k.k.k.v r * # 1 B *.` 7 x x s 5 F 0.Y H @.r.I #.#.$./ #.X.Q F k.k.k.k.k.k.k.k.k.k.k.k.k.k.k.k.k.k.k.k.k.",
"k.k.k.k.k.k.k.k.k.k.k.k.k.k.k.b U D s 9 C *.6 f b x D ! 0.T a b $.#.@.^ #./ ^ @.O.q.t.k.k.k.k.k.k.k.k.k.k.k.k.k.k.k.k.k.k.k.k.k.",
"k.k.k.k.k.k.k.k.k.k.k.k.k.k.k.k.Y ] L j S 2.6 w D T X.#.0.@.D b @.#.#.@.#.#.@.! ^ 0.0.q.q.<.k.k.k.k.k.k.k.k.k.k.k.k.k.k.k.k.k.k.",
"k.k.k.k.k.k.k.k.k.k.k.k.k.k.k.k.g U n b %.C J L @.@.X.U P @.#.^ Y Y Y Y D T 0.q.q.q.0.#.X.U k.k.k.k.k.k.k.k.k.k.k.k.k.k.k.k.k.k.",
"k.k.k.k.k.k.k.k.k.k.k.k.k.k.k.k.1 h k Y H Y Y ] X.T Y U D L L P n n L L p q n K b p a z L b k.k.k.k.k.k.k.k.k.k.k.k.k.k.k.k.k.k.",
"k.k.k.k.k.k.k.k.k.k.k.k.k.k.2 & % 1 1 9 h D v n n n n n D L D n z n n c c 5 - = $ - = = a 0 k.k.k.k.k.k.k.k.k.k.k.k.k.k.k.k.k.k.",
"k.k.k.k.k.k.k.k.k.k.k.% & 1 @ + + @ % % @ & & $ $ = = - 2 = * - 2 v v z e q 2 2 - r p q 5 0 2 * % @ % k.k.k.k.k.k.k.k.k.k.k.k.k.",
"k.k.k.k.k.k.k.k.k.k.@ & 1 1 1 @ % & % % @ 1 @ 2 = = = * & * @ 2 $ 2 0 4 @ & @ & 4 e r 4 = 5 5 # 1 1 # 1 1 1 & 1 k.k.k.k.k.k.k.k.",
"k.k.k.k.k.k.k.k.k.# % + % @ 1 1 & 4 4 1 1 9 b n L n s 2 4 r 4 a q & & # # @ @ @ @ 2 # # o & * % @ % @ 1 % % % & & k.k.k.k.k.k.k.",
"k.k.k.k.k.k.k.k.k.# % & + + @ % % 2 4 1 1 2 g e 0 e v % @ # & v h 9 * & = & @ + % * * + @ + # % @ 1 # # 1 & 1 1 % & k.k.k.k.k.k.",
"k.k.k.k.k.k.k.k.X + % @ @ @ + @ + % & + % % % & 2 = = 5 & % * 2 & * & % & + % + % ; & % + @ @ % + @ % 2 & % r 2 % & k.k.k.k.k.k.",
"k.k.k.k.k.k.k.k.X X @ % @ @ @ + % % % + X X + 5 v k 9 h k r = 1 = 1 % + 1 % % + + % & 1 * e 5 & % % % 2 2 1 % 2 2 @ k.k.k.k.k.k.",
"k.k.k.k.k.k.k.k.o X + @ + o + @ @ @ % @ % & % 2 0 2 s 0 = 4 e & * & + # % % & % o o # % % e s D f & 2 1 2 2 * % * % + k.k.k.k.k.",
"k.k.k.k.k.k.k.+ o X + @ + + + 1 # o @ & @ + % e r v e e a 5 e * & % % % # & = 4 o # # # + 2 7 5 > e e h 1 4 5 5 & * & k.k.k.k.k."
};
