/* XPM */
static char *_137d2615d534c38cfc1d1ff52c686f9VTJPeQlqm1yi5mAj[] = {
/* columns rows colors chars-per-pixel */
"64 64 156 2 ",
"   c white",
".  c #060507",
"X  c #070609",
"o  c #08070B",
"O  c #0A090E",
"+  c #0E0D12",
"@  c #100F14",
"#  c #131116",
"$  c #1A1517",
"%  c #15141A",
"&  c #19171B",
"*  c #17181B",
"=  c #1D1A1C",
"-  c #231D1D",
";  c #281F1C",
":  c #1E231F",
">  c #23211F",
",  c #2B221E",
"<  c #30261F",
"1  c #33281F",
"2  c #392B1E",
"3  c #1D1B20",
"4  c #231E21",
"5  c #1E2220",
"6  c #242223",
"7  c #2C2523",
"8  c #232A24",
"9  c #2D2926",
"0  c #2F2728",
"q  c #2D2A29",
"w  c #302722",
"e  c #342B24",
"r  c #3A2E24",
"t  c #332C2A",
"y  c #382F28",
"u  c #223424",
"i  c #27352A",
"p  c #2B322B",
"a  c #2C3B2D",
"s  c #333225",
"d  c #3D3225",
"f  c #35312B",
"g  c #3C332B",
"h  c #36392F",
"j  c #3E392C",
"k  c #2E3B30",
"l  c #333331",
"z  c #3D3531",
"x  c #333C33",
"c  c #3F3932",
"v  c #403426",
"b  c #42362B",
"n  c #453A2D",
"m  c #493C2D",
"M  c #423731",
"N  c #443B31",
"B  c #4A3E31",
"V  c #36402D",
"C  c #3B422E",
"Z  c #2E4732",
"A  c #344334",
"S  c #3B4536",
"D  c #334A35",
"F  c #3C4D36",
"G  c #364C3A",
"H  c #3C4E3A",
"J  c #345136",
"K  c #3A5236",
"L  c #36543A",
"P  c #3D553D",
"I  c #37583A",
"U  c #3B5C3E",
"Y  c #4D402F",
"T  c #444236",
"R  c #4D4234",
"E  c #44473A",
"W  c #4D4539",
"Q  c #444C3C",
"!  c #4C493D",
"~  c #524536",
"^  c #544936",
"/  c #524639",
"(  c #564A3A",
")  c #594D3D",
"_  c #495037",
"`  c #43553B",
"'  c #4B523F",
"]  c #445D3D",
"[  c #4B5E3B",
"{  c #515137",
"}  c #55513A",
"|  c #5C533D",
" . c #5E593E",
".. c #60573D",
"X. c #625B3F",
"o. c #41643F",
"O. c #48653F",
"+. c #3D6542",
"@. c #3F6843",
"#. c #5A4F40",
"$. c #445542",
"%. c #495743",
"&. c #445C43",
"*. c #4C5A45",
"=. c #4C5949",
"-. c #505444",
";. c #5D5342",
":. c #535F40",
">. c #5F5940",
",. c #595B4A",
"<. c #615644",
"1. c #635B43",
"2. c #645B48",
"3. c #426243",
"4. c #4E6246",
"5. c #446C46",
"6. c #4D6E46",
"7. c #476749",
"8. c #4A6348",
"9. c #4C6B4B",
"0. c #566C43",
"q. c #54624F",
"w. c #5E6F4B",
"e. c #4C744B",
"r. c #547B4E",
"t. c #557D52",
"y. c #666244",
"u. c #696546",
"i. c #6A6846",
"p. c #666149",
"a. c #69624B",
"s. c #616F4B",
"d. c #6C6949",
"f. c #568154",
"g. c #5C8654",
"h. c #578956",
"j. c #5E8A56",
"k. c #5F8B58",
"l. c #5D8E58",
"z. c #608A58",
"x. c #628E5A",
"c. c #638D5C",
"v. c #61905B",
"b. c #62905B",
"n. c #63905E",
"m. c #64925C",
"M. c #64915E",
"N. c #6C915F",
"B. c #659160",
"V. c #689160",
"C. c #719563",
"Z. c #769464",
"A. c #829768",
"S. c #9CAD7E",
"D. c #9FAD7F",
"F. c #ADB78A",
/* pixels */
"                                                                                                                                ",
"                                                                                                                                ",
"                                                                                                                                ",
"                                                                                                                                ",
"                                                                                                                                ",
"                                                                                                                                ",
"                                                                                                                                ",
"                                                                                                                                ",
"                                                                                                                                ",
"                                                                                                                                ",
"                                                                                                                                ",
"                                                                                                                                ",
"                                                                                                                                ",
"                                                      F.S.                                                                      ",
"                                                  F.C.c.M.M.n.                                                                  ",
"                                                N.c.V.x.v.m.v.f.&.    n.f.3.V a                                                 ",
"                                              l.j.z.t.e.r.g.g.&.q.=.t.F d C L I                                                 ",
"                                            r.f.r.e.%.$.D O.6.%.l 6 S m { [ 5.                                                  ",
"                                A.Z.g.g.l.h.e.9.4.%.f 6 A ] 6.$.T @ ! ( 0.0.e.                                                  ",
"                          ` ` ` ] P K J 5.r.5.3.$.Q * s 8 $.s.=.S E *.) X.s.e.                                                  ",
"                      j s j v d v v 2 ; u o.U ` %.,.h # Q 7.` 3.9.7.=.$.w.e.                                                    ",
"                        ` _ }  .| ^ m 2 , a D H -.,.*.q.9.9.9.7.P G x x                                                         ",
"                          [  .X...~ m v r 8 i x T %.=.8.H S x 8 8 8 q                                                           ",
"                             . ...~ m n m e p p l l k p 8 p A k 8 6 l                                                           ",
"                              y.X.| m B R B p 5 6 6 5 5 8 i k 8 * # g a.                                                        ",
"                                    B ) / T G 8 * 3 = 8 8 8 6 * * c p.<.                                                        ",
"                                          W / B > = 8 8 : - f ; ( a.a.2.;.                                                      ",
"                                          B / ;.;.T N T ! <.2.#.;.,.1.2.2.                                                      ",
"                                          B B / ) ;.<.<.) #.) ) #.;.#.2.2.                                                      ",
"                                          B B B N R / ^ ) ( B #.#.#.;.2.;.                                                      ",
"                                          N B B B B ~ ( ( ( N / #.;.;.;.B                                                       ",
"                                          b M B / ( ) ( ) ) m ~ #.#.#.N N                                                       ",
"                                          4 4 0 M B ( ( ~ ~ b ^ / M v N B B <.                                                  ",
"                                        b y y 4 - w v B n n n r ; w r b / / B                                                   ",
"                                        B B N M 4 4 4 e - = - - 7 w e r 7 e / 2.d.                                              ",
"                                      ) ~ / v B B 4 ; - ; ; , < m m r 1 d R ;.X.^                                               ",
"                                      ) B B B y ) B , ; < < y f Y Y m ^ ^ | | ..n R                                             ",
"                                    <.^ / N m r B | ) b n R m b ~ ^ ^ | ) | ..^ s W                                             ",
"                                    <.| / w ; 4 b ( ^ | ) ^ B b ^ ^ ) ..| ....) j ( R                                           ",
"                                  <.( ) r ; 4 - y B v b R ~ n B ~ ~ ) X.1.| X.Y W | ~                                           ",
"                                  ( B / m n ; - w B b e d / ~ B m B R <.X.X.| d ( 1.a.                                          ",
"                                  ) ~ y ( B 7 - 7 ^ ^ v e n ~ n b m n m ) ^ ) r ~ 1.2.a.                                        ",
"                                  ( ( v y b w 7 = ~ ~ v e r m y r v r v d n R B B <.2.<.                                        ",
"                                  B ( ^ v y 7 e ; T ~ d , 7 e w e r 2 v n ^ n ) B f y N                                         ",
"                                  #./ #./ B 0 e 7 N ~ b v r 7 r 2 r v B ^ ^ j 1.4 # X O $                                       ",
"                                  ) #.#.#.B w t t d ^ b m b < d m m ~ ( ) B g 1.q Z u + $                                       ",
"                                #./ / / / M f 0 y t ^ m m v d n m R ~ ( ~ < M i.h +.5.u -                                       ",
"                                z y 7 4 0 z t w d w ^ m ~ R b n n v m ^ v b ) i.N S 3.@.$                                       ",
"                              / 0 @ o # # + $ f b e T ^ ^ 1.n R ( ( m ~ X.1.1.u.T $ G e.                                        ",
"                              / B $ + * 5 i 8 d n d N ) ( R | R ) ) T } 1.| X.y.j @ 6.                                          ",
"                            W 7 - $ + 5 J @.L e n b 7 R m R ( W 2.1.( 1.X.1.X.y.N e g                                           ",
"                              N 1 - # 8 @.I L t m b t e | y.h ;.2.u.) 1...u.1.1.1.| {                                           ",
"                              R / B t k +.I b y B N ^ 1.;.( 9 / <.2.| 1.<.1.| <.| u.u.                                          ",
"                              M #.) R L I 5.4 b ( ;.;.<.y.| T W <.2.<.<.1.1...<.1.y.y.i.y.|                                     ",
"                              0 N W ~ S U ' B #.1.;.) ~ ( >.1.;.) ) ^ ~ m | 2.u.y.u.1.;.;.W                                     ",
"                              6 4 z W W ! ^ ( #.#.) / ~ ~ ~ ^ ~ B B ~ ~ e y B T g s e b ~ g                                     ",
"                              + % 3 3 0 z z N m B B N B R R R n b B B n N 7 - = $ , ; ; y 0 6 w 7 &                             ",
"                    # % 3 3 # + @ # 3 @ @ 3 @ # $ = - - - = $ - 4 b b y e 7 4 - , d d e 6 0 - $ & # % 3 4 4                     ",
"                  # # 3 3 3 3 # % % % 3 % 3 + 7 ; ; 4 = & % # - & 7 7 4 # @ @ # 6 t e 6 - 6 7 % & * % 3 3 3 & 3                 ",
"                @ # # # @ + 3 3 3 4 4 3 3 c N B W N f & ; f q g w = % % @ # @ @ % 4 # # o = * % & & @ 3 % % % & *               ",
"              % + % % % # + 3 @ 3 3 4 3 3 0 8 z - M t @ # % & M q 8 % 3 7 + + + % * = + @ + % % # & # % & % 4 3 %               ",
"              + o @ % @ + # + + # % % + % % % = 4 - 4 7 % $ & 6 3 4 @ % % + & O 3 3 & % + @ # # + % % 3 & % f 4 %               ",
"              + o + # # + # + + % % + + o o % g z z t y z t % 4 4 % # 3 % % # # + # = & - t 7 * & # % 7 = 3 & 4 4 @             ",
"              + o O + @ + + + + @ @ % + 3 % % 0 7 7 c 7 4 t w % 4 @ # % # % 4 + + + # % % t g W g & 3 3 4 6 & % = %             "
};
