/* XPM */
static char *dfefaa6b26e041bc8e1ba3f536dd6393dQ08BrCee2wiaD0y[] = {
/* columns rows colors chars-per-pixel */
"64 64 167 2 ",
"   c white",
".  c #070709",
"X  c #09070A",
"o  c #0A090E",
"O  c #100D0D",
"+  c #0E0D12",
"@  c #100F14",
"#  c #131116",
"$  c #1A1516",
"%  c #1E1917",
"&  c #15141A",
"*  c #19171B",
"=  c #17191B",
"-  c #1C1A1D",
";  c #231D1D",
":  c #281F1C",
">  c #1D221F",
",  c #1D281E",
"<  c #1F301F",
"1  c #2B231E",
"2  c #32271E",
"3  c #35291E",
"4  c #1E1C20",
"5  c #221E22",
"6  c #1F2124",
"7  c #1D2C20",
"8  c #242222",
"9  c #2C2523",
"0  c #232B24",
"q  c #2D2826",
"w  c #252E29",
"e  c #2B2C2A",
"r  c #302722",
"t  c #342B24",
"y  c #392E24",
"u  c #342D2A",
"i  c #392F28",
"p  c #2C3326",
"a  c #273229",
"s  c #29322B",
"d  c #2B3C2E",
"f  c #353226",
"g  c #3C3125",
"h  c #34312B",
"j  c #3C332B",
"k  c #333B2E",
"l  c #3A382C",
"z  c #2F3C31",
"x  c #333432",
"c  c #3D3531",
"v  c #323B32",
"b  c #3E3B33",
"n  c #3C3F39",
"m  c #413426",
"M  c #42362A",
"N  c #453A2D",
"B  c #493C2E",
"V  c #413630",
"C  c #443B32",
"Z  c #4A3E32",
"A  c #344433",
"S  c #394335",
"D  c #334D35",
"F  c #394A34",
"G  c #364B39",
"H  c #3B4C39",
"J  c #355035",
"K  c #36563A",
"L  c #38573D",
"P  c #3B5D3E",
"I  c #3C623F",
"U  c #4D402F",
"Y  c #454135",
"T  c #4D4234",
"R  c #474D34",
"E  c #4E4935",
"W  c #474338",
"Q  c #4D4539",
"!  c #434C3B",
"~  c #4A493E",
"^  c #524536",
"/  c #544936",
"(  c #534739",
")  c #554A3A",
"_  c #594D3C",
"`  c #43543D",
"'  c #475F3E",
"]  c #4C583A",
"[  c #55513A",
"{  c #5C533D",
"}  c #505E3D",
"|  c #5E5A3E",
" . c #60573F",
".. c #625A3F",
"X. c #47663F",
"o. c #5A603F",
"O. c #3E5640",
"+. c #3D5D42",
"@. c #3F6743",
"#. c #574D41",
"$. c #5A4E40",
"%. c #455544",
"&. c #4A5646",
"*. c #435B41",
"=. c #4C5B45",
"-. c #465D48",
";. c #4C5C49",
":. c #5D5442",
">. c #505842",
",. c #5F5942",
"<. c #515348",
"1. c #505D49",
"2. c #5B5D4B",
"3. c #615644",
"4. c #635B43",
"5. c #645C49",
"6. c #426443",
"7. c #4C6246",
"8. c #416C45",
"9. c #486A46",
"0. c #4B6449",
"q. c #476C4B",
"w. c #4C6D4C",
"e. c #586742",
"r. c #546A46",
"t. c #5F6D47",
"y. c #546B4C",
"u. c #4E7247",
"i. c #46724A",
"p. c #4D764C",
"a. c #4E794D",
"s. c #50754A",
"d. c #537B4F",
"f. c #527750",
"g. c #577E51",
"h. c #587F52",
"j. c #656144",
"k. c #686545",
"l. c #6B6947",
"z. c #67604B",
"x. c #69644B",
"c. c #6B6A49",
"v. c #717050",
"b. c #58834F",
"n. c #568351",
"m. c #588354",
"M. c #5F8556",
"N. c #5A8955",
"B. c #598956",
"V. c #5F8A57",
"C. c #638958",
"Z. c #608D5B",
"A. c #608E59",
"S. c #648C5C",
"D. c #658F5C",
"F. c #658F5E",
"G. c #66915D",
"H. c #64935D",
"J. c #66905F",
"K. c #679360",
"L. c #6A9261",
"P. c #6B9463",
"I. c #6F9561",
"U. c #6C9564",
"Y. c #739666",
"T. c #7A9B69",
"R. c #95A97B",
/* pixels */
"                                                                                                                                ",
"                                                                                                                                ",
"                                                                                                                                ",
"                                                                                                                                ",
"                                                                                                                                ",
"                                                                                                                                ",
"                                                                                                                                ",
"                                                                                                                                ",
"                                                                                                                                ",
"                                                                                                                                ",
"                                                                                                                                ",
"                                                                                                                                ",
"                                                                                                                                ",
"                                                    R.I.P.Y.K.                                                                  ",
"                                                T.L.U.F.H.K.K.V.                                                                ",
"                                              F.F.C.M.s.m.V.A.u.%.        f.*.A                                                 ",
"                                            h.m.h.d.=.&.G 6.s.*.&.n w.F l l F J                                                 ",
"                            r.u.s.n.b.b.N.N.a.d.7.7.n 8 n ' u.&.u & S N E ] ' I                                                 ",
"                      f t f g 3 y t t p J a.i.w.` =.q h - L r.1.b # &./  .o.p.                                                  ",
"                        F R [ [ { / N y 1 J P O.&.2.~ & k 0.>.%.y.7.;.[ o.t.a.                                                  ",
"                          o.o....._ / 3 3 1 J A <.2.;.y.y.w.w.q.6.-.&.` y.s.a.                                                  ",
"                            o....._ ^ m m t z z n ~ =.0.*.H S z s s s n                                                         ",
"                              j.j._ T B T N w a s x z a 8 s A s w 0 e                                                           ",
"                                  { T ^ ( Q S w 6 6 8 6 a s A a 4 * u                                                           ",
"                                        ) G D 0 - = 6 0 0 0 0 - & - :.z.                                                        ",
"                                          Q T Y 0 8 0 0 5 ; % - N x.x.3.:.                                                      ",
"                                          Z ( $.:.W b b Z 3.z.$.,.3.5.5.:.                                                      ",
"                                          Z Z ^ ) { 3.{ _ 3._ _ $.:.:.5.5.                                                      ",
"                                          C Z Z Z Z ) _ ) _ Z _ $._ 3.5.5.                                                      ",
"                                        ( Z Z ^ Z Z Z ( ) ) B ) _ :.:.$.(                                                       ",
"                                          u V Z ^ ) _ _ $.$.B ) #._ :.Q j #.                                                    ",
"                                          8 5 r c Z ) ) Z ) B Z ( ^ j V Z Q 5.                                                  ",
"                                        Z i i 9 % r M Z N N N M r 9 m M Z _ Z                                                   ",
"                                        ^ V Z M 9 9 ; t ; * % % 5 r y m i t ^ 5.v.                                              ",
"                                      3.( ( M Z M 5 1 9 ; : 1 2 N B 3 3 3 Z :.4.[ (                                             ",
"                                      $.^ Z ^ t _ Z ; : 2 r u y B / m B / _ { { N B                                             ",
"                                    4.( _ Z N t ^ _ ) y N B N j ^ / / { _ { { { j E                                             ",
"                                    5._ ) t r ; j / _ { _ _ T M ^ / ) ..{ {  .[ l [ T                                           ",
"                                  3._ _ M ; 9 ; t ^ M M ^ ^ B N Z ^ / ..4. ...^ T ) B                                           ",
"                                  _ ^ ) M M 5 ; r Z m t m T T Z Z ^ ^ ..4...{ m ( z.x.                                          ",
"                                  _ / j ) T r ; 9 ^ ^ g y N ^ N N B M Z _ _ / g / 3.4.                                          ",
"                                  ( _ M M M t 9 % ^ ^ M r j B j y m M m m N U N ^  .5.5.                                        ",
"                                  Z ^ ( M i t 9 ; Z / m r 1 y r 3 m 3 m m / C ) T C C Z                                         ",
"                                  :._ ) _ Z t 9 9 j ^ M m 3 r u y 3 m B / _ l 4.8 # X @ ;                                       ",
"                                  $.( #.$.^ u q u i ( N B B 9 g B M B _ / ^ u 4.h d 7 + *                                       ",
"                                  ( ( #.( Z V 5 j r ) B B m l N B B ^ ( ) 3 j k.l +.8.7 %                                       ",
"                                Z V u r u M i q j 9 / B ^ B M m N M Z ^ B 3 ( c.Y H X.@.$                                       ",
"                              $.u & o + & @ ; 5 N y T U )  .B Z / / B / _ ..4.c.E 1 A u.                                        ",
"                              _ Z 5 o & - 0 0 t M M f _ _ ^ { T ) _ Z E .. ...j.Z O 6.9.                                        ",
"                              V 8 ; + = A I K u M M 9 E T B { Y 3.4.) ,...4. .4.Y t M                                           ",
"                              M u % # > K @.+.t N M i r ( j.E ~ 5.x.) 4.4.k.4.4.| [ Y                                           ",
"                              Z ^ B g s K I p l Z Z Q _ 4._ t W 5.4.3...3. .{  .4.j.c.                                          ",
"                              j _ _ Q v P i.6 i Z _ 3.3.j.{ T Z 3.5.4.3.4.4.3...{ 4.k.l.j.j.                                    ",
"                                c ( Q V 6.J W ( 3.3.$.( _ 4.4.:.) _ _ ) T $.j.4.j.k.j.4.,.(                                     ",
"                                5 c Q ~ ~ ) ) $.:.#.) / T / / / T ^ ^ ^ y t E ) T M l N ( C                                     ",
"                        4 u 8 = # 4 5 u V Z Z N Z ^ Z Z ^ ( Z T j Z Z N Z r 5 % $ ; ; ; j 9 q                                   ",
"                      = 4 4 @ + + & & & & 4 * ; ; ; 5 8 8 ; ; ; 9 j N j i t 5 5 5 i g i 8 q 5 ; & @ &                           ",
"                    @ = 4 4 4 @ # & # & @ & @ * % ; ; * $ - $ ; ; 5 q q @ % @ $ 8 t i 9 ; 9 9 $ 4 & 4 4 4 4                     ",
"                  + & # & @ 4 4 4 5 5 4 4 u C C Z Z j ; 8 i 8 x r & $ & # # @ # & 8 * & @ @ 5 & @ & @ 4 4 & & &                 ",
"                + @ # * @ + & & & 5 e 4 4 8 x c t j V & & & * V j e * * 4 = # + & * % + @ @ $ $ & * @ @ 4 & & = =               ",
"              + o + & & @ + @ @ + 4 4 o & 4 4 & ; ; % 9 & @ 4 5 * 5 & & = + # + & 5 & & @ + @ & # + # 4 & & t u # =             ",
"              4 o + @ @ @ & @ + & & + + X X + 9 V c t x c i ; 4 - 4 & # 4 & & # + & - 4 # q - * & # 4 5 5 4 * 5 5 # #           ",
"            & + . . + + + + + & # @ & + # & 4 5 9 9 i q ; 5 u - 5 - # & & & * & + o + - = u V Q i 4 = * 5 5 - & 4 & +           ",
"            + + o + @ @ + + + & # + + & & + & q i V u u c 9 u $ * & # # # $ 5 5 X # # + + - 9 9 t u q c 5 5 9 5 $ - *           "
};
