/* XPM */
static char *_1b1fd28d54f4957c9663f9aae1eed4e1bzDFgSYHAttbdML[] = {
/* columns rows colors chars-per-pixel */
"64 64 225 2 ",
"   c None",
".  c #0C0704",
"X  c #130C07",
"o  c #1C150D",
"O  c #1B140C",
"+  c #1D1B13",
"@  c #29180D",
"#  c #241C14",
"$  c #2A1D13",
"%  c #351F11",
"&  c #341D0D",
"*  c #1D2119",
"=  c #3C210E",
"-  c #292117",
";  c #24231B",
":  c #2B241B",
">  c #2E281F",
",  c #26241B",
"<  c #322215",
"1  c #3B2414",
"2  c #33261B",
"3  c #33291E",
"4  c #3C2C1D",
"5  c #392718",
"6  c #3A3219",
"7  c #262A25",
"8  c #272D28",
"9  c #342C23",
"0  c #3A2E22",
"q  c #2B322B",
"w  c #3B3125",
"e  c #34342B",
"r  c #3C3429",
"t  c #37372B",
"y  c #2B3532",
"u  c #2D3934",
"i  c #2E3D39",
"p  c #343C33",
"a  c #3A3C33",
"s  c #333A35",
"d  c #242D36",
"f  c #1E2631",
"g  c #422D1C",
"h  c #462914",
"j  c #45311E",
"k  c #4C321E",
"l  c #423818",
"z  c #553116",
"x  c #53351E",
"c  c #59361C",
"v  c #5B391E",
"b  c #5A3316",
"n  c #4D2B12",
"m  c #633B1D",
"M  c #6D3E1B",
"N  c #703F1A",
"B  c #402F20",
"V  c #423324",
"C  c #4C3623",
"Z  c #4D3926",
"A  c #433629",
"S  c #453A2B",
"D  c #4A3C2D",
"F  c #443829",
"G  c #533721",
"H  c #553924",
"J  c #5C3B23",
"K  c #533D2B",
"L  c #5C3F29",
"P  c #443D32",
"I  c #4B3E31",
"U  c #4B3633",
"Y  c #533A38",
"T  c #643E21",
"R  c #35423C",
"E  c #3B443C",
"W  c #56471D",
"Q  c #76441E",
"!  c #6F401C",
"~  c #48412A",
"^  c #5D412C",
"/  c #564728",
"(  c #4C4132",
")  c #43453C",
"_  c #48453A",
"`  c #534C3A",
"'  c #574734",
"]  c #58523A",
"[  c #5C5023",
"{  c #654126",
"}  c #6B4223",
"|  c #63432B",
" . c #6B462B",
".. c #6D482E",
"X. c #6A4C24",
"o. c #744523",
"O. c #7D4A24",
"+. c #714729",
"@. c #734A2C",
"#. c #7B4D2C",
"$. c #784823",
"%. c #68582A",
"&. c #785729",
"*. c #634732",
"=. c #6A4931",
"-. c #654936",
";. c #734D32",
":. c #7A4F32",
">. c #675836",
",. c #795233",
"<. c #796638",
"1. c #726233",
"2. c #323F40",
"3. c #5D3E46",
"4. c #344543",
"5. c #3B4A44",
"6. c #374B4A",
"7. c #3B4E4C",
"8. c #3B4741",
"9. c #3D514E",
"0. c #3C5353",
"q. c #3F5758",
"w. c #434B44",
"e. c #4B4B44",
"r. c #474743",
"t. c #524C44",
"y. c #5A494B",
"u. c #4C534A",
"i. c #4A544A",
"p. c #535442",
"a. c #555B4C",
"s. c #5B5745",
"d. c #5D4D50",
"f. c #415A5C",
"g. c #455857",
"h. c #585952",
"j. c #65444C",
"k. c #685E42",
"l. c #7B5349",
"z. c #634C52",
"x. c #6B4D56",
"c. c #6A4A55",
"v. c #724E55",
"b. c #6A5256",
"n. c #785050",
"m. c #556258",
"M. c #4F615E",
"N. c #686449",
"B. c #7A6B46",
"V. c #7C724E",
"C. c #797758",
"Z. c #6B6B56",
"A. c #546561",
"S. c #6A7261",
"D. c #757B68",
"F. c #81481E",
"G. c #844D23",
"H. c #814F2A",
"J. c #8A4E21",
"K. c #8C5125",
"L. c #83512D",
"P. c #8C542B",
"I. c #925426",
"U. c #93562A",
"Y. c #96592E",
"T. c #9A5B2C",
"R. c #9D5926",
"E. c #835431",
"W. c #8B5631",
"Q. c #8D5933",
"!. c #945A31",
"~. c #9B5E32",
"^. c #A25E2B",
"/. c #A65E28",
"(. c #A05F30",
"). c #886A37",
"_. c #9B6336",
"`. c #8B723D",
"'. c #897034",
"]. c #96773D",
"[. c #846C2F",
"{. c #AA632D",
"}. c #B3662D",
"|. c #A46333",
" X c #AB6532",
".X c #AC6936",
"XX c #B36A35",
"oX c #B76D34",
"OX c #BA723A",
"+X c #BA7137",
"@X c #C57C3D",
"#X c #845C41",
"$X c #876B46",
"%X c #887549",
"&X c #947E49",
"*X c #837A54",
"=X c #936B42",
"-X c #A07542",
";X c #75817C",
":X c #7E8062",
">X c #9B834B",
",X c #9A8756",
"<X c #8A8057",
"1X c #AB8B4B",
"2X c #A78746",
"3X c #B6894A",
"4X c #B5954C",
"5X c #A68D53",
"6X c #AD9457",
"7X c #B49855",
"8X c #888764",
"9X c #9C9162",
"0X c #A79967",
"qX c #A19D7C",
"wX c #B1A46F",
"eX c #C3924D",
"rX c #CAA658",
"tX c #7B8782",
"yX c #878F85",
"uX c #AFAF95",
"iX c #AAB0A4",
"pX c #BFC2B4",
"aX c #CED0BC",
"sX c #CED1C2",
"dX c #D7DACA",
/* pixels */
"                                                                                                                                ",
"                                                                                                                                ",
"                                                                                                                                ",
"                                                                                                                                ",
"                                                                                                                                ",
"                                                                                                                                ",
"                                                                                                                                ",
"                                                                                                                                ",
"                                                    sXsXiXtX;X;XtX;XtXiXsXdXdX                                                  ",
"                                                pX;Xf.q.f.M.m.M.0.f.A.S.S.D.yXpXdX                                              ",
"                                              yX0.7.0.0.f.A.S.i.4.f.S.8XD.Z.D.*XuXaX                                            ",
"                                            ;Xf.0.f.f.f.f.m.S.N.6.g.Z.8X8X*X8X9X0XuXaX                                          ",
"                                          A.0.q.q.6.4.4.) i.C.C.7.u.%XV.2X>X5X0X0X7XqXuX                                        ",
"                                  f.M.A.q.q.f.6.R 4.R R q R >.V.a.] <.<.1.B.&X2X7XwX9X8XD.D.S.                                  ",
"  >.~ s p E E R 4.6.7.g.q.g.q.0.0.0.6.6.0.0.9.4.6.4.R ` E E ] a.V.%X`.k.N.k.$X5X1X7X0X9X*Xm.h.m.m.m.h.m.a.a.p.s.` S w e a e ~   ",
"      p w.e.e.) ) U U A 0 e q i R 4.4.4.6.9.6.R 4.d f y 5.E 5.i.>X1X).] y d 4.Z.1X5X0X5X&Xk.` s.] ~ / v | -.-.] ` _ ) ` '       ",
"        a e.u.u.t.y.y.j.3.U A 9 , ; 7 8 4.R 4.7 u 8 7 q R E 5.i.6X4X).F 7 e ` 1X| 4X4X4X'.%.X.+.X. .;.l.n.v.y.t.` t.` >.        ",
"          ) i.u.u.z.c.c.c.3.Y P a p e ; y i 6.q . . . . X E 9.i.,X,X>XO . . X = <.7X1X2X/ _.].)._.).l.n.v.x.j.t.t.s.            ",
"              i.u.z.b.x.c.c.y.3._ ) e 7 8 6.6.6.R 7 7 u 4.9.6.p.%X2X,XV.] ~ ~ `.4X*X7X`.H ;.eX-X=Xl.v.v.x.x.z.t.k.              ",
"              E w.u.d.z.c.c.j.y.e.8.y q q 5.9.0.9.6.6.9.9.9.5.` %X>X<XV.*XV.>X,X*X6XrX].( ' 3X3X$Xv.x.c.z.d.t.p.$X              ",
"                R 5.w.e.y.d.d.y.w.E u y u 6.9.g.g.i.a.i.9.E w.] N.V.*X*XV.C.<X,X6XrXrX%X' ` 2X-Xb.b.d.t.e.e.p.<.                ",
"                  e E 8.5.r.r.r.5.R R y q R 5.5.E ) i.i.) R t E ' %.] $XV.B.>X1XeXrX4X`.` k.&X%Xs.t.e.) ) ` >.                  ",
"                      e p p a p R u R u y q u p R E _ [ E > u _ %.1.<.l / <.'.2X2X2X].2XN.<.<.1.] _ P S A                       ",
"                                    9 8 7 7 , 9 q t W ~ R R E _ <.>X`.`.[ W %.&.[.[.[.[.>.[                                     ",
"                                      %X*Xk.# , > : 7 q 8 q q F [ 1.1.%.%.[ W [ &.<.<.B.=X                                      ",
"                                    I S 9 V w 4 4 + + * * + * - : 6 6 6 W 6 l W  .E.G.L.H._.                                    ",
"                                    9 > : : > 4 j c x g 4 V V G V 5 O + 6 k ! } $.G.O.K.T.R.                                    ",
"                                  w > : # : > 4 j j 4 4 G J  .@.$.! j { m v v ! T T o.G.K.I.OX                                  ",
"                                  w > - # : : 4 j k 2 > 5 G J T P.z v v v c H T m T o.Q J.J.OX                                  ",
"                                  0 : - # : : 4 j k 4 : > g G J Q 1 v v x x x v v T o.$.J.^.+X                                  ",
"                                  w 3 : : : : 3 V k j : : 3 g c Q = k J x k k G J T $.o.K.{.+X                                  ",
"                                  w 3 3 : : : 9 g G B > 2 4 B J ! < k J c k c H J T $.O.I.{.                                    ",
"                                9 # 9 9 : : 9 2 0 G 0 9 0 4 g G m 1 G v H c x J T T o.G.P.P.                                    ",
"                                r 9 # # : 7 $ 7 4 V 2 9 0 B B G z 1 c m v J v T m m N $.M o.+.XX                                ",
"                                S r 9 # o # # $ 2 3 > 2 g V g C n 1 x v T T v m T m c h T ~.^.}.                                ",
"                              F 0 9 9 9 : # o o # # : 2 g C C B m % h c z z z h % @ 5 H. XR.I.(._.                              ",
"                            D S A 9 9 2 9 9 7 $ # o O @ $ g 5 2 m @ h h z n 1 2 # 9 T  X/.J.P.#.!.OX                            ",
"                          V S F 0 9 : : 9 r L B : : : k 5 h h & h @ m } $.T H 9 9 r E. XJ.G. .@.Y. X.X                          ",
"                        D P r 0 0 9 : , 9 9  .9 > , 9 | Z C H J C % ..W.L.#.} 0 9 0 ;./.G.m J } T H.oX@X                        ",
"                        V F V V : $ 9 $ 9 9 | 0 9 > 9 ^ L K =.;.T k T Q.~.H.#.A 0 0 +./.Q z 1 5 @.~.oXoX                        ",
"                        # - 0 V 0 # # $ e 9 K K 9 9 # A *.*...@.*.C C ~.^.W.L.U w C U.{.M & @ C +.I.F.N                         ",
"                          ; 7 0 3 # X : r 9 r L 9 2 $ r =.@.+.@.L C B ~.Y.P.+.r e H.I.~.Q O & x o.<.z                           ",
"                          p i ; # O X r r e 9 L H 7 $ 9 -.Q.:.@.L L $ Y.P.Y.K 0 J ^.#.P.T.X & b / &X                            ",
"                          5.i + O X 9 S r 9 9 A :., 9 7 L Q.H.;.| | # U.Y.U.A w P.^.J W. XM @ z 0 %X                            ",
"                          R 8 + o # ( P A r 9 e  .H : $ r E.Y.;.=. .% P.Y.P.r S ^.P.L E.~.|.$ # 9 >.1X                          ",
"                          8 * +   ( ( D S A r 9 A @.9 $ 9 *.!.L.@.L g H.Y.H.A |  XT | W.!.OX  $ j / ].                          ",
"                          u 7 + w ( ( I D D S r 0  .B 9 $ r W.Y.:.| h H.^...A ..^.L | #.Q..XXX: / [ 2X                          ",
"                          8 , : D V F D I D U V 0 C ..9 , 9 L Q.W. .g #.~...A #.U.H T @.P.|.OX  6 Z ).                          ",
"                                V 0 V S D ( D A V V ^  .9 $ 0 @.~.@.g T W.+.| P.P.H  . .#.|.OX                                  ",
"                                D F F F Z S F F F V r #.H 2 9 L ~.P.k B :.;.#.T.P. .T T #.(.oX.X                                ",
"                              ( P S D S V D D D D S r K H.B 9 V P.~.C :  .@.L.(.U.@.T D  .Y..X~._.                              ",
"                            P P P P D F V F V F S S w r ;.P.9 0 @.T.T $ | @.H.T.I.+.L D T W..X.X|.OX                            ",
"                            P P P P I I F V w V r r r 9 K !.@.V H L.+.# L #.H.R.G.T L A Z :.|.XXOX@X                            ",
"                          r r P P I ( I D F V 0 w w r 9 V L.P...L  .+.o L #.P.K.O.H r w r ..Q..XoXoX                            ",
"                            , 9 t I ^ ^ D F r r 9 9 9 9 4  .P.H.;.T +.# H H.I.H.Z 0 0 9 D :.W. XoX{.                            ",
"                            , > : 9 r ^  .L S r 9 9 9 0 0 T #.H.:.T  .h H L.I.K 0 9 9 w | P.Y./.}.}.                            ",
"                            A r , $ , 9 K | T Y D r r 9 A | #.:.E... .n H K.O.w 9 9 9 K E.P.I.R.}.oX                            ",
"                            a r 9 $ $ # : A K =.*.-.K S D =.#.#.E.E.T z | U.L w 9 9 V } G.Q F.I.}.oX                            ",
"                          a r 9 9 7 , , # # , A ^ =.;.' *.,.:.:.E.E...1 Z Y.L r w Z { M Q N N O.Y..X_.                          ",
"                        P r r 9 9 2 9 : # # o # : V L | :.E.;.;.Q.:.U # 9 H. .S | #.Q M N $.T } #.L.;.                          ",
"                        9 > 9 9 9 > 9 9 9 : # + o o $ 0 J T | ^ Q.W.@.O # T @.:.L.o.c c J K V w w w V w                         ",
"                        # + # > 9 9 9 9 9 9 9 : $ # # # < 5 2 4  .#.| # o $ B B 2 : 9 9 2 : # - - -                             ",
"                                            9 w 9 9 9 9 > : # # 2 2 0 # o : $ # > 9 : # :                                       ",
"                                                                : : : # : 0 9 w                                                 "
};
