/* XPM */
static char *_444816a1cf14213c9470d015611952b2Ro8AeKUH7jX1ei1[] = {
/* columns rows colors chars-per-pixel */
"64 64 211 2 ",
"   c None",
".  c #191D14",
"X  c #6B363C",
"o  c #6B393C",
"O  c #66383A",
"+  c #71363D",
"@  c #71383B",
"#  c #63403C",
"$  c #6C3840",
"%  c #585051",
"&  c #6E4749",
"*  c #684544",
"=  c #73474A",
"-  c #7C4843",
";  c #78534F",
":  c #625C50",
">  c #7A5A55",
",  c #7D5454",
"<  c #646045",
"1  c #7A6953",
"2  c #7B6D66",
"3  c #7B726B",
"4  c #85543F",
"5  c #8E5547",
"6  c #835B58",
"7  c #A95448",
"8  c #94784B",
"9  c #896855",
"0  c #8D7C54",
"q  c #987B57",
"w  c #8E764B",
"e  c #A4765D",
"r  c #A57C58",
"t  c #B57C5F",
"y  c #A77E4B",
"u  c #826E62",
"i  c #89786A",
"p  c #987961",
"a  c #897976",
"s  c #947C70",
"d  c #9A6869",
"f  c #A76F6D",
"g  c #AD7C65",
"h  c #A37565",
"j  c #B27C61",
"k  c #B77F65",
"l  c #B37679",
"z  c #AD7973",
"x  c #DCA63F",
"c  c #E0A53F",
"v  c #AA854D",
"b  c #AC884E",
"n  c #A5864E",
"m  c #B58C4C",
"M  c #BA8F4C",
"N  c #B88E47",
"B  c #B4914D",
"V  c #BB934C",
"C  c #A48553",
"Z  c #AA8555",
"A  c #A58A55",
"S  c #AA8A54",
"D  c #AE8E58",
"F  c #B28C52",
"G  c #B28D59",
"H  c #B59253",
"J  c #BD9352",
"K  c #BD9A5B",
"L  c #988267",
"P  c #878679",
"I  c #888471",
"U  c #94927F",
"Y  c #92857C",
"T  c #A88668",
"R  c #B48163",
"E  c #BA8367",
"W  c #B39464",
"Q  c #B59866",
"!  c #AE8E71",
"~  c #A49377",
"^  c #B59A79",
"/  c #A2A174",
"(  c #BCA67C",
")  c #C49544",
"_  c #CA9A47",
"`  c #C3954B",
"'  c #CD954E",
"]  c #C4994C",
"[  c #CC9C4B",
"{  c #C79C46",
"}  c #D39E44",
"|  c #D19E4A",
" . c #C39A53",
".. c #CA9B53",
"X. c #C79758",
"o. c #D29F50",
"O. c #CEA14A",
"+. c #D5A446",
"@. c #DDA642",
"#. c #DDA842",
"$. c #D5A24C",
"%. c #DBA54A",
"&. c #DDAA4A",
"*. c #CCA15A",
"=. c #C7A051",
"-. c #D6A451",
";. c #D7AA55",
":. c #DFB055",
">. c #DDB35C",
",. c #E1A542",
"<. c #E2AD50",
"1. c #E1B35C",
"2. c #C58563",
"3. c #C88763",
"4. c #C68962",
"5. c #C88862",
"6. c #C8A868",
"7. c #CCB06B",
"8. c #DEBB69",
"9. c #DDB469",
"0. c #C5A870",
"q. c #CDB67A",
"w. c #E2B866",
"e. c #E1BE71",
"r. c #DCC37D",
"t. c #E2C16D",
"y. c #E2C274",
"u. c #E6C67C",
"i. c #EACA7F",
"p. c #E7C87E",
"a. c #7088A5",
"s. c #758EB5",
"d. c #8A8A84",
"f. c #8E9081",
"g. c #999484",
"h. c #9B998A",
"j. c #9F9994",
"k. c #988E84",
"l. c #AA9E8B",
"z. c #AB9C83",
"x. c #AD998A",
"c. c #AEA58A",
"v. c #B6A98B",
"b. c #BFB88C",
"n. c #AFAB94",
"m. c #ACA798",
"M. c #B3AD92",
"N. c #BCA79D",
"B. c #BBA89D",
"V. c #B7B394",
"C. c #BCB595",
"Z. c #B4B29C",
"A. c #BCB79B",
"S. c #BDB99B",
"D. c #BEBC97",
"F. c #A9A0A0",
"G. c #B6AAA6",
"H. c #BDBBA5",
"J. c #CC8986",
"K. c #E0908D",
"L. c #CDB88A",
"P. c #D2BF83",
"I. c #C1AE9E",
"U. c #C1BB98",
"Y. c #C1A984",
"T. c #D8C88B",
"R. c #CAC699",
"E. c #D5CE9D",
"W. c #D3C996",
"Q. c #D5D396",
"!. c #D8D59C",
"~. c #E9CE86",
"^. c #E7CB88",
"/. c #E9D38F",
"(. c #ECD292",
"). c #E4DB99",
"_. c #EADA9A",
"`. c #F0DB99",
"'. c #E5E39D",
"]. c #CAC3A6",
"[. c #CBC5A7",
"{. c #D4CCA2",
"}. c #DACDA2",
"|. c #D4CDAA",
" X c #D6D1A6",
".X c #DCD5AC",
"XX c #DAD5A6",
"oX c #D3CDB3",
"OX c #D8D4B3",
"+X c #ECDDA5",
"@X c #E3DBAC",
"#X c #E1DAA6",
"$X c #F1DEA1",
"%X c #E4DCB3",
"&X c #E8DEB2",
"*X c #EBE7A1",
"=X c #ECEAA2",
"-X c #EDE8AC",
";X c #F4E5AB",
":X c #F3E8A9",
">X c #F3F1A3",
",X c #F9F2A5",
"<X c #F5F1AA",
"1X c #E5E1B3",
"2X c #EBE4B4",
"3X c #EBE3BA",
"4X c #EFEBBF",
"5X c #F1E5B2",
"6X c #F5EAB5",
"7X c #F9EAB4",
"8X c #F4EBBB",
/* pixels */
"                                    1                                                                                           ",
"                                      Q                                                                                         ",
"                                      N G                                                                                       ",
"                                      o.$.                                                                                      ",
"                                      S %.F   T                                                                                 ",
"                                        ` @.[ %.                                                                                ",
"                                          [ ,.,.b                                                                               ",
"                                            +.%.|                                                                               ",
"                                            r @.@.`                                                                             ",
"                                              ` @.@.`  .            F W                                                         ",
"                                            S J ,.&.#.%.          F %.                                                          ",
"                                            $.@.c x ,.@.       .| T.-.                                                          ",
"                                            m &.,.#.c c V v  ._ W.;X..                                                          ",
"                                            S ,.,.x x #.x ) %.' 8X$XF                                                           ",
"                          Z m M -. .{ ` ] ..n @.c :.~.1.x ) $. .( r.                                                            ",
"                          H %.>.v.n.L.| $.,.y @.c 1.:X6Xr.@.{ { J =.u                                                           ",
"                            9 w . . U.@XE. ._ #.#.t.6X7X~.#.0.).=X).~                                                           ",
"                              T h g ! #X8 ` ,.@.6.T.Q.!.9._ *X,X,X,XQ.          Z.H.P                                           ",
"                            : k k k 0 T.6.' %.*.'.>X>X>XP.[ '.>X< :X<X        m.OXOX1X                                          ",
"                          H.I k 9 2   1 ` V $.q.>X'./ >X).%.Q.>X*X>X#X        3XXX8X].                                          ",
"                          [.Y p h [.        $.7.<X>Xb.<XW.W f.R.Q.!.OXV.f.    .X2X.X                                            ",
"                          M.^ t T |.        T.^.).,X>X'.R.s.a.|.2X6X&XU.h.    2X1XV.                                            ",
"                          j 2.2.3.I.      A.2X6X1X X!. X1X@X|.5X@XS.u A.Z.    [.OX                                              ",
"                          3.5.5.3.~     |.8X6X@X|..X.X@X1X1XC.].O & + O h.  P.+XZ.                                              ",
"                        e 4.5.5.4.L     V.|.@X.Xi o i n.g.X o a & $ + $ v.W J W                                                 ",
"                        k 4.4.5.3.Y.    oX3X6XOX> @ X , z l & + $ $ $ $ @X..@.C                                                 ",
"                        3.4.3.3.4.v Z i n.}.2X2Xz.X f K.d = X + + + 2 v.0.#.V                                                   ",
"                      e 4.4.5.2.2.' &.$.U.2X{.2X6Xc.J.l & Y $ O 6 ^ OXL.&. .                                                    ",
"                      j 3.3.2.2.e Z O.} F B 0.E.6X6X2XE.C.c.c.c.].8X@X..+.L                                                     ",
"                      2.3.3.t R p     ` | x @.| R.#X}.%X8X1X5 4 Q K ....8                                                       ",
"                      s E 2.h g         L V [ @.+.} (.%X|.{.D. X:.&.{                                                           ",
"                                              M @.@.(.5X5X8X6X5X^.[                                                             ",
"                                                C { /.6X6X6X6X6X^.b                                                             ",
"                                                  b >.6X6X6X6X6Xt.C                                                             ",
"                                                    $.~.7X7X6X7X:.B                                                             ",
"                                                    O.@.;X6X6X7X9.%.                                                            ",
"                                                    $.<.;X7X7X6Xw.x C                                                           ",
"                                                    _ <.7X5X7X6X/.&.C                                                           ",
"                                                    ) x ^.5X6X7X7X~.D                                                           ",
"                                                    _ x w.8X6X6X7X`.V                                                           ",
"                                                    $.c 1.7X7X6X6X:X;.                                                          ",
"                                                    %.x #.$X6X6X6X7Xi.C                                                         ",
"                                                    $.x #.$X6X6X6X6Xi.S                                                         ",
"                                                    N x @.(.6X6X6X6X/.D                                                         ",
"                                            - *     V x x &.:X6X6X6X`.H                                                         ",
"                                            7 5     V ,.x @.$X6X7X6X`.H                                                         ",
"                                          > 7 6     V #.x c u.6X6X:Xe.$.                                                        ",
"                                            %       V ,.x ,.&.i.$Xy.x @.q                                                       ",
"                                          d.        q %.c x x #.&.#.#.@.                                                        ",
"                                          G.          ) x x #.c x @.} @.C                                                       ",
"                                          j.          $.&.V ' [ $.| q %.`                                                       ",
"                                          F.a       C @...N.3         { $.                                                      ",
"                                            G.      Z ,.^ N.          ' +.                                                      ",
"                                            l.G.m.k.W ,.0.            m @.                                                      ",
"                                                N.I.X.,.C             b @.                                                      ",
"                                                    M $.              B -.                                                      ",
"                                                    M +.              -.`                                                       ",
"                                                    [ )               %.)                                                       ",
"                                                    [ V             L +.N                                                       ",
"                                                  8 %.m             A @.#.%.]                                                   ",
"                                              *.$.@.@.K             C.y.:.,.&.9.C.                                              ",
"                                            E./.8.w.(.{.               X5X*X+X@X%Xh.                                            ",
"                                          h.8X|.@X8X@X                    oXH.A.oXP                                             ",
"                                          j.g.H.h.                                                                              "
};
